M48
; DRILL file {KiCad 9.0.2} date 2025-11-23T17:01:32+0900
; FORMAT={-:-/ absolute / inch / decimal}
; #@! TF.CreationDate,2025-11-23T17:01:32+09:00
; #@! TF.GenerationSoftware,Kicad,Pcbnew,9.0.2
; #@! TF.FileFunction,Plated,1,2,PTH
FMAT,2
INCH
; #@! TA.AperFunction,Plated,PTH,ViaDrill
T1C0.0118
; #@! TA.AperFunction,Plated,PTH,ComponentDrill
T2C0.0276
; #@! TA.AperFunction,Plated,PTH,ComponentDrill
T3C0.0295
; #@! TA.AperFunction,Plated,PTH,ComponentDrill
T4C0.0315
; #@! TA.AperFunction,Plated,PTH,ComponentDrill
T5C0.0354
; #@! TA.AperFunction,Plated,PTH,ComponentDrill
T6C0.0374
; #@! TA.AperFunction,Plated,PTH,ComponentDrill
T7C0.0394
; #@! TA.AperFunction,Plated,PTH,ComponentDrill
T8C0.0472
; #@! TA.AperFunction,Plated,PTH,ComponentDrill
T9C0.0512
; #@! TA.AperFunction,Plated,PTH,ComponentDrill
T10C0.0787
%
G90
G05
T1
X1.475Y-4.275
X1.475Y-4.5
X1.725Y-1.875
X1.725Y-2.075
X2.125Y-4.4
X2.375Y-2.075
X2.675Y-4.05
X2.725Y-4.175
X2.725Y-4.5
X2.7852Y-2.3994
X2.8603Y-2.4014
X2.9777Y-4.0357
X3.05Y-2.5
X3.05Y-2.6
X3.05Y-3.05
X3.05Y-3.3
X3.0875Y-2.8932
X3.1Y-2.125
X3.175Y-4.125
X3.175Y-4.375
X3.225Y-1.7
X3.225Y-1.9
X3.3688Y-2.9773
X3.4385Y-2.9027
X3.4665Y-2.2136
X3.475Y-2.9212
X3.5433Y-4.0551
X3.55Y-1.925
X3.5512Y-1.9488
X3.5633Y-4.0383
X3.5757Y-3.9014
X3.6Y-2.125
X3.625Y-3.875
X3.65Y-3.15
X3.6508Y-3.8508
X3.8Y-2.4
X3.8189Y-3.5827
X3.8189Y-3.6
X4.1Y-1.9
X4.1337Y-3.6442
X4.2556Y-2.4535
X4.275Y-3.975
X4.3288Y-3.6733
X4.35Y-4.225
X4.6Y-1.7
X4.65Y-4.225
X4.75Y-3.025
X4.775Y-3.45
X4.975Y-4.225
X5.075Y-1.925
X5.1Y-3.15
T2
X2.7724Y-1.8504
X2.7724Y-1.9685
X2.9724Y-1.8504
X2.9724Y-1.9685
X4.1732Y-1.9866
X4.1732Y-2.1866
X4.4094Y-1.9866
X4.4094Y-2.1866
T3
X4.5669Y-2.126
X4.6169Y-2.076
X4.6669Y-2.126
T4
X4.2913Y-3.6024
X4.2913Y-3.7992
X4.4508Y-3.6024
X4.4508Y-3.7992
T5
X4.1535Y-4.5866
X4.2535Y-4.5866
T6
X1.9291Y-1.7323
X1.9291Y-1.8307
X1.9291Y-1.9291
X1.9291Y-2.0276
X2.2431Y-1.7323
X2.2431Y-1.8307
X2.2431Y-1.9291
X2.2431Y-2.0276
X2.5591Y-1.7323
X2.5591Y-1.8307
X2.5591Y-1.9291
X2.5591Y-2.0276
X2.5591Y-4.2913
X2.5591Y-4.3898
X2.5591Y-4.4882
X2.5591Y-4.5866
T7
X1.562Y-4.3116
X1.562Y-4.41
X1.9428Y-4.2585
X1.9448Y-4.5585
X2.0428Y-4.2585
X2.0448Y-4.5585
X2.1428Y-4.2585
X2.1448Y-4.5585
X2.2428Y-4.2585
X2.2448Y-4.5585
X2.6673Y-2.2638
X2.6673Y-2.3638
X2.6673Y-2.4638
X2.6673Y-2.5638
X2.6673Y-2.6638
X2.8346Y-2.4996
X2.8346Y-2.5996
X2.8346Y-2.6996
X2.8346Y-2.7996
X2.8346Y-2.8996
X2.8346Y-2.9996
X2.8346Y-3.0996
X2.8346Y-3.1996
X2.8346Y-3.2996
X2.8346Y-3.3996
X2.8346Y-3.4996
X2.8346Y-3.5996
X2.8346Y-3.6996
X2.8346Y-3.7996
X2.8346Y-3.8996
X2.8346Y-3.9996
X2.8346Y-4.0996
X2.8346Y-4.1996
X2.8346Y-4.2996
X2.8346Y-4.3996
X2.9346Y-2.4996
X2.9346Y-2.5996
X2.9346Y-2.6996
X2.9346Y-2.7996
X2.9346Y-2.8996
X2.9346Y-2.9996
X2.9346Y-3.0996
X2.9346Y-3.1996
X2.9346Y-3.2996
X2.9346Y-3.3996
X2.9346Y-3.4996
X2.9346Y-3.5996
X2.9346Y-3.6996
X2.9346Y-3.7996
X2.9346Y-3.8996
X2.9346Y-3.9996
X2.9346Y-4.0996
X2.9346Y-4.1996
X2.9346Y-4.2996
X2.9346Y-4.3996
X3.3764Y-2.074
X3.3764Y-2.174
X3.3764Y-2.274
X3.3764Y-2.374
X3.3764Y-2.474
X3.3764Y-2.574
X3.3764Y-2.674
X3.3764Y-2.774
X3.3764Y-2.874
X3.3764Y-3.4252
X3.3764Y-3.5252
X3.3764Y-3.6252
X3.3764Y-3.7252
X3.3764Y-3.8252
X3.3764Y-3.9252
X3.3764Y-4.0252
X3.3764Y-4.1252
X3.3764Y-4.2252
X3.4547Y-1.7224
X3.4547Y-4.6063
X3.5433Y-3.0413
X3.5433Y-3.2776
X3.5531Y-1.7224
X3.5531Y-4.6063
X3.6433Y-3.0413
X3.6433Y-3.2776
X3.8091Y-1.7224
X3.8189Y-4.6073
X3.9075Y-1.7224
X3.9173Y-4.6073
X3.9764Y-2.074
X3.9764Y-2.174
X3.9764Y-2.274
X3.9764Y-2.374
X3.9764Y-2.474
X3.9764Y-2.574
X3.9764Y-2.674
X3.9764Y-2.774
X3.9764Y-2.874
X3.9764Y-3.4252
X3.9764Y-3.5252
X3.9764Y-3.6252
X3.9764Y-3.7252
X3.9764Y-3.8252
X3.9764Y-3.9252
X3.9764Y-4.0252
X3.9764Y-4.1252
X3.9764Y-4.2252
X4.1772Y-2.9154
X4.225Y-1.725
X4.3234Y-1.725
X4.4882Y-4.6063
X4.5866Y-4.6063
X4.6496Y-2.9154
T8
X4.8425Y-2.1717
X4.8425Y-2.3717
X4.8425Y-3.622
X4.8425Y-3.8189
T9
X4.1752Y-2.4331
X4.4114Y-2.9921
X4.6496Y-2.435
X4.9213Y-2.5984
X4.9213Y-2.7953
T10
X4.3622Y-3.2677
X4.7244Y-3.2677
M30
