%TF.GenerationSoftware,KiCad,Pcbnew,9.0.2*%
%TF.CreationDate,2025-11-23T17:01:27+09:00*%
%TF.ProjectId,Retriever1_mother,52657472-6965-4766-9572-315f6d6f7468,rev?*%
%TF.SameCoordinates,Original*%
%TF.FileFunction,Copper,L2,Bot*%
%TF.FilePolarity,Positive*%
%FSLAX46Y46*%
G04 Gerber Fmt 4.6, Leading zero omitted, Abs format (unit mm)*
G04 Created by KiCad (PCBNEW 9.0.2) date 2025-11-23 17:01:27*
%MOMM*%
%LPD*%
G01*
G04 APERTURE LIST*
G04 Aperture macros list*
%AMRoundRect*
0 Rectangle with rounded corners*
0 $1 Rounding radius*
0 $2 $3 $4 $5 $6 $7 $8 $9 X,Y pos of 4 corners*
0 Add a 4 corners polygon primitive as box body*
4,1,4,$2,$3,$4,$5,$6,$7,$8,$9,$2,$3,0*
0 Add four circle primitives for the rounded corners*
1,1,$1+$1,$2,$3*
1,1,$1+$1,$4,$5*
1,1,$1+$1,$6,$7*
1,1,$1+$1,$8,$9*
0 Add four rect primitives between the rounded corners*
20,1,$1+$1,$2,$3,$4,$5,0*
20,1,$1+$1,$4,$5,$6,$7,0*
20,1,$1+$1,$6,$7,$8,$9,0*
20,1,$1+$1,$8,$9,$2,$3,0*%
G04 Aperture macros list end*
%TA.AperFunction,ComponentPad*%
%ADD10C,1.400000*%
%TD*%
%TA.AperFunction,ComponentPad*%
%ADD11R,1.700000X1.700000*%
%TD*%
%TA.AperFunction,ComponentPad*%
%ADD12C,1.700000*%
%TD*%
%TA.AperFunction,ComponentPad*%
%ADD13RoundRect,0.250000X1.000000X-1.000000X1.000000X1.000000X-1.000000X1.000000X-1.000000X-1.000000X0*%
%TD*%
%TA.AperFunction,ComponentPad*%
%ADD14C,2.500000*%
%TD*%
%TA.AperFunction,ComponentPad*%
%ADD15RoundRect,0.250000X-0.600000X-0.750000X0.600000X-0.750000X0.600000X0.750000X-0.600000X0.750000X0*%
%TD*%
%TA.AperFunction,ComponentPad*%
%ADD16O,1.700000X2.000000*%
%TD*%
%TA.AperFunction,ComponentPad*%
%ADD17RoundRect,0.250001X0.949999X-0.949999X0.949999X0.949999X-0.949999X0.949999X-0.949999X-0.949999X0*%
%TD*%
%TA.AperFunction,ComponentPad*%
%ADD18C,2.400000*%
%TD*%
%TA.AperFunction,ComponentPad*%
%ADD19C,3.000000*%
%TD*%
%TA.AperFunction,ComponentPad*%
%ADD20RoundRect,0.250000X0.725000X-0.600000X0.725000X0.600000X-0.725000X0.600000X-0.725000X-0.600000X0*%
%TD*%
%TA.AperFunction,ComponentPad*%
%ADD21O,1.950000X1.700000*%
%TD*%
%TA.AperFunction,ComponentPad*%
%ADD22C,3.500000*%
%TD*%
%TA.AperFunction,ComponentPad*%
%ADD23R,1.800000X1.800000*%
%TD*%
%TA.AperFunction,ComponentPad*%
%ADD24C,1.800000*%
%TD*%
%TA.AperFunction,ComponentPad*%
%ADD25R,2.400000X2.400000*%
%TD*%
%TA.AperFunction,ComponentPad*%
%ADD26C,1.600000*%
%TD*%
%TA.AperFunction,ComponentPad*%
%ADD27RoundRect,0.250000X0.600000X0.750000X-0.600000X0.750000X-0.600000X-0.750000X0.600000X-0.750000X0*%
%TD*%
%TA.AperFunction,ComponentPad*%
%ADD28RoundRect,0.250000X0.750000X-0.600000X0.750000X0.600000X-0.750000X0.600000X-0.750000X-0.600000X0*%
%TD*%
%TA.AperFunction,ComponentPad*%
%ADD29O,2.000000X1.700000*%
%TD*%
%TA.AperFunction,ComponentPad*%
%ADD30C,1.300000*%
%TD*%
%TA.AperFunction,ComponentPad*%
%ADD31R,1.300000X1.300000*%
%TD*%
%TA.AperFunction,ViaPad*%
%ADD32C,0.500000*%
%TD*%
%TA.AperFunction,ViaPad*%
%ADD33C,0.600000*%
%TD*%
%TA.AperFunction,Conductor*%
%ADD34C,0.200000*%
%TD*%
%TA.AperFunction,Conductor*%
%ADD35C,2.000000*%
%TD*%
%TA.AperFunction,Conductor*%
%ADD36C,1.000000*%
%TD*%
G04 APERTURE END LIST*
D10*
%TO.P,R2,1*%
%TO.N,+3.3V*%
X75500000Y-47000000D03*
%TO.P,R2,2*%
%TO.N,SCL*%
X70420000Y-47000000D03*
%TD*%
D11*
%TO.P,J6,1,Pin_1*%
%TO.N,+3.3V*%
X49398000Y-115785400D03*
D12*
%TO.P,J6,2,Pin_2*%
%TO.N,GND*%
X51938000Y-115785400D03*
%TO.P,J6,3,Pin_3*%
%TO.N,SDA*%
X54478000Y-115785400D03*
%TO.P,J6,4,Pin_4*%
%TO.N,SCL*%
X57018000Y-115785400D03*
%TD*%
D13*
%TO.P,J17,1,Pin_1*%
%TO.N,+12V*%
X125000000Y-71000000D03*
D14*
%TO.P,J17,2,Pin_2*%
%TO.N,GNDPWR*%
X125000000Y-66000000D03*
%TD*%
D15*
%TO.P,J16,1,Pin_1*%
%TO.N,Net-(J16-Pin_1)*%
X107315000Y-43815000D03*
D16*
%TO.P,J16,2,Pin_2*%
%TO.N,GND*%
X109815000Y-43815000D03*
%TD*%
D17*
%TO.P,D1,1,K*%
%TO.N,+5V*%
X123000000Y-60240000D03*
D18*
%TO.P,D1,2,A*%
%TO.N,Net-(D1-A)*%
X123000000Y-55160000D03*
%TD*%
D19*
%TO.P,K1,1*%
%TO.N,/TB6612\u57FA\u76E4/VM*%
X112050000Y-76000000D03*
D14*
%TO.P,K1,2*%
%TO.N,Net-(D1-A)*%
X118100000Y-74050000D03*
D19*
%TO.P,K1,3*%
%TO.N,Net-(F1-Pad2)*%
X118100000Y-61850000D03*
%TO.P,K1,4*%
%TO.N,unconnected-(K1-Pad4)*%
X106050000Y-61800000D03*
D14*
%TO.P,K1,5*%
%TO.N,+5V*%
X106100000Y-74050000D03*
%TD*%
D11*
%TO.P,J19,1,Pin_1*%
%TO.N,/TB6612\u57FA\u76E4/STBY*%
X92540000Y-83250000D03*
D12*
%TO.P,J19,2,Pin_2*%
%TO.N,+5V*%
X90000000Y-83250000D03*
%TD*%
D11*
%TO.P,J1,1,3V3*%
%TO.N,+3.3V*%
X74540000Y-111750000D03*
D12*
%TO.P,J1,2,5V*%
%TO.N,+5V*%
X72000000Y-111750000D03*
%TO.P,J1,3,SDA_I2C1/GPIO02*%
%TO.N,SDA*%
X74540000Y-109210000D03*
%TO.P,J1,4,5V*%
%TO.N,+5V*%
X72000000Y-109210000D03*
%TO.P,J1,5,SCL_I2C1/GPIO03*%
%TO.N,SCL*%
X74540000Y-106670000D03*
%TO.P,J1,6,GND*%
%TO.N,GND*%
X72000000Y-106670000D03*
%TO.P,J1,7,GPCLK0/GPIO04*%
%TO.N,RR_1*%
X74540000Y-104130000D03*
%TO.P,J1,8,GPIO14/UART_TXD*%
%TO.N,UART1_TX*%
X72000000Y-104130000D03*
%TO.P,J1,9,GND*%
%TO.N,GND*%
X74540000Y-101590000D03*
%TO.P,J1,10,GPIO15/UART_RXD*%
%TO.N,UART1_RX*%
X72000000Y-101590000D03*
%TO.P,J1,11,GPIO17/SPI1_~{CE1}*%
%TO.N,SD_Swich*%
X74540000Y-99050000D03*
%TO.P,J1,12,GPIO18/SPI1_~{CE0}/PCM_CLK/PWM0*%
%TO.N,unconnected-(J1-GPIO18{slash}SPI1_~{CE0}{slash}PCM_CLK{slash}PWM0-Pad12)*%
X72000000Y-99050000D03*
%TO.P,J1,13,GPIO27/SDIO_DAT3*%
%TO.N,RL_2*%
X74540000Y-96510000D03*
%TO.P,J1,14,GND*%
%TO.N,GND*%
X72000000Y-96510000D03*
%TO.P,J1,15,GPIO22/SDIO_CLK*%
%TO.N,FL_1*%
X74540000Y-93970000D03*
%TO.P,J1,16,GPIO23/SDIO_CMD*%
%TO.N,FL_2*%
X72000000Y-93970000D03*
%TO.P,J1,17,3V3*%
%TO.N,+3.3V*%
X74540000Y-91430000D03*
%TO.P,J1,18,GPIO24/SDIO_DAT0*%
%TO.N,FR_1*%
X72000000Y-91430000D03*
%TO.P,J1,19,MOSI_SPI0/GPIO10*%
%TO.N,unconnected-(J1-MOSI_SPI0{slash}GPIO10-Pad19)*%
X74540000Y-88890000D03*
%TO.P,J1,20,GND*%
%TO.N,GND*%
X72000000Y-88890000D03*
%TO.P,J1,21,MISO_SPI0/GPIO09*%
%TO.N,unconnected-(J1-MISO_SPI0{slash}GPIO09-Pad21)*%
X74540000Y-86350000D03*
%TO.P,J1,22,GPIO25/SDIO_DAT1*%
%TO.N,FR_2*%
X72000000Y-86350000D03*
%TO.P,J1,23,SCLK_SPI0/GPIO11*%
%TO.N,unconnected-(J1-SCLK_SPI0{slash}GPIO11-Pad23)*%
X74540000Y-83810000D03*
%TO.P,J1,24,~{CE0}_SPI0/GPIO08*%
%TO.N,unconnected-(J1-~{CE0}_SPI0{slash}GPIO08-Pad24)*%
X72000000Y-83810000D03*
%TO.P,J1,25,GND*%
%TO.N,GND*%
X74540000Y-81270000D03*
%TO.P,J1,26,~{CE1}_SPI0/GPIO07*%
%TO.N,unconnected-(J1-~{CE1}_SPI0{slash}GPIO07-Pad26)*%
X72000000Y-81270000D03*
%TO.P,J1,27,ID_SD_I2C0/GPIO00*%
%TO.N,unconnected-(J1-ID_SD_I2C0{slash}GPIO00-Pad27)*%
X74540000Y-78730000D03*
%TO.P,J1,28,ID_SC_I2C0/GPIO01*%
%TO.N,unconnected-(J1-ID_SC_I2C0{slash}GPIO01-Pad28)*%
X72000000Y-78730000D03*
%TO.P,J1,29,GPCLK1/GPIO05*%
%TO.N,RR_2*%
X74540000Y-76190000D03*
%TO.P,J1,30,GND*%
%TO.N,GND*%
X72000000Y-76190000D03*
%TO.P,J1,31,GPCLK2/GPIO06*%
%TO.N,Ext_Sw*%
X74540000Y-73650000D03*
%TO.P,J1,32,GPIO12/PWM0*%
%TO.N,FL_PWM*%
X72000000Y-73650000D03*
%TO.P,J1,33,GPIO13/PWM1*%
%TO.N,FR_PWM*%
X74540000Y-71110000D03*
%TO.P,J1,34,GND*%
%TO.N,GND*%
X72000000Y-71110000D03*
%TO.P,J1,35,GPIO19/SPI1_MISO/PCM_FS*%
%TO.N,unconnected-(J1-GPIO19{slash}SPI1_MISO{slash}PCM_FS-Pad35)*%
X74540000Y-68570000D03*
%TO.P,J1,36,GPIO16/SPI1_~{CE2}*%
%TO.N,unconnected-(J1-GPIO16{slash}SPI1_~{CE2}-Pad36)*%
X72000000Y-68570000D03*
%TO.P,J1,37,GPIO26/SDIO_DAT2*%
%TO.N,RL_1*%
X74540000Y-66030000D03*
%TO.P,J1,38,GPIO20/SPI1_MOSI/PCM_DIN/PWM1*%
%TO.N,RL_PWM*%
X72000000Y-66030000D03*
%TO.P,J1,39,GND*%
%TO.N,GND*%
X74540000Y-63490000D03*
%TO.P,J1,40,GPIO21/SPI1_SCLK/PCM_DOUT*%
%TO.N,RR_PWM*%
X72000000Y-63490000D03*
%TD*%
D20*
%TO.P,J3,1,Pin_1*%
%TO.N,GND*%
X56975000Y-51500000D03*
D21*
%TO.P,J3,2,Pin_2*%
%TO.N,+3.3V*%
X56975000Y-49000000D03*
%TO.P,J3,3,Pin_3*%
%TO.N,SDA*%
X56975000Y-46500000D03*
%TO.P,J3,4,Pin_4*%
%TO.N,SCL*%
X56975000Y-44000000D03*
%TD*%
D22*
%TO.P,F1,1*%
%TO.N,+12V*%
X120000000Y-83000000D03*
%TO.P,F1,2*%
%TO.N,Net-(F1-Pad2)*%
X110800000Y-83000000D03*
%TD*%
D11*
%TO.P,J21,1,Pin_1*%
%TO.N,+5V*%
X67750000Y-57500000D03*
D12*
%TO.P,J21,2,Pin_2*%
%TO.N,GND*%
X67750000Y-60040000D03*
%TO.P,J21,3,Pin_3*%
%TO.N,UART1_RX*%
X67750000Y-62580000D03*
%TO.P,J21,4,Pin_4*%
%TO.N,UART1_TX*%
X67750000Y-65120000D03*
%TO.P,J21,5,Pin_5*%
%TO.N,unconnected-(J21-Pin_5-Pad5)*%
X67750000Y-67660000D03*
%TD*%
D23*
%TO.P,D2,1,K*%
%TO.N,GND*%
X108040000Y-116500000D03*
D24*
%TO.P,D2,2,A*%
%TO.N,Net-(D2-A)*%
X105500000Y-116500000D03*
%TD*%
D25*
%TO.P,C2,1*%
%TO.N,/TB6612\u57FA\u76E4/VM*%
X123000000Y-97000000D03*
D18*
%TO.P,C2,2*%
%TO.N,GNDPWR*%
X123000000Y-92000000D03*
%TD*%
D26*
%TO.P,C1,1*%
%TO.N,/TB6612\u57FA\u76E4/VM*%
X109000000Y-96500000D03*
%TO.P,C1,2*%
%TO.N,GNDPWR*%
X109000000Y-91500000D03*
%TD*%
D11*
%TO.P,J11,1,Pin_1*%
%TO.N,+5V*%
X85760000Y-73000000D03*
D12*
%TO.P,J11,2,Pin_2*%
%TO.N,GND*%
X85760000Y-70460000D03*
%TO.P,J11,3,Pin_3*%
%TO.N,RR_PWM*%
X85760000Y-67920000D03*
%TO.P,J11,4,Pin_4*%
%TO.N,RR_2*%
X85760000Y-65380000D03*
%TO.P,J11,5,Pin_5*%
%TO.N,RR_1*%
X85760000Y-62840000D03*
%TO.P,J11,6,Pin_6*%
%TO.N,FR_1*%
X85760000Y-60300000D03*
%TO.P,J11,7,Pin_7*%
%TO.N,FR_2*%
X85760000Y-57760000D03*
%TO.P,J11,8,Pin_8*%
%TO.N,FR_PWM*%
X85760000Y-55220000D03*
%TO.P,J11,9,Pin_9*%
%TO.N,/TB6612\u57FA\u76E41/STBY*%
X85760000Y-52680000D03*
%TD*%
D10*
%TO.P,R1,1*%
%TO.N,+3.3V*%
X75500000Y-50000000D03*
%TO.P,R1,2*%
%TO.N,SDA*%
X70420000Y-50000000D03*
%TD*%
D27*
%TO.P,J14,1,Pin_1*%
%TO.N,/TB6612\u57FA\u76E4/BO_2*%
X99500000Y-117025000D03*
D16*
%TO.P,J14,2,Pin_2*%
%TO.N,/TB6612\u57FA\u76E4/BO_1*%
X97000000Y-117025000D03*
%TD*%
D20*
%TO.P,J2,1,Pin_1*%
%TO.N,GND*%
X49000000Y-51500000D03*
D21*
%TO.P,J2,2,Pin_2*%
%TO.N,+3.3V*%
X49000000Y-49000000D03*
%TO.P,J2,3,Pin_3*%
%TO.N,SDA*%
X49000000Y-46500000D03*
%TO.P,J2,4,Pin_4*%
%TO.N,SCL*%
X49000000Y-44000000D03*
%TD*%
D15*
%TO.P,J13,1,Pin_1*%
%TO.N,/TB6612\u57FA\u76E41/AO_2*%
X87750000Y-43750000D03*
D16*
%TO.P,J13,2,Pin_2*%
%TO.N,/TB6612\u57FA\u76E41/AO_1*%
X90250000Y-43750000D03*
%TD*%
D28*
%TO.P,J18,1,Pin_1*%
%TO.N,+3.3V*%
X39674800Y-112014000D03*
D29*
%TO.P,J18,2,Pin_2*%
%TO.N,Ext_Sw*%
X39674800Y-109514000D03*
%TD*%
D27*
%TO.P,J22,1,Pin_1*%
%TO.N,+5V*%
X116500000Y-117000000D03*
D16*
%TO.P,J22,2,Pin_2*%
%TO.N,GND*%
X114000000Y-117000000D03*
%TD*%
D15*
%TO.P,J15,1,Pin_1*%
%TO.N,/TB6612\u57FA\u76E41/BO_2*%
X96750000Y-43750000D03*
D16*
%TO.P,J15,2,Pin_2*%
%TO.N,/TB6612\u57FA\u76E41/BO_1*%
X99250000Y-43750000D03*
%TD*%
D20*
%TO.P,J5,1,Pin_1*%
%TO.N,GND*%
X65000000Y-116500000D03*
D21*
%TO.P,J5,2,Pin_2*%
%TO.N,+3.3V*%
X65000000Y-114000000D03*
%TO.P,J5,3,Pin_3*%
%TO.N,SDA*%
X65000000Y-111500000D03*
%TO.P,J5,4,Pin_4*%
%TO.N,SCL*%
X65000000Y-109000000D03*
%TD*%
D11*
%TO.P,J7,1,Pin_1*%
%TO.N,unconnected-(J7-Pin_1-Pad1)*%
X49347200Y-108165400D03*
D12*
%TO.P,J7,2,Pin_2*%
%TO.N,unconnected-(J7-Pin_2-Pad2)*%
X51887200Y-108165400D03*
%TO.P,J7,3,Pin_3*%
%TO.N,unconnected-(J7-Pin_3-Pad3)*%
X54427200Y-108165400D03*
%TO.P,J7,4,Pin_4*%
%TO.N,unconnected-(J7-Pin_4-Pad4)*%
X56967200Y-108165400D03*
%TD*%
D30*
%TO.P,Q1,1,C*%
%TO.N,Net-(D1-A)*%
X118540000Y-54000000D03*
D31*
%TO.P,Q1,2,B*%
%TO.N,SD_Swich*%
X116000000Y-54000000D03*
D30*
%TO.P,Q1,3,E*%
%TO.N,Net-(J16-Pin_1)*%
X117270000Y-52730000D03*
%TD*%
D10*
%TO.P,R5,1*%
%TO.N,SD_Swich*%
X106000000Y-55540000D03*
%TO.P,R5,2*%
%TO.N,Net-(D2-A)*%
X106000000Y-50460000D03*
%TD*%
D27*
%TO.P,J12,1,Pin_1*%
%TO.N,/TB6612\u57FA\u76E4/AO_2*%
X90250000Y-117000000D03*
D16*
%TO.P,J12,2,Pin_2*%
%TO.N,/TB6612\u57FA\u76E4/AO_1*%
X87750000Y-117000000D03*
%TD*%
D26*
%TO.P,C3,1*%
%TO.N,/TB6612\u57FA\u76E4/VM*%
X113050000Y-96500000D03*
%TO.P,C3,2*%
%TO.N,GNDPWR*%
X113050000Y-91500000D03*
%TD*%
D11*
%TO.P,J8,1,Pin_1*%
%TO.N,/TB6612\u57FA\u76E4/VM*%
X101000000Y-107320000D03*
D12*
%TO.P,J8,2,Pin_2*%
X101000000Y-104780000D03*
%TO.P,J8,3,Pin_3*%
%TO.N,GNDPWR*%
X101000000Y-102240000D03*
%TO.P,J8,4,Pin_4*%
X101000000Y-99700000D03*
%TO.P,J8,5,Pin_5*%
X101000000Y-97160000D03*
%TO.P,J8,6,Pin_6*%
%TO.N,/TB6612\u57FA\u76E4/AO_1*%
X101000000Y-94620000D03*
%TO.P,J8,7,Pin_7*%
%TO.N,/TB6612\u57FA\u76E4/AO_2*%
X101000000Y-92080000D03*
%TO.P,J8,8,Pin_8*%
%TO.N,/TB6612\u57FA\u76E4/BO_1*%
X101000000Y-89540000D03*
%TO.P,J8,9,Pin_9*%
%TO.N,/TB6612\u57FA\u76E4/BO_2*%
X101000000Y-87000000D03*
%TD*%
D11*
%TO.P,J10,1,Pin_1*%
%TO.N,/TB6612\u57FA\u76E4/VM*%
X101000000Y-73000000D03*
D12*
%TO.P,J10,2,Pin_2*%
X101000000Y-70460000D03*
%TO.P,J10,3,Pin_3*%
%TO.N,GNDPWR*%
X101000000Y-67920000D03*
%TO.P,J10,4,Pin_4*%
X101000000Y-65380000D03*
%TO.P,J10,5,Pin_5*%
X101000000Y-62840000D03*
%TO.P,J10,6,Pin_6*%
%TO.N,/TB6612\u57FA\u76E41/AO_1*%
X101000000Y-60300000D03*
%TO.P,J10,7,Pin_7*%
%TO.N,/TB6612\u57FA\u76E41/AO_2*%
X101000000Y-57760000D03*
%TO.P,J10,8,Pin_8*%
%TO.N,/TB6612\u57FA\u76E41/BO_1*%
X101000000Y-55220000D03*
%TO.P,J10,9,Pin_9*%
%TO.N,/TB6612\u57FA\u76E41/BO_2*%
X101000000Y-52680000D03*
%TD*%
D20*
%TO.P,J4,1,Pin_1*%
%TO.N,GND*%
X65000000Y-51500000D03*
D21*
%TO.P,J4,2,Pin_2*%
%TO.N,+3.3V*%
X65000000Y-49000000D03*
%TO.P,J4,3,Pin_3*%
%TO.N,SDA*%
X65000000Y-46500000D03*
%TO.P,J4,4,Pin_4*%
%TO.N,SCL*%
X65000000Y-44000000D03*
%TD*%
D11*
%TO.P,J9,1,Pin_1*%
%TO.N,+5V*%
X85760000Y-107320000D03*
D12*
%TO.P,J9,2,Pin_2*%
%TO.N,GND*%
X85760000Y-104780000D03*
%TO.P,J9,3,Pin_3*%
%TO.N,RL_PWM*%
X85760000Y-102240000D03*
%TO.P,J9,4,Pin_4*%
%TO.N,RL_2*%
X85760000Y-99700000D03*
%TO.P,J9,5,Pin_5*%
%TO.N,RL_1*%
X85760000Y-97160000D03*
%TO.P,J9,6,Pin_6*%
%TO.N,FL_1*%
X85760000Y-94620000D03*
%TO.P,J9,7,Pin_7*%
%TO.N,FL_2*%
X85760000Y-92080000D03*
%TO.P,J9,8,Pin_8*%
%TO.N,FL_PWM*%
X85760000Y-89540000D03*
%TO.P,J9,9,Pin_9*%
%TO.N,/TB6612\u57FA\u76E4/STBY*%
X85760000Y-87000000D03*
%TD*%
D11*
%TO.P,J20,1,Pin_1*%
%TO.N,/TB6612\u57FA\u76E41/STBY*%
X92540000Y-77250000D03*
D12*
%TO.P,J20,2,Pin_2*%
%TO.N,+5V*%
X90000000Y-77250000D03*
%TD*%
D10*
%TO.P,R4,1*%
%TO.N,GND*%
X112000000Y-55540000D03*
%TO.P,R4,2*%
%TO.N,SD_Swich*%
X112000000Y-50460000D03*
%TD*%
D32*
%TO.N,GND*%
X81915000Y-48260000D03*
X126365000Y-107315000D03*
X77470000Y-66040000D03*
X78740000Y-53975000D03*
X81915000Y-43180000D03*
X118110000Y-107315000D03*
X43815000Y-52705000D03*
X77470000Y-83820000D03*
X77470000Y-77470000D03*
X121285000Y-87630000D03*
X108585000Y-100965000D03*
X116840000Y-43180000D03*
X80645000Y-104775000D03*
X60325000Y-52705000D03*
X91440000Y-53975000D03*
X69215000Y-114300000D03*
X110490000Y-107315000D03*
X53975000Y-111760000D03*
X128905000Y-48895000D03*
X129540000Y-80010000D03*
X77470000Y-63500000D03*
X69215000Y-106045000D03*
X67945000Y-102870000D03*
X92710000Y-80010000D03*
X80645000Y-111125000D03*
X43815000Y-47625000D03*
X104140000Y-48260000D03*
X37465000Y-114300000D03*
X96520000Y-60960000D03*
X120650000Y-76835000D03*
X37465000Y-108585000D03*
D33*
%TO.N,RL_1*%
X87337800Y-73727800D03*
%TO.N,+5V*%
X88048100Y-56226000D03*
X108091500Y-62318000D03*
%TO.N,RL_PWM*%
X88265900Y-74197700D03*
%TO.N,SD_Swich*%
X90822700Y-99096400D03*
%TO.N,FR_1*%
X70744500Y-60944200D03*
%TO.N,FR_2*%
X72652400Y-60995600D03*
%TO.N,FL_PWM*%
X85566700Y-75623000D03*
%TO.N,/TB6612\u57FA\u76E4/BO_1*%
X92075000Y-98425000D03*
X92730000Y-97810000D03*
%TO.N,/TB6612\u57FA\u76E4/AO_2*%
X90507500Y-102572500D03*
X90000000Y-103000000D03*
%TO.N,/TB6612\u57FA\u76E4/BO_2*%
X97000000Y-91440000D03*
X97000000Y-91000000D03*
D32*
%TO.N,/TB6612\u57FA\u76E41/AO_1*%
X90200000Y-49500000D03*
X90170000Y-48895000D03*
D33*
%TO.N,Net-(D2-A)*%
X104994800Y-92561700D03*
X109951200Y-93301300D03*
%TO.N,Ext_Sw*%
X75634300Y-102506000D03*
X78421300Y-73487200D03*
%TD*%
D34*
%TO.N,Net-(D1-A)*%
X120510700Y-71639300D02*
X120510700Y-57649300D01*
X118100000Y-74050000D02*
X120510700Y-71639300D01*
X120510700Y-57649300D02*
X123000000Y-55160000D01*
%TO.N,RL_1*%
X87337800Y-73727800D02*
X87337800Y-74120400D01*
X87845900Y-74628500D02*
X87845900Y-95074100D01*
X87845900Y-95074100D02*
X85760000Y-97160000D01*
X87337800Y-74120400D02*
X87845900Y-74628500D01*
%TO.N,+5V*%
X88048100Y-69848100D02*
X86407700Y-71488500D01*
X85760000Y-73000000D02*
X85760000Y-71848300D01*
X86047900Y-71848300D02*
X85760000Y-71848300D01*
X88867600Y-73948500D02*
X86407700Y-71488500D01*
X85760000Y-106168300D02*
X86048000Y-106168300D01*
X72000000Y-109210000D02*
X72000000Y-111750000D01*
X86911700Y-102456700D02*
X90000000Y-99368400D01*
X88867600Y-74408300D02*
X88867600Y-73948500D01*
X86911700Y-105304600D02*
X86911700Y-102456700D01*
X108091500Y-62318000D02*
X108091500Y-72058500D01*
X108091500Y-72058500D02*
X106100000Y-74050000D01*
X88048100Y-56226000D02*
X88048100Y-69848100D01*
X86048000Y-106168300D02*
X86911700Y-105304600D01*
X90000000Y-75540700D02*
X88867600Y-74408300D01*
X90000000Y-77250000D02*
X90000000Y-75540700D01*
X90000000Y-77250000D02*
X90000000Y-83250000D01*
X85760000Y-107320000D02*
X85760000Y-106168300D01*
X90000000Y-99368400D02*
X90000000Y-83250000D01*
X86407700Y-71488500D02*
X86047900Y-71848300D01*
%TO.N,FR_PWM*%
X83481800Y-57498200D02*
X83481800Y-62168200D01*
X85760000Y-55220000D02*
X83481800Y-57498200D01*
X83481800Y-62168200D02*
X74540000Y-71110000D01*
%TO.N,RR_2*%
X85350000Y-65380000D02*
X74540000Y-76190000D01*
X85760000Y-65380000D02*
X85350000Y-65380000D01*
%TO.N,RL_PWM*%
X88265900Y-99734100D02*
X85760000Y-102240000D01*
X88265900Y-74197700D02*
X88265900Y-99734100D01*
%TO.N,UART1_TX*%
X66533900Y-66336100D02*
X67750000Y-65120000D01*
X72000000Y-104130000D02*
X66533900Y-98663900D01*
X66533900Y-98663900D02*
X66533900Y-66336100D01*
%TO.N,SD_Swich*%
X98538000Y-79378700D02*
X98538000Y-63442600D01*
X90822700Y-99096400D02*
X90822700Y-87094000D01*
X101509600Y-61464000D02*
X106000000Y-56973600D01*
X90822700Y-87094000D02*
X98538000Y-79378700D01*
X100516600Y-61464000D02*
X101509600Y-61464000D01*
X98538000Y-63442600D02*
X100516600Y-61464000D01*
X106000000Y-56973600D02*
X106000000Y-55540000D01*
%TO.N,FR_1*%
X70368200Y-89798200D02*
X72000000Y-91430000D01*
X70368200Y-61320500D02*
X70368200Y-89798200D01*
X70744500Y-60944200D02*
X70368200Y-61320500D01*
%TO.N,FR_2*%
X72000000Y-86350000D02*
X70806700Y-85156700D01*
X70806700Y-62841300D02*
X72652400Y-60995600D01*
X70806700Y-85156700D02*
X70806700Y-62841300D01*
%TO.N,+3.3V*%
X75500000Y-50000000D02*
X73388300Y-52111700D01*
X73388300Y-109734600D02*
X74252000Y-110598300D01*
X66151700Y-112848300D02*
X65000000Y-112848300D01*
X73388300Y-108052200D02*
X70947800Y-108052200D01*
X74252000Y-110598300D02*
X74540000Y-110598300D01*
X74540000Y-111750000D02*
X74540000Y-110598300D01*
X70947800Y-108052200D02*
X66151700Y-112848300D01*
X75500000Y-47000000D02*
X75500000Y-50000000D01*
X73388300Y-52111700D02*
X73388300Y-91430000D01*
X73388300Y-108052200D02*
X73388300Y-109734600D01*
X74540000Y-91430000D02*
X73388300Y-91430000D01*
X73388300Y-91430000D02*
X73388300Y-108052200D01*
X65000000Y-114000000D02*
X65000000Y-112848300D01*
%TO.N,FL_PWM*%
X86972500Y-88327500D02*
X85760000Y-89540000D01*
X86972500Y-77028800D02*
X86972500Y-88327500D01*
X85566700Y-75623000D02*
X86972500Y-77028800D01*
%TO.N,UART1_RX*%
X69139800Y-63969800D02*
X67750000Y-62580000D01*
X72000000Y-101590000D02*
X69139800Y-98729800D01*
X69139800Y-98729800D02*
X69139800Y-63969800D01*
%TO.N,SDA*%
X65000000Y-111500000D02*
X65000000Y-110348300D01*
X66276700Y-103949100D02*
X66083700Y-103756100D01*
X66083700Y-103756100D02*
X66083700Y-62569800D01*
X65431900Y-110348300D02*
X66276700Y-109503500D01*
X66276700Y-109503500D02*
X66276700Y-103949100D01*
X66083700Y-62569800D02*
X67343500Y-61310000D01*
X65000000Y-110348300D02*
X65431900Y-110348300D01*
X67343500Y-61310000D02*
X68213900Y-61310000D01*
X70420000Y-59103900D02*
X70420000Y-50000000D01*
X68213900Y-61310000D02*
X70420000Y-59103900D01*
%TO.N,SCL*%
X65330500Y-53675100D02*
X68684100Y-50321500D01*
X63723300Y-109080100D02*
X63723300Y-109000000D01*
X68684100Y-50321500D02*
X68684100Y-48735900D01*
X64805000Y-109000000D02*
X65330500Y-108474500D01*
X65330500Y-108474500D02*
X65330500Y-53675100D01*
X68684100Y-48735900D02*
X70420000Y-47000000D01*
X64805000Y-109000000D02*
X63723300Y-109000000D01*
X65000000Y-109000000D02*
X64805000Y-109000000D01*
X57018000Y-115785400D02*
X63723300Y-109080100D01*
%TO.N,RR_1*%
X87403000Y-76557000D02*
X85290900Y-74444900D01*
X76236000Y-102755200D02*
X76236000Y-102514300D01*
X76236000Y-102514300D02*
X85400300Y-93350000D01*
X85290900Y-74444900D02*
X85042000Y-74444900D01*
X84601800Y-74004700D02*
X84601800Y-67391900D01*
X86023800Y-66768300D02*
X86938800Y-65853300D01*
X84601800Y-67391900D02*
X85225400Y-66768300D01*
X74861200Y-104130000D02*
X76236000Y-102755200D01*
X85225400Y-66768300D02*
X86023800Y-66768300D01*
X86938800Y-65853300D02*
X86938800Y-64018800D01*
X86938800Y-64018800D02*
X85760000Y-62840000D01*
X86184900Y-93350000D02*
X87403000Y-92131900D01*
X85400300Y-93350000D02*
X86184900Y-93350000D01*
X87403000Y-92131900D02*
X87403000Y-76557000D01*
X74540000Y-104130000D02*
X74861200Y-104130000D01*
X85042000Y-74444900D02*
X84601800Y-74004700D01*
D35*
%TO.N,GNDPWR*%
X109000000Y-91500000D02*
X113050000Y-91500000D01*
X101000000Y-67920000D02*
X101000000Y-62840000D01*
X123000000Y-92000000D02*
X113550000Y-92000000D01*
X102562000Y-67920000D02*
X103051000Y-67431000D01*
X102202000Y-97160000D02*
X101000000Y-97160000D01*
X103340000Y-97160000D02*
X102202000Y-97160000D01*
X101000000Y-102240000D02*
X101000000Y-99000000D01*
X101000000Y-99000000D02*
X101000000Y-97160000D01*
X103051000Y-67431000D02*
X103051000Y-96311100D01*
X102202000Y-97160000D02*
X101000000Y-97160000D01*
X103051000Y-96311100D02*
X102202000Y-97160000D01*
X113550000Y-92000000D02*
X113050000Y-91500000D01*
X101000000Y-67920000D02*
X102562000Y-67920000D01*
X101000000Y-65380000D02*
X103051000Y-67431000D01*
X109000000Y-91500000D02*
X103340000Y-97160000D01*
X101000000Y-99000000D02*
X101500000Y-99000000D01*
X101500000Y-99000000D02*
X103340000Y-97160000D01*
D36*
%TO.N,/TB6612\u57FA\u76E4/BO_1*%
X101000000Y-89540000D02*
X96540000Y-94000000D01*
X101000000Y-89540000D02*
X92730000Y-97810000D01*
%TO.N,/TB6612\u57FA\u76E4/AO_2*%
X101000000Y-92080000D02*
X90507500Y-102572500D01*
%TO.N,/TB6612\u57FA\u76E4/AO_1*%
X87750000Y-117000000D02*
X87750000Y-107870000D01*
X87750000Y-107870000D02*
X101000000Y-94620000D01*
%TO.N,/TB6612\u57FA\u76E4/BO_2*%
X101000000Y-87000000D02*
X97000000Y-91000000D01*
%TO.N,/TB6612\u57FA\u76E41/BO_1*%
X99250000Y-53470000D02*
X99250000Y-43750000D01*
X101000000Y-55220000D02*
X99250000Y-53470000D01*
%TO.N,/TB6612\u57FA\u76E41/AO_1*%
X90200000Y-49500000D02*
X90170000Y-49470000D01*
X101000000Y-60300000D02*
X90200000Y-49500000D01*
X90170000Y-49470000D02*
X90170000Y-48895000D01*
%TO.N,/TB6612\u57FA\u76E41/AO_2*%
X101000000Y-57760000D02*
X87750000Y-44510000D01*
X87750000Y-44510000D02*
X87750000Y-43750000D01*
D34*
%TO.N,/TB6612\u57FA\u76E41/STBY*%
X92540000Y-77250000D02*
X92540000Y-59460000D01*
X92540000Y-59460000D02*
X85760000Y-52680000D01*
%TO.N,Net-(D2-A)*%
X108723500Y-56849000D02*
X107425100Y-55550600D01*
X107425100Y-55550600D02*
X107425100Y-51885100D01*
X108723500Y-88833000D02*
X108723500Y-56849000D01*
X105500000Y-116500000D02*
X105500000Y-97752500D01*
X105500000Y-97752500D02*
X109951200Y-93301300D01*
X107425100Y-51885100D02*
X106000000Y-50460000D01*
X104994800Y-92561700D02*
X108723500Y-88833000D01*
%TO.N,Ext_Sw*%
X78421300Y-99719000D02*
X75634300Y-102506000D01*
X78421300Y-73487200D02*
X78421300Y-99719000D01*
%TD*%
%TA.AperFunction,Conductor*%
%TO.N,GND*%
G36*
X70443039Y-41020184D02*
G01*
X70488794Y-41072988D01*
X70500000Y-41124499D01*
X70500000Y-45500000D01*
X80500000Y-45500000D01*
X80500000Y-41124499D01*
X80519685Y-41057460D01*
X80572489Y-41011705D01*
X80624000Y-41000499D01*
X120376000Y-41000499D01*
X120443039Y-41020184D01*
X120488794Y-41072988D01*
X120500000Y-41124499D01*
X120500000Y-45500000D01*
X129875500Y-45500000D01*
X129942539Y-45519685D01*
X129988294Y-45572489D01*
X129999500Y-45624000D01*
X129999500Y-55876000D01*
X129979815Y-55943039D01*
X129927011Y-55988794D01*
X129875500Y-56000000D01*
X125500000Y-56000000D01*
X125500000Y-61000000D01*
X129875500Y-61000000D01*
X129942539Y-61019685D01*
X129988294Y-61072489D01*
X129999500Y-61124000D01*
X129999500Y-113876000D01*
X129979815Y-113943039D01*
X129927011Y-113988794D01*
X129875500Y-114000000D01*
X125500000Y-114000000D01*
X125500000Y-115376000D01*
X125480315Y-115443039D01*
X125427511Y-115488794D01*
X125376000Y-115500000D01*
X120500000Y-115500000D01*
X120500000Y-119875499D01*
X120480315Y-119942538D01*
X120427511Y-119988293D01*
X120376000Y-119999499D01*
X80624000Y-119999499D01*
X80556961Y-119979814D01*
X80511206Y-119927010D01*
X80500000Y-119875499D01*
X80500000Y-119124000D01*
X80519685Y-119056961D01*
X80572489Y-119011206D01*
X80624000Y-119000000D01*
X81500000Y-119000000D01*
X81500000Y-114000000D01*
X76500000Y-114000000D01*
X76500000Y-115376000D01*
X76480315Y-115443039D01*
X76427511Y-115488794D01*
X76376000Y-115500000D01*
X70500000Y-115500000D01*
X70500000Y-119875499D01*
X70480315Y-119942538D01*
X70427511Y-119988293D01*
X70376000Y-119999499D01*
X45624000Y-119999499D01*
X45556961Y-119979814D01*
X45511206Y-119927010D01*
X45500000Y-119875499D01*
X45500000Y-115500000D01*
X36124500Y-115500000D01*
X36057461Y-115480315D01*
X36011706Y-115427511D01*
X36000500Y-115376000D01*
X36000500Y-109407713D01*
X38174300Y-109407713D01*
X38174300Y-109620287D01*
X38207554Y-109830243D01*
X38272493Y-110030105D01*
X38273244Y-110032414D01*
X38369751Y-110221820D01*
X38494690Y-110393786D01*
X38633505Y-110532601D01*
X38666990Y-110593924D01*
X38662006Y-110663616D01*
X38620134Y-110719549D01*
X38610921Y-110725821D01*
X38456142Y-110821289D01*
X38332089Y-110945342D01*
X38239987Y-111094663D01*
X38239986Y-111094666D01*
X38184801Y-111261203D01*
X38184801Y-111261204D01*
X38184800Y-111261204D01*
X38174300Y-111363983D01*
X38174300Y-112664001D01*
X38174301Y-112664018D01*
X38184800Y-112766796D01*
X38184801Y-112766799D01*
X38239985Y-112933331D01*
X38239987Y-112933336D01*
X38262534Y-112969890D01*
X38332088Y-113082656D01*
X38456144Y-113206712D01*
X38605466Y-113298814D01*
X38772003Y-113353999D01*
X38874791Y-113364500D01*
X40474808Y-113364499D01*
X40577597Y-113353999D01*
X40744134Y-113298814D01*
X40893456Y-113206712D01*
X41017512Y-113082656D01*
X41109614Y-112933334D01*
X41164799Y-112766797D01*
X41175300Y-112664009D01*
X41175299Y-111363992D01*
X41164799Y-111261203D01*
X41109614Y-111094666D01*
X41017512Y-110945344D01*
X40893456Y-110821288D01*
X40744134Y-110729186D01*
X40744133Y-110729185D01*
X40738678Y-110725821D01*
X40691954Y-110673873D01*
X40680731Y-110604910D01*
X40708575Y-110540828D01*
X40716072Y-110532623D01*
X40854904Y-110393792D01*
X40872542Y-110369516D01*
X40979848Y-110221820D01*
X40979847Y-110221820D01*
X40979851Y-110221816D01*
X41076357Y-110032412D01*
X41142046Y-109830243D01*
X41175300Y-109620287D01*
X41175300Y-109407713D01*
X41142046Y-109197757D01*
X41076357Y-108995588D01*
X40979851Y-108806184D01*
X40979849Y-108806181D01*
X40979848Y-108806179D01*
X40854909Y-108634213D01*
X40704586Y-108483890D01*
X40532620Y-108358951D01*
X40343214Y-108262444D01*
X40343213Y-108262443D01*
X40343212Y-108262443D01*
X40141043Y-108196754D01*
X40141041Y-108196753D01*
X40141040Y-108196753D01*
X39979757Y-108171208D01*
X39931087Y-108163500D01*
X39418513Y-108163500D01*
X39369842Y-108171208D01*
X39208560Y-108196753D01*
X39006385Y-108262444D01*
X38816979Y-108358951D01*
X38645013Y-108483890D01*
X38494690Y-108634213D01*
X38369751Y-108806179D01*
X38273244Y-108995585D01*
X38207553Y-109197760D01*
X38188121Y-109320451D01*
X38174300Y-109407713D01*
X36000500Y-109407713D01*
X36000500Y-108503750D01*
X36000726Y-108496263D01*
X36001611Y-108481639D01*
X36018271Y-108206201D01*
X36020076Y-108191340D01*
X36022175Y-108179890D01*
X36071780Y-107909197D01*
X36075364Y-107894663D01*
X36160696Y-107620822D01*
X36165998Y-107606841D01*
X36283731Y-107345249D01*
X36290676Y-107332016D01*
X36329656Y-107267535D01*
X47996700Y-107267535D01*
X47996700Y-109063270D01*
X47996701Y-109063276D01*
X48003108Y-109122883D01*
X48053402Y-109257728D01*
X48053406Y-109257735D01*
X48139652Y-109372944D01*
X48139655Y-109372947D01*
X48254864Y-109459193D01*
X48254871Y-109459197D01*
X48389717Y-109509491D01*
X48389716Y-109509491D01*
X48396644Y-109510235D01*
X48449327Y-109515900D01*
X50245072Y-109515899D01*
X50304683Y-109509491D01*
X50439531Y-109459196D01*
X50554746Y-109372946D01*
X50640996Y-109257731D01*
X50690010Y-109126316D01*
X50731881Y-109070384D01*
X50797345Y-109045966D01*
X50865618Y-109060817D01*
X50893873Y-109081969D01*
X51007413Y-109195509D01*
X51179379Y-109320448D01*
X51179381Y-109320449D01*
X51179384Y-109320451D01*
X51368788Y-109416957D01*
X51570957Y-109482646D01*
X51780913Y-109515900D01*
X51780914Y-109515900D01*
X51993486Y-109515900D01*
X51993487Y-109515900D01*
X52203443Y-109482646D01*
X52405612Y-109416957D01*
X52595016Y-109320451D01*
X52681338Y-109257735D01*
X52766986Y-109195509D01*
X52766988Y-109195506D01*
X52766992Y-109195504D01*
X52917304Y-109045192D01*
X52917306Y-109045188D01*
X52917309Y-109045186D01*
X53042248Y-108873220D01*
X53042247Y-108873220D01*
X53042251Y-108873216D01*
X53046714Y-108864454D01*
X53094688Y-108813659D01*
X53162508Y-108796863D01*
X53228644Y-108819399D01*
X53267686Y-108864456D01*
X53272151Y-108873220D01*
X53397090Y-109045186D01*
X53547413Y-109195509D01*
X53719379Y-109320448D01*
X53719381Y-109320449D01*
X53719384Y-109320451D01*
X53908788Y-109416957D01*
X54110957Y-109482646D01*
X54320913Y-109515900D01*
X54320914Y-109515900D01*
X54533486Y-109515900D01*
X54533487Y-109515900D01*
X54743443Y-109482646D01*
X54945612Y-109416957D01*
X55135016Y-109320451D01*
X55221338Y-109257735D01*
X55306986Y-109195509D01*
X55306988Y-109195506D01*
X55306992Y-109195504D01*
X55457304Y-109045192D01*
X55457306Y-109045188D01*
X55457309Y-109045186D01*
X55582248Y-108873220D01*
X55582247Y-108873220D01*
X55582251Y-108873216D01*
X55586714Y-108864454D01*
X55634688Y-108813659D01*
X55702508Y-108796863D01*
X55768644Y-108819399D01*
X55807686Y-108864456D01*
X55812151Y-108873220D01*
X55937090Y-109045186D01*
X56087413Y-109195509D01*
X56259379Y-109320448D01*
X56259381Y-109320449D01*
X56259384Y-109320451D01*
X56448788Y-109416957D01*
X56650957Y-109482646D01*
X56860913Y-109515900D01*
X56860914Y-109515900D01*
X57073486Y-109515900D01*
X57073487Y-109515900D01*
X57283443Y-109482646D01*
X57485612Y-109416957D01*
X57675016Y-109320451D01*
X57761338Y-109257735D01*
X57846986Y-109195509D01*
X57846988Y-109195506D01*
X57846992Y-109195504D01*
X57997304Y-109045192D01*
X57997306Y-109045188D01*
X57997309Y-109045186D01*
X58122248Y-108873220D01*
X58122247Y-108873220D01*
X58122251Y-108873216D01*
X58218757Y-108683812D01*
X58284446Y-108481643D01*
X58317700Y-108271687D01*
X58317700Y-108059113D01*
X58284446Y-107849157D01*
X58218757Y-107646988D01*
X58122251Y-107457584D01*
X58122249Y-107457581D01*
X58122248Y-107457579D01*
X57997309Y-107285613D01*
X57846986Y-107135290D01*
X57675020Y-107010351D01*
X57485614Y-106913844D01*
X57485613Y-106913843D01*
X57485612Y-106913843D01*
X57283443Y-106848154D01*
X57283441Y-106848153D01*
X57283440Y-106848153D01*
X57122157Y-106822608D01*
X57073487Y-106814900D01*
X56860913Y-106814900D01*
X56812242Y-106822608D01*
X56650960Y-106848153D01*
X56448785Y-106913844D01*
X56259379Y-107010351D01*
X56087413Y-107135290D01*
X55937090Y-107285613D01*
X55812149Y-107457582D01*
X55807684Y-107466346D01*
X55759709Y-107517142D01*
X55691888Y-107533936D01*
X55625753Y-107511398D01*
X55586716Y-107466346D01*
X55582250Y-107457582D01*
X55457309Y-107285613D01*
X55306986Y-107135290D01*
X55135020Y-107010351D01*
X54945614Y-106913844D01*
X54945613Y-106913843D01*
X54945612Y-106913843D01*
X54743443Y-106848154D01*
X54743441Y-106848153D01*
X54743440Y-106848153D01*
X54582157Y-106822608D01*
X54533487Y-106814900D01*
X54320913Y-106814900D01*
X54272242Y-106822608D01*
X54110960Y-106848153D01*
X53908785Y-106913844D01*
X53719379Y-107010351D01*
X53547413Y-107135290D01*
X53397090Y-107285613D01*
X53272149Y-107457582D01*
X53267684Y-107466346D01*
X53219709Y-107517142D01*
X53151888Y-107533936D01*
X53085753Y-107511398D01*
X53046716Y-107466346D01*
X53042250Y-107457582D01*
X52917309Y-107285613D01*
X52766986Y-107135290D01*
X52595020Y-107010351D01*
X52405614Y-106913844D01*
X52405613Y-106913843D01*
X52405612Y-106913843D01*
X52203443Y-106848154D01*
X52203441Y-106848153D01*
X52203440Y-106848153D01*
X52042157Y-106822608D01*
X51993487Y-106814900D01*
X51780913Y-106814900D01*
X51732242Y-106822608D01*
X51570960Y-106848153D01*
X51368785Y-106913844D01*
X51179379Y-107010351D01*
X51007415Y-107135289D01*
X50893873Y-107248831D01*
X50832550Y-107282315D01*
X50762858Y-107277331D01*
X50706925Y-107235459D01*
X50690010Y-107204482D01*
X50640997Y-107073071D01*
X50640993Y-107073064D01*
X50554747Y-106957855D01*
X50554744Y-106957852D01*
X50439535Y-106871606D01*
X50439528Y-106871602D01*
X50304682Y-106821308D01*
X50304683Y-106821308D01*
X50245083Y-106814901D01*
X50245081Y-106814900D01*
X50245073Y-106814900D01*
X50245064Y-106814900D01*
X48449329Y-106814900D01*
X48449323Y-106814901D01*
X48389716Y-106821308D01*
X48254871Y-106871602D01*
X48254864Y-106871606D01*
X48139655Y-106957852D01*
X48139652Y-106957855D01*
X48053406Y-107073064D01*
X48053402Y-107073071D01*
X48003108Y-107207917D01*
X47996701Y-107267516D01*
X47996700Y-107267535D01*
X36329656Y-107267535D01*
X36439080Y-107086526D01*
X36447567Y-107074230D01*
X36624481Y-106848417D01*
X36634396Y-106837226D01*
X36837226Y-106634395D01*
X36848417Y-106624480D01*
X37074231Y-106447567D01*
X37086527Y-106439080D01*
X37332005Y-106290682D01*
X37345264Y-106283724D01*
X37606842Y-106165998D01*
X37620823Y-106160696D01*
X37894669Y-106075362D01*
X37909198Y-106071780D01*
X38191344Y-106020075D01*
X38206201Y-106018271D01*
X38496288Y-106000724D01*
X38503761Y-106000499D01*
X64565890Y-106000499D01*
X64565892Y-106000499D01*
X64573908Y-105998351D01*
X64643756Y-106000014D01*
X64701619Y-106039176D01*
X64729123Y-106103405D01*
X64730000Y-106118126D01*
X64730000Y-107549725D01*
X64710315Y-107616764D01*
X64657511Y-107662519D01*
X64625399Y-107672198D01*
X64558759Y-107682753D01*
X64356585Y-107748444D01*
X64167179Y-107844951D01*
X63995213Y-107969890D01*
X63844890Y-108120213D01*
X63719949Y-108292182D01*
X63693656Y-108343785D01*
X63645681Y-108394580D01*
X63615266Y-108407264D01*
X63491514Y-108440423D01*
X63491509Y-108440426D01*
X63354590Y-108519475D01*
X63354582Y-108519481D01*
X63242781Y-108631282D01*
X63242777Y-108631287D01*
X63163724Y-108768212D01*
X63160613Y-108775724D01*
X63159192Y-108775135D01*
X63132093Y-108822070D01*
X57502522Y-114451641D01*
X57441199Y-114485126D01*
X57376523Y-114481891D01*
X57334245Y-114468154D01*
X57194272Y-114445984D01*
X57124287Y-114434900D01*
X56911713Y-114434900D01*
X56863042Y-114442608D01*
X56701760Y-114468153D01*
X56499585Y-114533844D01*
X56310179Y-114630351D01*
X56138213Y-114755290D01*
X55987890Y-114905613D01*
X55862949Y-115077582D01*
X55858484Y-115086346D01*
X55810509Y-115137142D01*
X55742688Y-115153936D01*
X55676553Y-115131398D01*
X55637516Y-115086346D01*
X55633050Y-115077582D01*
X55508109Y-114905613D01*
X55357786Y-114755290D01*
X55185820Y-114630351D01*
X54996414Y-114533844D01*
X54996413Y-114533843D01*
X54996412Y-114533843D01*
X54794243Y-114468154D01*
X54794241Y-114468153D01*
X54794240Y-114468153D01*
X54632957Y-114442608D01*
X54584287Y-114434900D01*
X54371713Y-114434900D01*
X54323042Y-114442608D01*
X54161760Y-114468153D01*
X53959585Y-114533844D01*
X53770179Y-114630351D01*
X53598213Y-114755290D01*
X53447890Y-114905613D01*
X53322949Y-115077582D01*
X53318202Y-115086899D01*
X53270227Y-115137693D01*
X53202405Y-115154487D01*
X53136271Y-115131948D01*
X53097234Y-115086895D01*
X53092626Y-115077852D01*
X53053270Y-115023682D01*
X53053269Y-115023682D01*
X52420962Y-115655990D01*
X52403925Y-115592407D01*
X52338099Y-115478393D01*
X52245007Y-115385301D01*
X52130993Y-115319475D01*
X52067409Y-115302437D01*
X52699716Y-114670128D01*
X52645550Y-114630775D01*
X52456217Y-114534304D01*
X52254129Y-114468642D01*
X52044246Y-114435400D01*
X51831754Y-114435400D01*
X51621872Y-114468642D01*
X51621869Y-114468642D01*
X51419782Y-114534304D01*
X51230439Y-114630780D01*
X51176282Y-114670127D01*
X51176282Y-114670128D01*
X51808591Y-115302437D01*
X51745007Y-115319475D01*
X51630993Y-115385301D01*
X51537901Y-115478393D01*
X51472075Y-115592407D01*
X51455037Y-115655991D01*
X50784818Y-114985772D01*
X50751333Y-114924449D01*
X50751330Y-114924436D01*
X50748499Y-114911415D01*
X50748499Y-114887528D01*
X50742091Y-114827917D01*
X50697298Y-114707820D01*
X50691798Y-114693073D01*
X50691793Y-114693064D01*
X50605547Y-114577855D01*
X50605544Y-114577852D01*
X50490335Y-114491606D01*
X50490328Y-114491602D01*
X50355482Y-114441308D01*
X50355483Y-114441308D01*
X50295883Y-114434901D01*
X50295881Y-114434900D01*
X50295873Y-114434900D01*
X50295864Y-114434900D01*
X48500129Y-114434900D01*
X48500123Y-114434901D01*
X48440516Y-114441308D01*
X48305671Y-114491602D01*
X48305664Y-114491606D01*
X48190455Y-114577852D01*
X48190452Y-114577855D01*
X48104206Y-114693064D01*
X48104202Y-114693071D01*
X48053908Y-114827917D01*
X48047501Y-114887516D01*
X48047500Y-114887535D01*
X48047500Y-116683270D01*
X48047501Y-116683276D01*
X48053908Y-116742883D01*
X48104202Y-116877728D01*
X48104206Y-116877735D01*
X48190452Y-116992944D01*
X48190455Y-116992947D01*
X48305664Y-117079193D01*
X48305671Y-117079197D01*
X48440517Y-117129491D01*
X48440516Y-117129491D01*
X48447444Y-117130235D01*
X48500127Y-117135900D01*
X50295872Y-117135899D01*
X50355483Y-117129491D01*
X50490331Y-117079196D01*
X50605546Y-116992946D01*
X50691796Y-116877731D01*
X50742091Y-116742883D01*
X50748500Y-116683273D01*
X50748499Y-116659379D01*
X50751330Y-116646363D01*
X50761940Y-116626925D01*
X50768179Y-116605675D01*
X50784803Y-116585043D01*
X50784808Y-116585036D01*
X50784811Y-116585034D01*
X50784818Y-116585026D01*
X51455037Y-115914808D01*
X51472075Y-115978393D01*
X51537901Y-116092407D01*
X51630993Y-116185499D01*
X51745007Y-116251325D01*
X51808590Y-116268362D01*
X51176282Y-116900669D01*
X51176282Y-116900670D01*
X51230449Y-116940024D01*
X51419782Y-117036495D01*
X51621870Y-117102157D01*
X51831754Y-117135400D01*
X52044246Y-117135400D01*
X52254127Y-117102157D01*
X52254130Y-117102157D01*
X52456217Y-117036495D01*
X52645554Y-116940022D01*
X52699716Y-116900670D01*
X52699717Y-116900670D01*
X52067408Y-116268362D01*
X52130993Y-116251325D01*
X52245007Y-116185499D01*
X52338099Y-116092407D01*
X52403925Y-115978393D01*
X52420962Y-115914808D01*
X53053270Y-116547117D01*
X53053270Y-116547116D01*
X53092622Y-116492955D01*
X53097232Y-116483907D01*
X53145205Y-116433109D01*
X53213025Y-116416312D01*
X53279161Y-116438847D01*
X53318204Y-116483904D01*
X53322949Y-116493217D01*
X53447890Y-116665186D01*
X53598213Y-116815509D01*
X53770179Y-116940448D01*
X53770181Y-116940449D01*
X53770184Y-116940451D01*
X53959588Y-117036957D01*
X54161757Y-117102646D01*
X54371713Y-117135900D01*
X54371714Y-117135900D01*
X54584286Y-117135900D01*
X54584287Y-117135900D01*
X54794243Y-117102646D01*
X54996412Y-117036957D01*
X55185816Y-116940451D01*
X55240572Y-116900669D01*
X55357786Y-116815509D01*
X55357788Y-116815506D01*
X55357792Y-116815504D01*
X55508104Y-116665192D01*
X55508106Y-116665188D01*
X55508109Y-116665186D01*
X55633048Y-116493220D01*
X55633050Y-116493217D01*
X55633051Y-116493216D01*
X55637514Y-116484454D01*
X55685488Y-116433659D01*
X55753308Y-116416863D01*
X55819444Y-116439399D01*
X55858486Y-116484456D01*
X55862951Y-116493220D01*
X55987890Y-116665186D01*
X56138213Y-116815509D01*
X56310179Y-116940448D01*
X56310181Y-116940449D01*
X56310184Y-116940451D01*
X56499588Y-117036957D01*
X56701757Y-117102646D01*
X56911713Y-117135900D01*
X56911714Y-117135900D01*
X57124286Y-117135900D01*
X57124287Y-117135900D01*
X57334243Y-117102646D01*
X57536412Y-117036957D01*
X57725816Y-116940451D01*
X57780572Y-116900669D01*
X57897786Y-116815509D01*
X57897788Y-116815506D01*
X57897792Y-116815504D01*
X58048104Y-116665192D01*
X58061784Y-116646363D01*
X58076759Y-116625753D01*
X58173048Y-116493220D01*
X58173050Y-116493217D01*
X58173051Y-116493216D01*
X58269557Y-116303812D01*
X58335246Y-116101643D01*
X58368500Y-115891687D01*
X58368500Y-115679113D01*
X58335246Y-115469157D01*
X58321506Y-115426873D01*
X58319512Y-115357035D01*
X58351755Y-115300878D01*
X63721188Y-109931446D01*
X63782511Y-109897961D01*
X63852203Y-109902945D01*
X63896550Y-109931446D01*
X63995209Y-110030105D01*
X63995214Y-110030109D01*
X64159793Y-110149682D01*
X64202459Y-110205011D01*
X64208438Y-110274625D01*
X64175833Y-110336420D01*
X64159793Y-110350318D01*
X63995214Y-110469890D01*
X63995209Y-110469894D01*
X63844890Y-110620213D01*
X63719951Y-110792179D01*
X63623444Y-110981585D01*
X63557753Y-111183760D01*
X63524500Y-111393713D01*
X63524500Y-111606286D01*
X63557753Y-111816239D01*
X63623444Y-112018414D01*
X63719951Y-112207820D01*
X63844890Y-112379786D01*
X63995209Y-112530105D01*
X63995214Y-112530109D01*
X64159793Y-112649682D01*
X64202459Y-112705011D01*
X64208438Y-112774625D01*
X64175833Y-112836420D01*
X64159793Y-112850318D01*
X63995214Y-112969890D01*
X63995209Y-112969894D01*
X63844890Y-113120213D01*
X63719951Y-113292179D01*
X63623444Y-113481585D01*
X63557753Y-113683760D01*
X63527305Y-113876000D01*
X63524500Y-113893713D01*
X63524500Y-114106287D01*
X63557754Y-114316243D01*
X63619206Y-114505373D01*
X63623444Y-114518414D01*
X63719951Y-114707820D01*
X63844890Y-114879786D01*
X63984068Y-115018964D01*
X64017553Y-115080287D01*
X64012569Y-115149979D01*
X63970697Y-115205912D01*
X63961484Y-115212183D01*
X63806659Y-115307680D01*
X63806655Y-115307683D01*
X63682684Y-115431654D01*
X63590643Y-115580875D01*
X63590641Y-115580880D01*
X63535494Y-115747302D01*
X63535493Y-115747309D01*
X63525000Y-115850013D01*
X63525000Y-116250000D01*
X64595854Y-116250000D01*
X64557370Y-116316657D01*
X64525000Y-116437465D01*
X64525000Y-116562535D01*
X64557370Y-116683343D01*
X64595854Y-116750000D01*
X63525001Y-116750000D01*
X63525001Y-117149986D01*
X63535494Y-117252697D01*
X63590641Y-117419119D01*
X63590643Y-117419124D01*
X63682684Y-117568345D01*
X63806654Y-117692315D01*
X63955875Y-117784356D01*
X63955880Y-117784358D01*
X64122302Y-117839505D01*
X64122309Y-117839506D01*
X64225019Y-117849999D01*
X64749999Y-117849999D01*
X64750000Y-117849998D01*
X64750000Y-116904145D01*
X64816657Y-116942630D01*
X64937465Y-116975000D01*
X65062535Y-116975000D01*
X65183343Y-116942630D01*
X65250000Y-116904145D01*
X65250000Y-117849999D01*
X65774972Y-117849999D01*
X65774986Y-117849998D01*
X65877697Y-117839505D01*
X66044119Y-117784358D01*
X66044124Y-117784356D01*
X66193345Y-117692315D01*
X66317315Y-117568345D01*
X66409356Y-117419124D01*
X66409358Y-117419119D01*
X66464505Y-117252697D01*
X66464506Y-117252690D01*
X66474999Y-117149986D01*
X66475000Y-117149973D01*
X66475000Y-116750000D01*
X65404146Y-116750000D01*
X65442630Y-116683343D01*
X65475000Y-116562535D01*
X65475000Y-116437465D01*
X65442630Y-116316657D01*
X65404146Y-116250000D01*
X66474999Y-116250000D01*
X66474999Y-115850028D01*
X66474998Y-115850013D01*
X66464505Y-115747302D01*
X66409358Y-115580880D01*
X66409356Y-115580875D01*
X66317315Y-115431654D01*
X66193345Y-115307684D01*
X66038515Y-115212184D01*
X65991791Y-115160236D01*
X65980568Y-115091273D01*
X66008412Y-115027191D01*
X66015909Y-115018986D01*
X66155104Y-114879792D01*
X66280051Y-114707816D01*
X66376557Y-114518412D01*
X66442246Y-114316243D01*
X66475500Y-114106287D01*
X66475500Y-113893713D01*
X66442246Y-113683757D01*
X66388512Y-113518384D01*
X66386518Y-113448545D01*
X66422598Y-113388712D01*
X66444441Y-113372683D01*
X66520416Y-113328820D01*
X66632220Y-113217016D01*
X66632220Y-113217014D01*
X66642424Y-113206811D01*
X66642427Y-113206806D01*
X70461482Y-109387752D01*
X70522803Y-109354269D01*
X70592495Y-109359253D01*
X70648428Y-109401125D01*
X70671634Y-109456037D01*
X70682753Y-109526239D01*
X70748444Y-109728414D01*
X70844951Y-109917820D01*
X70969890Y-110089786D01*
X71120213Y-110240109D01*
X71292182Y-110365050D01*
X71300946Y-110369516D01*
X71351742Y-110417491D01*
X71368536Y-110485312D01*
X71345998Y-110551447D01*
X71300946Y-110590484D01*
X71292182Y-110594949D01*
X71120213Y-110719890D01*
X70969890Y-110870213D01*
X70844951Y-111042179D01*
X70748444Y-111231585D01*
X70682753Y-111433760D01*
X70649500Y-111643713D01*
X70649500Y-111856286D01*
X70675178Y-112018414D01*
X70682754Y-112066243D01*
X70728755Y-112207820D01*
X70748444Y-112268414D01*
X70844951Y-112457820D01*
X70969890Y-112629786D01*
X71120213Y-112780109D01*
X71292179Y-112905048D01*
X71292181Y-112905049D01*
X71292184Y-112905051D01*
X71481588Y-113001557D01*
X71683757Y-113067246D01*
X71893713Y-113100500D01*
X71893714Y-113100500D01*
X72106286Y-113100500D01*
X72106287Y-113100500D01*
X72316243Y-113067246D01*
X72518412Y-113001557D01*
X72707816Y-112905051D01*
X72879792Y-112780104D01*
X72993329Y-112666566D01*
X73054648Y-112633084D01*
X73124340Y-112638068D01*
X73180274Y-112679939D01*
X73197189Y-112710917D01*
X73246202Y-112842328D01*
X73246206Y-112842335D01*
X73332452Y-112957544D01*
X73332455Y-112957547D01*
X73447664Y-113043793D01*
X73447671Y-113043797D01*
X73582517Y-113094091D01*
X73582516Y-113094091D01*
X73589444Y-113094835D01*
X73642127Y-113100500D01*
X75437872Y-113100499D01*
X75497483Y-113094091D01*
X75632331Y-113043796D01*
X75747546Y-112957546D01*
X75833796Y-112842331D01*
X75884091Y-112707483D01*
X75890500Y-112647873D01*
X75890499Y-110852128D01*
X75884091Y-110792517D01*
X75883965Y-110792180D01*
X75833797Y-110657671D01*
X75833793Y-110657664D01*
X75747547Y-110542455D01*
X75747544Y-110542452D01*
X75632335Y-110456206D01*
X75632328Y-110456202D01*
X75500917Y-110407189D01*
X75444983Y-110365318D01*
X75420566Y-110299853D01*
X75435418Y-110231580D01*
X75456563Y-110203332D01*
X75570104Y-110089792D01*
X75695051Y-109917816D01*
X75791557Y-109728412D01*
X75857246Y-109526243D01*
X75890500Y-109316287D01*
X75890500Y-109103713D01*
X75857246Y-108893757D01*
X75791557Y-108691588D01*
X75695051Y-108502184D01*
X75695049Y-108502181D01*
X75695048Y-108502179D01*
X75570109Y-108330213D01*
X75419786Y-108179890D01*
X75247820Y-108054951D01*
X75247115Y-108054591D01*
X75239054Y-108050485D01*
X75188259Y-108002512D01*
X75171463Y-107934692D01*
X75193999Y-107868556D01*
X75239054Y-107829515D01*
X75247816Y-107825051D01*
X75269789Y-107809086D01*
X75419786Y-107700109D01*
X75419788Y-107700106D01*
X75419792Y-107700104D01*
X75570104Y-107549792D01*
X75570106Y-107549788D01*
X75570109Y-107549786D01*
X75695048Y-107377820D01*
X75695047Y-107377820D01*
X75695051Y-107377816D01*
X75791557Y-107188412D01*
X75857246Y-106986243D01*
X75890500Y-106776287D01*
X75890500Y-106563713D01*
X75857246Y-106353757D01*
X75791557Y-106151588D01*
X75695051Y-105962184D01*
X75695049Y-105962181D01*
X75695048Y-105962179D01*
X75570109Y-105790213D01*
X75419786Y-105639890D01*
X75247820Y-105514951D01*
X75247115Y-105514591D01*
X75239054Y-105510485D01*
X75188259Y-105462512D01*
X75171463Y-105394692D01*
X75193999Y-105328556D01*
X75239054Y-105289515D01*
X75247816Y-105285051D01*
X75327801Y-105226939D01*
X75419786Y-105160109D01*
X75419788Y-105160106D01*
X75419792Y-105160104D01*
X75570104Y-105009792D01*
X75570106Y-105009788D01*
X75570109Y-105009786D01*
X75695048Y-104837820D01*
X75695047Y-104837820D01*
X75695051Y-104837816D01*
X75791557Y-104648412D01*
X75857246Y-104446243D01*
X75890500Y-104236287D01*
X75890500Y-104023713D01*
X75890296Y-104022425D01*
X75890359Y-104021931D01*
X75890118Y-104018860D01*
X75890763Y-104018809D01*
X75899250Y-103953132D01*
X75925085Y-103915349D01*
X76716520Y-103123916D01*
X76795577Y-102986985D01*
X76836501Y-102834257D01*
X76836501Y-102814395D01*
X76856186Y-102747356D01*
X76872815Y-102726719D01*
X84371789Y-95227744D01*
X84433110Y-95194261D01*
X84502802Y-95199245D01*
X84558735Y-95241117D01*
X84569953Y-95259132D01*
X84604951Y-95327820D01*
X84729890Y-95499786D01*
X84880213Y-95650109D01*
X85052182Y-95775050D01*
X85060946Y-95779516D01*
X85111742Y-95827491D01*
X85128536Y-95895312D01*
X85105998Y-95961447D01*
X85060946Y-96000484D01*
X85052182Y-96004949D01*
X84880213Y-96129890D01*
X84729890Y-96280213D01*
X84604951Y-96452179D01*
X84508444Y-96641585D01*
X84442753Y-96843760D01*
X84409500Y-97053713D01*
X84409500Y-97266286D01*
X84422317Y-97347213D01*
X84442754Y-97476243D01*
X84504766Y-97667096D01*
X84508444Y-97678414D01*
X84604951Y-97867820D01*
X84729890Y-98039786D01*
X84880213Y-98190109D01*
X85052182Y-98315050D01*
X85060946Y-98319516D01*
X85111742Y-98367491D01*
X85128536Y-98435312D01*
X85105998Y-98501447D01*
X85060946Y-98540484D01*
X85052182Y-98544949D01*
X84880213Y-98669890D01*
X84729890Y-98820213D01*
X84604951Y-98992179D01*
X84508444Y-99181585D01*
X84442753Y-99383760D01*
X84413507Y-99568412D01*
X84409500Y-99593713D01*
X84409500Y-99806287D01*
X84442754Y-100016243D01*
X84505642Y-100209792D01*
X84508444Y-100218414D01*
X84604951Y-100407820D01*
X84729890Y-100579786D01*
X84880213Y-100730109D01*
X85052182Y-100855050D01*
X85060946Y-100859516D01*
X85111742Y-100907491D01*
X85128536Y-100975312D01*
X85105998Y-101041447D01*
X85060946Y-101080484D01*
X85052182Y-101084949D01*
X84880213Y-101209890D01*
X84729890Y-101360213D01*
X84604951Y-101532179D01*
X84508444Y-101721585D01*
X84442753Y-101923760D01*
X84409500Y-102133713D01*
X84409500Y-102346286D01*
X84432215Y-102489707D01*
X84442754Y-102556243D01*
X84507918Y-102756797D01*
X84508444Y-102758414D01*
X84604951Y-102947820D01*
X84729890Y-103119786D01*
X84880213Y-103270109D01*
X85052179Y-103395048D01*
X85052181Y-103395049D01*
X85052184Y-103395051D01*
X85061493Y-103399794D01*
X85112290Y-103447766D01*
X85129087Y-103515587D01*
X85106552Y-103581722D01*
X85061505Y-103620760D01*
X85052446Y-103625376D01*
X85052440Y-103625380D01*
X84998282Y-103664727D01*
X84998282Y-103664728D01*
X85630591Y-104297037D01*
X85567007Y-104314075D01*
X85452993Y-104379901D01*
X85359901Y-104472993D01*
X85294075Y-104587007D01*
X85277037Y-104650591D01*
X84644728Y-104018282D01*
X84644727Y-104018282D01*
X84605380Y-104072439D01*
X84508904Y-104261782D01*
X84443242Y-104463869D01*
X84443242Y-104463872D01*
X84410000Y-104673753D01*
X84410000Y-104886246D01*
X84443242Y-105096127D01*
X84443242Y-105096130D01*
X84508904Y-105298217D01*
X84605375Y-105487550D01*
X84644728Y-105541716D01*
X85277037Y-104909408D01*
X85294075Y-104972993D01*
X85359901Y-105087007D01*
X85452993Y-105180099D01*
X85567007Y-105245925D01*
X85630589Y-105262962D01*
X84960370Y-105933181D01*
X84899047Y-105966666D01*
X84872698Y-105969500D01*
X84862134Y-105969500D01*
X84862123Y-105969501D01*
X84802516Y-105975908D01*
X84667671Y-106026202D01*
X84667664Y-106026206D01*
X84552455Y-106112452D01*
X84552452Y-106112455D01*
X84466206Y-106227664D01*
X84466202Y-106227671D01*
X84415908Y-106362517D01*
X84411283Y-106405542D01*
X84409501Y-106422123D01*
X84409500Y-106422135D01*
X84409500Y-108217870D01*
X84409501Y-108217876D01*
X84415908Y-108277483D01*
X84466202Y-108412328D01*
X84466206Y-108412335D01*
X84552452Y-108527544D01*
X84552455Y-108527547D01*
X84667664Y-108613793D01*
X84667671Y-108613797D01*
X84802517Y-108664091D01*
X84802516Y-108664091D01*
X84809444Y-108664835D01*
X84862127Y-108670500D01*
X86625500Y-108670499D01*
X86692539Y-108690184D01*
X86738294Y-108742987D01*
X86749500Y-108794499D01*
X86749500Y-115889800D01*
X86729815Y-115956839D01*
X86720506Y-115969365D01*
X86594951Y-116142179D01*
X86498444Y-116331585D01*
X86432753Y-116533760D01*
X86410590Y-116673694D01*
X86399500Y-116743713D01*
X86399500Y-117256287D01*
X86403460Y-117281287D01*
X86432735Y-117466127D01*
X86432754Y-117466243D01*
X86489891Y-117642093D01*
X86498444Y-117668414D01*
X86594951Y-117857820D01*
X86719890Y-118029786D01*
X86870213Y-118180109D01*
X87042179Y-118305048D01*
X87042181Y-118305049D01*
X87042184Y-118305051D01*
X87231588Y-118401557D01*
X87433757Y-118467246D01*
X87643713Y-118500500D01*
X87643714Y-118500500D01*
X87856286Y-118500500D01*
X87856287Y-118500500D01*
X88066243Y-118467246D01*
X88268412Y-118401557D01*
X88457816Y-118305051D01*
X88595374Y-118205110D01*
X88629784Y-118180110D01*
X88629784Y-118180109D01*
X88629792Y-118180104D01*
X88768604Y-118041291D01*
X88829923Y-118007809D01*
X88899615Y-118012793D01*
X88955549Y-118054664D01*
X88961821Y-118063878D01*
X88965185Y-118069333D01*
X88965186Y-118069334D01*
X89057288Y-118218656D01*
X89181344Y-118342712D01*
X89330666Y-118434814D01*
X89497203Y-118489999D01*
X89599991Y-118500500D01*
X90900008Y-118500499D01*
X91002797Y-118489999D01*
X91169334Y-118434814D01*
X91318656Y-118342712D01*
X91442712Y-118218656D01*
X91534814Y-118069334D01*
X91589999Y-117902797D01*
X91600500Y-117800009D01*
X91600499Y-116768713D01*
X95649500Y-116768713D01*
X95649500Y-117281286D01*
X95682427Y-117489182D01*
X95682754Y-117491243D01*
X95731768Y-117642093D01*
X95748444Y-117693414D01*
X95844951Y-117882820D01*
X95969890Y-118054786D01*
X96120213Y-118205109D01*
X96292179Y-118330048D01*
X96292181Y-118330049D01*
X96292184Y-118330051D01*
X96481588Y-118426557D01*
X96683757Y-118492246D01*
X96893713Y-118525500D01*
X96893714Y-118525500D01*
X97106286Y-118525500D01*
X97106287Y-118525500D01*
X97316243Y-118492246D01*
X97518412Y-118426557D01*
X97707816Y-118330051D01*
X97879792Y-118205104D01*
X98018604Y-118066291D01*
X98079923Y-118032809D01*
X98149615Y-118037793D01*
X98205549Y-118079664D01*
X98211821Y-118088878D01*
X98215185Y-118094333D01*
X98215186Y-118094334D01*
X98307288Y-118243656D01*
X98431344Y-118367712D01*
X98580666Y-118459814D01*
X98747203Y-118514999D01*
X98849991Y-118525500D01*
X100150008Y-118525499D01*
X100252797Y-118514999D01*
X100419334Y-118459814D01*
X100568656Y-118367712D01*
X100692712Y-118243656D01*
X100784814Y-118094334D01*
X100839999Y-117927797D01*
X100850500Y-117825009D01*
X100850499Y-116224992D01*
X100850366Y-116223694D01*
X100839999Y-116122203D01*
X100839998Y-116122200D01*
X100831714Y-116097200D01*
X100784814Y-115955666D01*
X100692712Y-115806344D01*
X100568656Y-115682288D01*
X100419334Y-115590186D01*
X100252797Y-115535001D01*
X100252795Y-115535000D01*
X100150010Y-115524500D01*
X98849998Y-115524500D01*
X98849981Y-115524501D01*
X98747203Y-115535000D01*
X98747200Y-115535001D01*
X98580668Y-115590185D01*
X98580663Y-115590187D01*
X98431342Y-115682289D01*
X98307289Y-115806342D01*
X98211821Y-115961121D01*
X98159873Y-116007845D01*
X98090910Y-116019068D01*
X98026828Y-115991224D01*
X98018601Y-115983705D01*
X97879786Y-115844890D01*
X97707820Y-115719951D01*
X97518414Y-115623444D01*
X97518413Y-115623443D01*
X97518412Y-115623443D01*
X97316243Y-115557754D01*
X97316241Y-115557753D01*
X97316240Y-115557753D01*
X97154957Y-115532208D01*
X97106287Y-115524500D01*
X96893713Y-115524500D01*
X96845042Y-115532208D01*
X96683760Y-115557753D01*
X96481585Y-115623444D01*
X96292179Y-115719951D01*
X96120213Y-115844890D01*
X95969890Y-115995213D01*
X95844951Y-116167179D01*
X95748444Y-116356585D01*
X95682753Y-116558760D01*
X95649500Y-116768713D01*
X91600499Y-116768713D01*
X91600499Y-116199992D01*
X91589999Y-116097203D01*
X91534814Y-115930666D01*
X91442712Y-115781344D01*
X91318656Y-115657288D01*
X91205740Y-115587641D01*
X91169336Y-115565187D01*
X91169331Y-115565185D01*
X91167862Y-115564698D01*
X91002797Y-115510001D01*
X91002795Y-115510000D01*
X90900010Y-115499500D01*
X89599998Y-115499500D01*
X89599981Y-115499501D01*
X89497203Y-115510000D01*
X89497200Y-115510001D01*
X89330668Y-115565185D01*
X89330663Y-115565187D01*
X89181342Y-115657289D01*
X89057289Y-115781342D01*
X89057288Y-115781344D01*
X88989229Y-115891687D01*
X88980039Y-115906586D01*
X88928091Y-115953310D01*
X88859129Y-115964533D01*
X88795046Y-115936689D01*
X88756190Y-115878621D01*
X88750500Y-115841489D01*
X88750500Y-108335782D01*
X88770185Y-108268743D01*
X88786819Y-108248101D01*
X99287819Y-97747101D01*
X99349142Y-97713616D01*
X99418834Y-97718600D01*
X99474767Y-97760472D01*
X99499184Y-97825936D01*
X99499500Y-97834782D01*
X99499500Y-102358097D01*
X99536446Y-102591368D01*
X99609433Y-102815996D01*
X99696557Y-102986985D01*
X99716657Y-103026433D01*
X99855483Y-103217510D01*
X100022490Y-103384517D01*
X100184723Y-103502387D01*
X100227388Y-103557716D01*
X100233367Y-103627329D01*
X100200761Y-103689124D01*
X100184723Y-103703022D01*
X100120209Y-103749894D01*
X99969890Y-103900213D01*
X99844951Y-104072179D01*
X99748444Y-104261585D01*
X99682753Y-104463760D01*
X99649500Y-104673713D01*
X99649500Y-104886286D01*
X99682735Y-105096127D01*
X99682754Y-105096243D01*
X99724766Y-105225543D01*
X99748444Y-105298414D01*
X99844951Y-105487820D01*
X99969890Y-105659786D01*
X100083430Y-105773326D01*
X100116915Y-105834649D01*
X100111931Y-105904341D01*
X100070059Y-105960274D01*
X100039083Y-105977189D01*
X99907669Y-106026203D01*
X99907664Y-106026206D01*
X99792455Y-106112452D01*
X99792452Y-106112455D01*
X99706206Y-106227664D01*
X99706202Y-106227671D01*
X99655908Y-106362517D01*
X99651283Y-106405542D01*
X99649501Y-106422123D01*
X99649500Y-106422135D01*
X99649500Y-108217870D01*
X99649501Y-108217876D01*
X99655908Y-108277483D01*
X99706202Y-108412328D01*
X99706206Y-108412335D01*
X99792452Y-108527544D01*
X99792455Y-108527547D01*
X99907664Y-108613793D01*
X99907671Y-108613797D01*
X100042517Y-108664091D01*
X100042516Y-108664091D01*
X100049444Y-108664835D01*
X100102127Y-108670500D01*
X101897872Y-108670499D01*
X101957483Y-108664091D01*
X102092331Y-108613796D01*
X102207546Y-108527546D01*
X102293796Y-108412331D01*
X102344091Y-108277483D01*
X102350500Y-108217873D01*
X102350499Y-106422128D01*
X102344091Y-106362517D01*
X102293796Y-106227669D01*
X102293795Y-106227668D01*
X102293793Y-106227664D01*
X102207547Y-106112455D01*
X102207544Y-106112452D01*
X102092335Y-106026206D01*
X102092328Y-106026202D01*
X101960917Y-105977189D01*
X101904983Y-105935318D01*
X101880566Y-105869853D01*
X101895418Y-105801580D01*
X101916563Y-105773332D01*
X102030104Y-105659792D01*
X102155051Y-105487816D01*
X102251557Y-105298412D01*
X102317246Y-105096243D01*
X102350500Y-104886287D01*
X102350500Y-104673713D01*
X102317246Y-104463757D01*
X102251557Y-104261588D01*
X102155051Y-104072184D01*
X102155049Y-104072181D01*
X102155048Y-104072179D01*
X102030109Y-103900213D01*
X101879790Y-103749894D01*
X101879785Y-103749890D01*
X101815277Y-103703022D01*
X101772611Y-103647692D01*
X101766632Y-103578079D01*
X101799238Y-103516284D01*
X101815273Y-103502389D01*
X101977510Y-103384517D01*
X102144517Y-103217510D01*
X102283343Y-103026433D01*
X102390568Y-102815992D01*
X102463553Y-102591368D01*
X102479654Y-102489711D01*
X102500500Y-102358097D01*
X102500500Y-100172889D01*
X102520185Y-100105850D01*
X102536819Y-100085208D01*
X104543067Y-98078960D01*
X104543077Y-98078948D01*
X104687822Y-97934204D01*
X104749142Y-97900722D01*
X104818834Y-97905706D01*
X104874767Y-97947578D01*
X104899184Y-98013042D01*
X104899500Y-98021888D01*
X104899500Y-115158164D01*
X104879815Y-115225203D01*
X104831796Y-115268648D01*
X104765976Y-115302185D01*
X104587641Y-115431752D01*
X104587636Y-115431756D01*
X104431756Y-115587636D01*
X104431752Y-115587641D01*
X104302187Y-115765974D01*
X104202104Y-115962393D01*
X104202103Y-115962396D01*
X104133985Y-116172047D01*
X104122106Y-116247050D01*
X104099500Y-116389778D01*
X104099500Y-116610222D01*
X104108206Y-116665190D01*
X104133985Y-116827952D01*
X104202103Y-117037603D01*
X104202104Y-117037606D01*
X104248923Y-117129491D01*
X104281279Y-117192993D01*
X104302187Y-117234025D01*
X104431752Y-117412358D01*
X104431756Y-117412363D01*
X104587636Y-117568243D01*
X104587641Y-117568247D01*
X104725240Y-117668217D01*
X104765978Y-117697815D01*
X104882501Y-117757187D01*
X104962393Y-117797895D01*
X104962396Y-117797896D01*
X105045865Y-117825016D01*
X105172049Y-117866015D01*
X105389778Y-117900500D01*
X105389779Y-117900500D01*
X105610221Y-117900500D01*
X105610222Y-117900500D01*
X105827951Y-117866015D01*
X106037606Y-117797895D01*
X106234022Y-117697815D01*
X106412365Y-117568242D01*
X106462924Y-117517682D01*
X106524245Y-117484198D01*
X106593936Y-117489182D01*
X106649870Y-117531053D01*
X106666786Y-117562030D01*
X106696646Y-117642087D01*
X106696649Y-117642093D01*
X106782809Y-117757187D01*
X106782812Y-117757190D01*
X106897906Y-117843350D01*
X106897913Y-117843354D01*
X107032620Y-117893596D01*
X107032627Y-117893598D01*
X107092155Y-117899999D01*
X107092172Y-117900000D01*
X107790000Y-117900000D01*
X107790000Y-116875277D01*
X107866306Y-116919333D01*
X107980756Y-116950000D01*
X108099244Y-116950000D01*
X108213694Y-116919333D01*
X108290000Y-116875277D01*
X108290000Y-117900000D01*
X108987828Y-117900000D01*
X108987844Y-117899999D01*
X109047372Y-117893598D01*
X109047379Y-117893596D01*
X109182086Y-117843354D01*
X109182093Y-117843350D01*
X109297187Y-117757190D01*
X109297190Y-117757187D01*
X109383350Y-117642093D01*
X109383354Y-117642086D01*
X109433596Y-117507379D01*
X109433598Y-117507372D01*
X109439999Y-117447844D01*
X109440000Y-117447827D01*
X109440000Y-116750000D01*
X108415278Y-116750000D01*
X108418885Y-116743753D01*
X112650000Y-116743753D01*
X112650000Y-116750000D01*
X113566988Y-116750000D01*
X113534075Y-116807007D01*
X113500000Y-116934174D01*
X113500000Y-117065826D01*
X113534075Y-117192993D01*
X113566988Y-117250000D01*
X112650000Y-117250000D01*
X112650000Y-117256246D01*
X112683242Y-117466127D01*
X112683242Y-117466130D01*
X112748904Y-117668217D01*
X112845379Y-117857557D01*
X112970272Y-118029459D01*
X112970276Y-118029464D01*
X113120535Y-118179723D01*
X113120540Y-118179727D01*
X113292442Y-118304620D01*
X113481782Y-118401095D01*
X113683871Y-118466757D01*
X113750000Y-118477231D01*
X113750000Y-117433012D01*
X113807007Y-117465925D01*
X113934174Y-117500000D01*
X114065826Y-117500000D01*
X114192993Y-117465925D01*
X114250000Y-117433012D01*
X114250000Y-118477230D01*
X114316126Y-118466757D01*
X114316129Y-118466757D01*
X114518217Y-118401095D01*
X114707557Y-118304620D01*
X114879458Y-118179728D01*
X115018330Y-118040856D01*
X115079653Y-118007371D01*
X115149345Y-118012355D01*
X115205279Y-118054226D01*
X115211551Y-118063440D01*
X115215185Y-118069331D01*
X115215186Y-118069334D01*
X115307288Y-118218656D01*
X115431344Y-118342712D01*
X115580666Y-118434814D01*
X115747203Y-118489999D01*
X115849991Y-118500500D01*
X117150008Y-118500499D01*
X117252797Y-118489999D01*
X117419334Y-118434814D01*
X117568656Y-118342712D01*
X117692712Y-118218656D01*
X117784814Y-118069334D01*
X117839999Y-117902797D01*
X117850500Y-117800009D01*
X117850499Y-116199992D01*
X117839999Y-116097203D01*
X117784814Y-115930666D01*
X117692712Y-115781344D01*
X117568656Y-115657288D01*
X117455740Y-115587641D01*
X117419336Y-115565187D01*
X117419331Y-115565185D01*
X117417862Y-115564698D01*
X117252797Y-115510001D01*
X117252795Y-115510000D01*
X117150010Y-115499500D01*
X115849998Y-115499500D01*
X115849981Y-115499501D01*
X115747203Y-115510000D01*
X115747200Y-115510001D01*
X115580668Y-115565185D01*
X115580663Y-115565187D01*
X115431342Y-115657289D01*
X115307289Y-115781342D01*
X115211551Y-115936559D01*
X115159603Y-115983283D01*
X115090640Y-115994506D01*
X115026558Y-115966662D01*
X115018331Y-115959143D01*
X114879464Y-115820276D01*
X114879459Y-115820272D01*
X114707557Y-115695379D01*
X114518215Y-115598903D01*
X114316124Y-115533241D01*
X114250000Y-115522768D01*
X114250000Y-116566988D01*
X114192993Y-116534075D01*
X114065826Y-116500000D01*
X113934174Y-116500000D01*
X113807007Y-116534075D01*
X113750000Y-116566988D01*
X113750000Y-115522768D01*
X113749999Y-115522768D01*
X113683875Y-115533241D01*
X113481784Y-115598903D01*
X113292442Y-115695379D01*
X113120540Y-115820272D01*
X113120535Y-115820276D01*
X112970276Y-115970535D01*
X112970272Y-115970540D01*
X112845379Y-116142442D01*
X112748904Y-116331782D01*
X112683242Y-116533869D01*
X112683242Y-116533872D01*
X112650000Y-116743753D01*
X108418885Y-116743753D01*
X108459333Y-116673694D01*
X108490000Y-116559244D01*
X108490000Y-116440756D01*
X108459333Y-116326306D01*
X108415278Y-116250000D01*
X109440000Y-116250000D01*
X109440000Y-115552172D01*
X109439999Y-115552155D01*
X109433598Y-115492627D01*
X109433596Y-115492620D01*
X109383354Y-115357913D01*
X109383350Y-115357906D01*
X109297190Y-115242812D01*
X109297187Y-115242809D01*
X109182093Y-115156649D01*
X109182086Y-115156645D01*
X109047379Y-115106403D01*
X109047372Y-115106401D01*
X108987844Y-115100000D01*
X108290000Y-115100000D01*
X108290000Y-116124722D01*
X108213694Y-116080667D01*
X108099244Y-116050000D01*
X107980756Y-116050000D01*
X107866306Y-116080667D01*
X107790000Y-116124722D01*
X107790000Y-115100000D01*
X107092155Y-115100000D01*
X107032627Y-115106401D01*
X107032620Y-115106403D01*
X106897913Y-115156645D01*
X106897906Y-115156649D01*
X106782812Y-115242809D01*
X106782809Y-115242812D01*
X106696649Y-115357906D01*
X106696643Y-115357918D01*
X106666785Y-115437969D01*
X106624914Y-115493903D01*
X106559449Y-115518319D01*
X106491176Y-115503467D01*
X106462923Y-115482316D01*
X106412363Y-115431756D01*
X106412358Y-115431752D01*
X106234023Y-115302185D01*
X106168204Y-115268648D01*
X106117409Y-115220674D01*
X106100500Y-115158164D01*
X106100500Y-98052597D01*
X106120185Y-97985558D01*
X106136819Y-97964916D01*
X106765656Y-97336079D01*
X107500056Y-96601678D01*
X107561377Y-96568195D01*
X107631069Y-96573179D01*
X107687002Y-96615051D01*
X107710208Y-96669962D01*
X107731523Y-96804535D01*
X107794781Y-96999223D01*
X107887715Y-97181613D01*
X108008028Y-97347213D01*
X108152786Y-97491971D01*
X108307749Y-97604556D01*
X108318390Y-97612287D01*
X108421111Y-97664626D01*
X108500776Y-97705218D01*
X108500778Y-97705218D01*
X108500781Y-97705220D01*
X108554050Y-97722528D01*
X108695465Y-97768477D01*
X108734705Y-97774692D01*
X108897648Y-97800500D01*
X108897649Y-97800500D01*
X109102351Y-97800500D01*
X109102352Y-97800500D01*
X109304534Y-97768477D01*
X109499219Y-97705220D01*
X109681610Y-97612287D01*
X109811151Y-97518171D01*
X109847213Y-97491971D01*
X109847215Y-97491968D01*
X109847219Y-97491966D01*
X109991966Y-97347219D01*
X109991968Y-97347215D01*
X109991971Y-97347213D01*
X110086175Y-97217550D01*
X110112287Y-97181610D01*
X110205220Y-96999219D01*
X110268477Y-96804534D01*
X110300500Y-96602352D01*
X110300500Y-96397648D01*
X111749500Y-96397648D01*
X111749500Y-96602351D01*
X111781522Y-96804534D01*
X111844781Y-96999223D01*
X111937715Y-97181613D01*
X112058028Y-97347213D01*
X112202786Y-97491971D01*
X112357749Y-97604556D01*
X112368390Y-97612287D01*
X112471111Y-97664626D01*
X112550776Y-97705218D01*
X112550778Y-97705218D01*
X112550781Y-97705220D01*
X112604050Y-97722528D01*
X112745465Y-97768477D01*
X112784705Y-97774692D01*
X112947648Y-97800500D01*
X112947649Y-97800500D01*
X113152351Y-97800500D01*
X113152352Y-97800500D01*
X113354534Y-97768477D01*
X113549219Y-97705220D01*
X113731610Y-97612287D01*
X113861151Y-97518171D01*
X113897213Y-97491971D01*
X113897215Y-97491968D01*
X113897219Y-97491966D01*
X114041966Y-97347219D01*
X114041968Y-97347215D01*
X114041971Y-97347213D01*
X114136175Y-97217550D01*
X114162287Y-97181610D01*
X114255220Y-96999219D01*
X114318477Y-96804534D01*
X114350500Y-96602352D01*
X114350500Y-96397648D01*
X114331899Y-96280208D01*
X114318477Y-96195465D01*
X114255218Y-96000776D01*
X114208171Y-95908443D01*
X114162287Y-95818390D01*
X114130799Y-95775050D01*
X114114151Y-95752135D01*
X121299500Y-95752135D01*
X121299500Y-98247870D01*
X121299501Y-98247876D01*
X121305908Y-98307483D01*
X121356202Y-98442328D01*
X121356206Y-98442335D01*
X121442452Y-98557544D01*
X121442455Y-98557547D01*
X121557664Y-98643793D01*
X121557671Y-98643797D01*
X121692517Y-98694091D01*
X121692516Y-98694091D01*
X121699444Y-98694835D01*
X121752127Y-98700500D01*
X124247872Y-98700499D01*
X124307483Y-98694091D01*
X124442331Y-98643796D01*
X124557546Y-98557546D01*
X124643796Y-98442331D01*
X124694091Y-98307483D01*
X124700500Y-98247873D01*
X124700499Y-95752128D01*
X124694091Y-95692517D01*
X124679272Y-95652786D01*
X124643797Y-95557671D01*
X124643793Y-95557664D01*
X124557547Y-95442455D01*
X124557544Y-95442452D01*
X124442335Y-95356206D01*
X124442328Y-95356202D01*
X124307482Y-95305908D01*
X124307483Y-95305908D01*
X124247883Y-95299501D01*
X124247881Y-95299500D01*
X124247873Y-95299500D01*
X124247864Y-95299500D01*
X121752129Y-95299500D01*
X121752123Y-95299501D01*
X121692516Y-95305908D01*
X121557671Y-95356202D01*
X121557664Y-95356206D01*
X121442455Y-95442452D01*
X121442452Y-95442455D01*
X121356206Y-95557664D01*
X121356202Y-95557671D01*
X121305908Y-95692517D01*
X121299913Y-95748282D01*
X121299501Y-95752123D01*
X121299500Y-95752135D01*
X114114151Y-95752135D01*
X114041971Y-95652786D01*
X113897213Y-95508028D01*
X113731613Y-95387715D01*
X113731612Y-95387714D01*
X113731610Y-95387713D01*
X113658548Y-95350486D01*
X113549223Y-95294781D01*
X113354534Y-95231522D01*
X113179995Y-95203878D01*
X113152352Y-95199500D01*
X112947648Y-95199500D01*
X112923329Y-95203351D01*
X112745465Y-95231522D01*
X112550776Y-95294781D01*
X112368386Y-95387715D01*
X112202786Y-95508028D01*
X112058028Y-95652786D01*
X111937715Y-95818386D01*
X111844781Y-96000776D01*
X111781522Y-96195465D01*
X111749500Y-96397648D01*
X110300500Y-96397648D01*
X110281899Y-96280208D01*
X110268477Y-96195465D01*
X110205218Y-96000776D01*
X110158171Y-95908443D01*
X110112287Y-95818390D01*
X110080799Y-95775050D01*
X109991971Y-95652786D01*
X109847213Y-95508028D01*
X109681613Y-95387715D01*
X109681612Y-95387714D01*
X109681610Y-95387713D01*
X109608548Y-95350486D01*
X109499223Y-95294781D01*
X109304535Y-95231523D01*
X109169962Y-95210208D01*
X109106828Y-95180278D01*
X109069897Y-95120967D01*
X109070895Y-95051104D01*
X109101678Y-95000056D01*
X109965862Y-94135872D01*
X110027183Y-94102389D01*
X110029350Y-94101938D01*
X110087285Y-94090413D01*
X110184697Y-94071037D01*
X110330379Y-94010694D01*
X110461489Y-93923089D01*
X110572989Y-93811589D01*
X110660594Y-93680479D01*
X110720937Y-93534797D01*
X110751700Y-93380142D01*
X110751700Y-93222458D01*
X110751700Y-93222455D01*
X110737027Y-93148692D01*
X110743254Y-93079100D01*
X110786117Y-93023923D01*
X110852006Y-93000678D01*
X110858644Y-93000500D01*
X112377110Y-93000500D01*
X112444149Y-93020185D01*
X112464791Y-93036819D01*
X112572491Y-93144519D01*
X112572496Y-93144523D01*
X112687736Y-93228249D01*
X112763567Y-93283343D01*
X112894389Y-93350000D01*
X112974003Y-93390566D01*
X112974005Y-93390566D01*
X112974008Y-93390568D01*
X113055194Y-93416947D01*
X113198631Y-93463553D01*
X113431903Y-93500500D01*
X113431908Y-93500500D01*
X113668092Y-93500500D01*
X122164716Y-93500500D01*
X122226714Y-93517112D01*
X122246274Y-93528405D01*
X122452219Y-93613710D01*
X122667537Y-93671404D01*
X122888543Y-93700500D01*
X122888550Y-93700500D01*
X123111450Y-93700500D01*
X123111457Y-93700500D01*
X123332463Y-93671404D01*
X123547781Y-93613710D01*
X123753726Y-93528405D01*
X123946774Y-93416948D01*
X124123624Y-93281247D01*
X124281247Y-93123624D01*
X124416948Y-92946774D01*
X124528405Y-92753726D01*
X124613710Y-92547781D01*
X124671404Y-92332463D01*
X124700500Y-92111457D01*
X124700500Y-91888543D01*
X124671404Y-91667537D01*
X124613710Y-91452219D01*
X124528405Y-91246274D01*
X124416948Y-91053226D01*
X124281247Y-90876376D01*
X124281242Y-90876370D01*
X124123629Y-90718757D01*
X124123622Y-90718751D01*
X123946782Y-90583058D01*
X123946780Y-90583057D01*
X123946774Y-90583052D01*
X123753726Y-90471595D01*
X123753722Y-90471593D01*
X123547790Y-90386293D01*
X123547783Y-90386291D01*
X123547781Y-90386290D01*
X123332463Y-90328596D01*
X123332457Y-90328595D01*
X123332452Y-90328594D01*
X123111466Y-90299501D01*
X123111463Y-90299500D01*
X123111457Y-90299500D01*
X122888543Y-90299500D01*
X122888537Y-90299500D01*
X122888533Y-90299501D01*
X122667547Y-90328594D01*
X122667540Y-90328595D01*
X122667537Y-90328596D01*
X122542069Y-90362215D01*
X122452219Y-90386290D01*
X122452209Y-90386293D01*
X122246280Y-90471592D01*
X122246278Y-90471593D01*
X122246275Y-90471594D01*
X122246274Y-90471595D01*
X122226714Y-90482887D01*
X122164716Y-90499500D01*
X114222889Y-90499500D01*
X114155850Y-90479815D01*
X114135208Y-90463181D01*
X114027511Y-90355484D01*
X113996647Y-90333060D01*
X113836434Y-90216657D01*
X113625996Y-90109433D01*
X113401368Y-90036446D01*
X113168097Y-89999500D01*
X113168092Y-89999500D01*
X109118092Y-89999500D01*
X108881908Y-89999500D01*
X108881903Y-89999500D01*
X108693650Y-90029316D01*
X108624356Y-90020361D01*
X108570904Y-89975365D01*
X108550265Y-89908613D01*
X108568990Y-89841300D01*
X108586567Y-89819166D01*
X109092213Y-89313521D01*
X109092216Y-89313520D01*
X109204020Y-89201716D01*
X109254139Y-89114904D01*
X109283077Y-89064785D01*
X109324000Y-88912057D01*
X109324000Y-88753943D01*
X109324000Y-84955566D01*
X109343685Y-84888527D01*
X109396489Y-84842772D01*
X109465647Y-84832828D01*
X109523485Y-84857189D01*
X109547006Y-84875238D01*
X109802493Y-85022743D01*
X110075048Y-85135639D01*
X110360007Y-85211993D01*
X110652494Y-85250500D01*
X110652501Y-85250500D01*
X110947499Y-85250500D01*
X110947506Y-85250500D01*
X111239993Y-85211993D01*
X111524952Y-85135639D01*
X111797507Y-85022743D01*
X112052994Y-84875238D01*
X112287042Y-84695646D01*
X112495646Y-84487042D01*
X112675238Y-84252994D01*
X112822743Y-83997507D01*
X112935639Y-83724952D01*
X113011993Y-83439993D01*
X113050500Y-83147506D01*
X113050500Y-82852494D01*
X113011993Y-82560007D01*
X112935639Y-82275048D01*
X112822743Y-82002493D01*
X112800681Y-81964281D01*
X112675238Y-81747006D01*
X112628301Y-81685837D01*
X113949500Y-81685837D01*
X113949500Y-81914162D01*
X113985215Y-82139660D01*
X114055770Y-82356803D01*
X114149114Y-82540000D01*
X114159421Y-82560228D01*
X114293621Y-82744937D01*
X114455063Y-82906379D01*
X114639772Y-83040579D01*
X114735884Y-83089550D01*
X114843196Y-83144229D01*
X114843198Y-83144229D01*
X114843201Y-83144231D01*
X114943946Y-83176965D01*
X115060339Y-83214784D01*
X115285838Y-83250500D01*
X115285843Y-83250500D01*
X115514162Y-83250500D01*
X115739660Y-83214784D01*
X115956799Y-83144231D01*
X116160228Y-83040579D01*
X116344937Y-82906379D01*
X116398830Y-82852486D01*
X117749500Y-82852486D01*
X117749500Y-83147513D01*
X117768469Y-83291588D01*
X117788007Y-83439993D01*
X117788008Y-83439995D01*
X117864361Y-83724951D01*
X117864364Y-83724961D01*
X117977254Y-83997500D01*
X117977258Y-83997510D01*
X118124761Y-84252993D01*
X118304352Y-84487040D01*
X118304358Y-84487047D01*
X118512952Y-84695641D01*
X118512959Y-84695647D01*
X118747006Y-84875238D01*
X119002489Y-85022741D01*
X119002490Y-85022741D01*
X119002493Y-85022743D01*
X119275048Y-85135639D01*
X119560007Y-85211993D01*
X119852494Y-85250500D01*
X119852501Y-85250500D01*
X120147499Y-85250500D01*
X120147506Y-85250500D01*
X120439993Y-85211993D01*
X120724952Y-85135639D01*
X120997507Y-85022743D01*
X121252994Y-84875238D01*
X121487042Y-84695646D01*
X121695646Y-84487042D01*
X121875238Y-84252994D01*
X122022743Y-83997507D01*
X122135639Y-83724952D01*
X122211993Y-83439993D01*
X122250500Y-83147506D01*
X122250500Y-82852494D01*
X122211993Y-82560007D01*
X122135639Y-82275048D01*
X122022743Y-82002493D01*
X122000681Y-81964281D01*
X121875238Y-81747006D01*
X121695647Y-81512959D01*
X121695641Y-81512952D01*
X121487047Y-81304358D01*
X121487040Y-81304352D01*
X121252993Y-81124761D01*
X120997510Y-80977258D01*
X120997500Y-80977254D01*
X120724961Y-80864364D01*
X120724954Y-80864362D01*
X120724952Y-80864361D01*
X120439993Y-80788007D01*
X120391113Y-80781571D01*
X120147513Y-80749500D01*
X120147506Y-80749500D01*
X119852494Y-80749500D01*
X119852486Y-80749500D01*
X119574085Y-80786153D01*
X119560007Y-80788007D01*
X119309756Y-80855061D01*
X119275048Y-80864361D01*
X119275038Y-80864364D01*
X119002499Y-80977254D01*
X119002489Y-80977258D01*
X118747006Y-81124761D01*
X118512959Y-81304352D01*
X118512952Y-81304358D01*
X118304358Y-81512952D01*
X118304352Y-81512959D01*
X118124761Y-81747006D01*
X117977258Y-82002489D01*
X117977254Y-82002499D01*
X117864364Y-82275038D01*
X117864361Y-82275048D01*
X117859681Y-82292516D01*
X117788008Y-82560004D01*
X117788006Y-82560015D01*
X117749500Y-82852486D01*
X116398830Y-82852486D01*
X116506379Y-82744937D01*
X116640579Y-82560228D01*
X116744231Y-82356799D01*
X116814784Y-82139660D01*
X116850500Y-81914162D01*
X116850500Y-81685837D01*
X116814784Y-81460339D01*
X116761348Y-81295881D01*
X116744231Y-81243201D01*
X116744229Y-81243198D01*
X116744229Y-81243196D01*
X116645733Y-81049888D01*
X116640579Y-81039772D01*
X116506379Y-80855063D01*
X116344937Y-80693621D01*
X116160228Y-80559421D01*
X115956803Y-80455770D01*
X115739660Y-80385215D01*
X115514162Y-80349500D01*
X115514157Y-80349500D01*
X115285843Y-80349500D01*
X115285838Y-80349500D01*
X115060339Y-80385215D01*
X114843196Y-80455770D01*
X114639771Y-80559421D01*
X114455061Y-80693622D01*
X114293622Y-80855061D01*
X114159421Y-81039771D01*
X114055770Y-81243196D01*
X113985215Y-81460339D01*
X113949500Y-81685837D01*
X112628301Y-81685837D01*
X112495647Y-81512959D01*
X112495641Y-81512952D01*
X112287047Y-81304358D01*
X112287040Y-81304352D01*
X112052993Y-81124761D01*
X111797510Y-80977258D01*
X111797500Y-80977254D01*
X111524961Y-80864364D01*
X111524954Y-80864362D01*
X111524952Y-80864361D01*
X111239993Y-80788007D01*
X111191113Y-80781571D01*
X110947513Y-80749500D01*
X110947506Y-80749500D01*
X110652494Y-80749500D01*
X110652486Y-80749500D01*
X110374085Y-80786153D01*
X110360007Y-80788007D01*
X110109756Y-80855061D01*
X110075048Y-80864361D01*
X110075038Y-80864364D01*
X109802499Y-80977254D01*
X109802489Y-80977258D01*
X109547006Y-81124761D01*
X109523486Y-81142809D01*
X109458316Y-81168003D01*
X109389872Y-81153964D01*
X109339882Y-81105150D01*
X109324000Y-81044433D01*
X109324000Y-75868872D01*
X110049500Y-75868872D01*
X110049500Y-76131127D01*
X110071245Y-76296286D01*
X110083730Y-76391116D01*
X110151602Y-76644418D01*
X110151605Y-76644428D01*
X110251953Y-76886690D01*
X110251958Y-76886700D01*
X110383075Y-77113803D01*
X110542718Y-77321851D01*
X110542726Y-77321860D01*
X110728140Y-77507274D01*
X110728148Y-77507281D01*
X110936196Y-77666924D01*
X111163299Y-77798041D01*
X111163309Y-77798046D01*
X111289252Y-77850213D01*
X111405581Y-77898398D01*
X111658884Y-77966270D01*
X111918880Y-78000500D01*
X111918887Y-78000500D01*
X112181113Y-78000500D01*
X112181120Y-78000500D01*
X112441116Y-77966270D01*
X112694419Y-77898398D01*
X112936697Y-77798043D01*
X113163803Y-77666924D01*
X113371851Y-77507282D01*
X113371855Y-77507277D01*
X113371860Y-77507274D01*
X113557274Y-77321860D01*
X113557277Y-77321855D01*
X113557282Y-77321851D01*
X113716924Y-77113803D01*
X113848043Y-76886697D01*
X113948398Y-76644419D01*
X114016270Y-76391116D01*
X114050500Y-76131120D01*
X114050500Y-75868880D01*
X114016270Y-75608884D01*
X113948398Y-75355581D01*
X113907289Y-75256335D01*
X113848046Y-75113309D01*
X113848041Y-75113299D01*
X113716924Y-74886196D01*
X113557281Y-74678148D01*
X113557274Y-74678140D01*
X113371860Y-74492726D01*
X113371851Y-74492718D01*
X113163803Y-74333075D01*
X112936700Y-74201958D01*
X112936690Y-74201953D01*
X112694428Y-74101605D01*
X112694421Y-74101603D01*
X112694419Y-74101602D01*
X112441116Y-74033730D01*
X112383339Y-74026123D01*
X112181127Y-73999500D01*
X112181120Y-73999500D01*
X111918880Y-73999500D01*
X111918872Y-73999500D01*
X111687772Y-74029926D01*
X111658884Y-74033730D01*
X111534849Y-74066965D01*
X111405581Y-74101602D01*
X111405571Y-74101605D01*
X111163309Y-74201953D01*
X111163299Y-74201958D01*
X110936196Y-74333075D01*
X110728148Y-74492718D01*
X110542718Y-74678148D01*
X110383075Y-74886196D01*
X110251958Y-75113299D01*
X110251953Y-75113309D01*
X110151605Y-75355571D01*
X110151602Y-75355581D01*
X110097982Y-75555697D01*
X110083730Y-75608885D01*
X110049500Y-75868872D01*
X109324000Y-75868872D01*
X109324000Y-61718872D01*
X116099500Y-61718872D01*
X116099500Y-61981127D01*
X116124794Y-62173242D01*
X116133730Y-62241116D01*
X116201602Y-62494418D01*
X116201605Y-62494428D01*
X116301953Y-62736690D01*
X116301958Y-62736700D01*
X116433075Y-62963803D01*
X116592718Y-63171851D01*
X116592726Y-63171860D01*
X116778140Y-63357274D01*
X116778148Y-63357281D01*
X116778149Y-63357282D01*
X116826554Y-63394424D01*
X116986196Y-63516924D01*
X117213299Y-63648041D01*
X117213309Y-63648046D01*
X117455571Y-63748394D01*
X117455581Y-63748398D01*
X117708884Y-63816270D01*
X117968880Y-63850500D01*
X117968887Y-63850500D01*
X118231113Y-63850500D01*
X118231120Y-63850500D01*
X118491116Y-63816270D01*
X118744419Y-63748398D01*
X118986697Y-63648043D01*
X119213803Y-63516924D01*
X119421851Y-63357282D01*
X119421855Y-63357277D01*
X119421860Y-63357274D01*
X119607274Y-63171860D01*
X119607277Y-63171855D01*
X119607282Y-63171851D01*
X119687825Y-63066885D01*
X119744253Y-63025684D01*
X119813999Y-63021529D01*
X119874919Y-63055742D01*
X119907671Y-63117459D01*
X119910200Y-63142373D01*
X119910200Y-71339202D01*
X119890515Y-71406241D01*
X119873881Y-71426883D01*
X118897860Y-72402903D01*
X118836537Y-72436388D01*
X118766845Y-72431404D01*
X118762743Y-72429789D01*
X118663887Y-72388842D01*
X118663885Y-72388841D01*
X118663884Y-72388841D01*
X118598035Y-72371197D01*
X118442238Y-72329452D01*
X118404215Y-72324446D01*
X118214741Y-72299500D01*
X118214734Y-72299500D01*
X117985266Y-72299500D01*
X117985258Y-72299500D01*
X117768715Y-72328009D01*
X117757762Y-72329452D01*
X117664076Y-72354554D01*
X117536112Y-72388842D01*
X117324123Y-72476650D01*
X117324109Y-72476657D01*
X117125382Y-72591392D01*
X116943338Y-72731081D01*
X116781081Y-72893338D01*
X116641392Y-73075382D01*
X116526657Y-73274109D01*
X116526650Y-73274123D01*
X116438842Y-73486112D01*
X116379453Y-73707759D01*
X116379451Y-73707770D01*
X116349500Y-73935258D01*
X116349500Y-74164741D01*
X116370498Y-74324230D01*
X116379452Y-74392238D01*
X116408556Y-74500857D01*
X116438842Y-74613887D01*
X116526650Y-74825876D01*
X116526657Y-74825890D01*
X116641392Y-75024617D01*
X116781081Y-75206661D01*
X116781089Y-75206670D01*
X116943330Y-75368911D01*
X116943338Y-75368918D01*
X116943339Y-75368919D01*
X116970174Y-75389510D01*
X117125382Y-75508607D01*
X117125385Y-75508608D01*
X117125388Y-75508611D01*
X117324112Y-75623344D01*
X117324117Y-75623346D01*
X117324123Y-75623349D01*
X117415480Y-75661190D01*
X117536113Y-75711158D01*
X117757762Y-75770548D01*
X117985266Y-75800500D01*
X117985273Y-75800500D01*
X118214727Y-75800500D01*
X118214734Y-75800500D01*
X118442238Y-75770548D01*
X118663887Y-75711158D01*
X118875888Y-75623344D01*
X119074612Y-75508611D01*
X119256661Y-75368919D01*
X119256665Y-75368914D01*
X119256670Y-75368911D01*
X119418911Y-75206670D01*
X119418914Y-75206665D01*
X119418919Y-75206661D01*
X119558611Y-75024612D01*
X119673344Y-74825888D01*
X119761158Y-74613887D01*
X119820548Y-74392238D01*
X119850500Y-74164734D01*
X119850500Y-73935266D01*
X119820548Y-73707762D01*
X119761158Y-73486113D01*
X119720215Y-73387271D01*
X119712747Y-73317803D01*
X119744022Y-73255323D01*
X119747096Y-73252138D01*
X119944804Y-73054430D01*
X120991220Y-72008016D01*
X121070277Y-71871084D01*
X121111201Y-71718357D01*
X121111201Y-71560242D01*
X121111201Y-71552647D01*
X121111200Y-71552629D01*
X121111200Y-69949983D01*
X123249500Y-69949983D01*
X123249500Y-72050001D01*
X123249501Y-72050018D01*
X123260000Y-72152796D01*
X123260001Y-72152799D01*
X123315185Y-72319331D01*
X123315186Y-72319334D01*
X123407288Y-72468656D01*
X123531344Y-72592712D01*
X123680666Y-72684814D01*
X123847203Y-72739999D01*
X123949991Y-72750500D01*
X126050008Y-72750499D01*
X126152797Y-72739999D01*
X126319334Y-72684814D01*
X126468656Y-72592712D01*
X126592712Y-72468656D01*
X126684814Y-72319334D01*
X126739999Y-72152797D01*
X126750500Y-72050009D01*
X126750499Y-69949992D01*
X126739999Y-69847203D01*
X126684814Y-69680666D01*
X126592712Y-69531344D01*
X126468656Y-69407288D01*
X126375888Y-69350069D01*
X126319336Y-69315187D01*
X126319331Y-69315185D01*
X126289717Y-69305372D01*
X126152797Y-69260001D01*
X126152795Y-69260000D01*
X126050010Y-69249500D01*
X123949998Y-69249500D01*
X123949981Y-69249501D01*
X123847203Y-69260000D01*
X123847200Y-69260001D01*
X123680668Y-69315185D01*
X123680663Y-69315187D01*
X123531342Y-69407289D01*
X123407289Y-69531342D01*
X123315187Y-69680663D01*
X123315185Y-69680668D01*
X123300478Y-69725051D01*
X123260001Y-69847203D01*
X123260001Y-69847204D01*
X123260000Y-69847204D01*
X123249500Y-69949983D01*
X121111200Y-69949983D01*
X121111200Y-65885258D01*
X123249500Y-65885258D01*
X123249500Y-66114741D01*
X123274446Y-66304215D01*
X123279452Y-66342238D01*
X123299963Y-66418786D01*
X123338842Y-66563887D01*
X123426650Y-66775876D01*
X123426657Y-66775890D01*
X123474085Y-66858038D01*
X123539925Y-66972077D01*
X123541392Y-66974617D01*
X123681081Y-67156661D01*
X123681089Y-67156670D01*
X123843330Y-67318911D01*
X123843338Y-67318918D01*
X124025382Y-67458607D01*
X124025385Y-67458608D01*
X124025388Y-67458611D01*
X124224112Y-67573344D01*
X124224117Y-67573346D01*
X124224123Y-67573349D01*
X124297535Y-67603757D01*
X124436113Y-67661158D01*
X124657762Y-67720548D01*
X124885266Y-67750500D01*
X124885273Y-67750500D01*
X125114727Y-67750500D01*
X125114734Y-67750500D01*
X125342238Y-67720548D01*
X125563887Y-67661158D01*
X125775888Y-67573344D01*
X125974612Y-67458611D01*
X126156661Y-67318919D01*
X126156665Y-67318914D01*
X126156670Y-67318911D01*
X126318911Y-67156670D01*
X126318914Y-67156665D01*
X126318919Y-67156661D01*
X126458611Y-66974612D01*
X126573344Y-66775888D01*
X126661158Y-66563887D01*
X126720548Y-66342238D01*
X126750500Y-66114734D01*
X126750500Y-65885266D01*
X126720548Y-65657762D01*
X126661158Y-65436113D01*
X126611190Y-65315480D01*
X126573349Y-65224123D01*
X126573346Y-65224117D01*
X126573344Y-65224112D01*
X126458611Y-65025388D01*
X126458608Y-65025385D01*
X126458607Y-65025382D01*
X126318918Y-64843338D01*
X126318911Y-64843330D01*
X126156670Y-64681089D01*
X126156661Y-64681081D01*
X125974617Y-64541392D01*
X125775890Y-64426657D01*
X125775876Y-64426650D01*
X125563887Y-64338842D01*
X125342238Y-64279452D01*
X125304215Y-64274446D01*
X125114741Y-64249500D01*
X125114734Y-64249500D01*
X124885266Y-64249500D01*
X124885258Y-64249500D01*
X124668715Y-64278009D01*
X124657762Y-64279452D01*
X124620863Y-64289339D01*
X124436112Y-64338842D01*
X124224123Y-64426650D01*
X124224109Y-64426657D01*
X124025382Y-64541392D01*
X123843338Y-64681081D01*
X123681081Y-64843338D01*
X123541392Y-65025382D01*
X123426657Y-65224109D01*
X123426650Y-65224123D01*
X123338842Y-65436112D01*
X123279453Y-65657759D01*
X123279451Y-65657770D01*
X123249500Y-65885258D01*
X121111200Y-65885258D01*
X121111200Y-61511278D01*
X121130885Y-61444239D01*
X121183689Y-61398484D01*
X121252847Y-61388540D01*
X121316403Y-61417565D01*
X121352906Y-61472275D01*
X121365185Y-61509333D01*
X121365187Y-61509337D01*
X121457286Y-61658651D01*
X121457289Y-61658655D01*
X121581344Y-61782710D01*
X121581348Y-61782713D01*
X121730662Y-61874812D01*
X121730664Y-61874813D01*
X121730666Y-61874814D01*
X121897203Y-61929999D01*
X121999992Y-61940500D01*
X121999997Y-61940500D01*
X124000003Y-61940500D01*
X124000008Y-61940500D01*
X124102797Y-61929999D01*
X124269334Y-61874814D01*
X124418655Y-61782711D01*
X124542711Y-61658655D01*
X124634814Y-61509334D01*
X124689999Y-61342797D01*
X124700500Y-61240008D01*
X124700500Y-59239992D01*
X124689999Y-59137203D01*
X124634814Y-58970666D01*
X124633614Y-58968721D01*
X124542713Y-58821348D01*
X124542710Y-58821344D01*
X124418655Y-58697289D01*
X124418651Y-58697286D01*
X124269337Y-58605187D01*
X124269335Y-58605186D01*
X124186065Y-58577593D01*
X124102797Y-58550001D01*
X124102795Y-58550000D01*
X124000015Y-58539500D01*
X124000008Y-58539500D01*
X121999992Y-58539500D01*
X121999984Y-58539500D01*
X121897204Y-58550000D01*
X121897203Y-58550001D01*
X121730664Y-58605186D01*
X121730662Y-58605187D01*
X121581348Y-58697286D01*
X121581344Y-58697289D01*
X121457289Y-58821344D01*
X121457286Y-58821348D01*
X121365187Y-58970662D01*
X121365186Y-58970664D01*
X121352906Y-59007725D01*
X121313133Y-59065170D01*
X121248618Y-59091993D01*
X121179842Y-59079678D01*
X121128642Y-59032135D01*
X121111200Y-58968721D01*
X121111200Y-57949396D01*
X121130885Y-57882357D01*
X121147514Y-57861719D01*
X122240406Y-56768827D01*
X122301729Y-56735343D01*
X122371421Y-56740327D01*
X122375532Y-56741944D01*
X122452219Y-56773710D01*
X122667537Y-56831404D01*
X122888543Y-56860500D01*
X122888550Y-56860500D01*
X123111450Y-56860500D01*
X123111457Y-56860500D01*
X123332463Y-56831404D01*
X123547781Y-56773710D01*
X123753726Y-56688405D01*
X123946774Y-56576948D01*
X124123624Y-56441247D01*
X124281247Y-56283624D01*
X124416948Y-56106774D01*
X124528405Y-55913726D01*
X124613710Y-55707781D01*
X124671404Y-55492463D01*
X124700500Y-55271457D01*
X124700500Y-55048543D01*
X124671404Y-54827537D01*
X124613710Y-54612219D01*
X124528405Y-54406274D01*
X124416948Y-54213226D01*
X124373901Y-54157126D01*
X124281248Y-54036377D01*
X124281242Y-54036370D01*
X124123629Y-53878757D01*
X124123622Y-53878751D01*
X123946782Y-53743058D01*
X123946780Y-53743057D01*
X123946774Y-53743052D01*
X123753726Y-53631595D01*
X123753722Y-53631593D01*
X123547790Y-53546293D01*
X123547783Y-53546291D01*
X123547781Y-53546290D01*
X123332463Y-53488596D01*
X123332457Y-53488595D01*
X123332452Y-53488594D01*
X123111466Y-53459501D01*
X123111463Y-53459500D01*
X123111457Y-53459500D01*
X122888543Y-53459500D01*
X122888537Y-53459500D01*
X122888533Y-53459501D01*
X122667547Y-53488594D01*
X122667540Y-53488595D01*
X122667537Y-53488596D01*
X122452219Y-53546290D01*
X122452209Y-53546293D01*
X122246277Y-53631593D01*
X122246273Y-53631595D01*
X122053226Y-53743052D01*
X122053217Y-53743058D01*
X121876377Y-53878751D01*
X121876370Y-53878757D01*
X121718757Y-54036370D01*
X121718751Y-54036377D01*
X121583058Y-54213217D01*
X121583052Y-54213226D01*
X121471595Y-54406273D01*
X121471593Y-54406277D01*
X121386293Y-54612209D01*
X121386290Y-54612219D01*
X121347249Y-54757925D01*
X121328597Y-54827534D01*
X121328594Y-54827547D01*
X121299501Y-55048533D01*
X121299500Y-55048549D01*
X121299500Y-55271450D01*
X121299501Y-55271466D01*
X121328594Y-55492452D01*
X121328595Y-55492457D01*
X121328596Y-55492463D01*
X121366651Y-55634486D01*
X121386290Y-55707781D01*
X121418051Y-55784459D01*
X121425520Y-55853928D01*
X121394245Y-55916407D01*
X121391171Y-55919592D01*
X120141986Y-57168778D01*
X120030181Y-57280582D01*
X120030179Y-57280585D01*
X119980061Y-57367394D01*
X119980059Y-57367396D01*
X119951125Y-57417509D01*
X119951124Y-57417510D01*
X119935244Y-57476772D01*
X119910199Y-57570243D01*
X119910199Y-57570245D01*
X119910199Y-57738346D01*
X119910200Y-57738359D01*
X119910200Y-60557626D01*
X119890515Y-60624665D01*
X119837711Y-60670420D01*
X119768553Y-60680364D01*
X119704997Y-60651339D01*
X119687825Y-60633113D01*
X119607281Y-60528148D01*
X119607274Y-60528140D01*
X119421860Y-60342726D01*
X119421851Y-60342718D01*
X119213803Y-60183075D01*
X118986700Y-60051958D01*
X118986690Y-60051953D01*
X118744428Y-59951605D01*
X118744421Y-59951603D01*
X118744419Y-59951602D01*
X118491116Y-59883730D01*
X118433339Y-59876123D01*
X118231127Y-59849500D01*
X118231120Y-59849500D01*
X117968880Y-59849500D01*
X117968872Y-59849500D01*
X117737772Y-59879926D01*
X117708884Y-59883730D01*
X117522195Y-59933753D01*
X117455581Y-59951602D01*
X117455571Y-59951605D01*
X117213309Y-60051953D01*
X117213299Y-60051958D01*
X116986196Y-60183075D01*
X116778148Y-60342718D01*
X116592718Y-60528148D01*
X116433075Y-60736196D01*
X116301958Y-60963299D01*
X116301953Y-60963309D01*
X116201605Y-61205571D01*
X116201602Y-61205581D01*
X116134758Y-61455050D01*
X116133730Y-61458885D01*
X116099500Y-61718872D01*
X109324000Y-61718872D01*
X109324000Y-56938059D01*
X109324001Y-56938046D01*
X109324001Y-56769945D01*
X109324001Y-56769943D01*
X109283077Y-56617215D01*
X109283075Y-56617212D01*
X109283075Y-56617210D01*
X109283074Y-56617209D01*
X109251559Y-56562624D01*
X109251558Y-56562623D01*
X109243047Y-56547882D01*
X111345669Y-56547882D01*
X111345670Y-56547883D01*
X111371059Y-56566329D01*
X111539362Y-56652085D01*
X111718997Y-56710451D01*
X111905553Y-56740000D01*
X112094447Y-56740000D01*
X112281002Y-56710451D01*
X112460637Y-56652085D01*
X112628937Y-56566331D01*
X112654328Y-56547883D01*
X112654328Y-56547882D01*
X112000001Y-55893554D01*
X112000000Y-55893554D01*
X111345669Y-56547882D01*
X109243047Y-56547882D01*
X109239950Y-56542517D01*
X109204020Y-56480284D01*
X109092216Y-56368480D01*
X109092215Y-56368479D01*
X109087885Y-56364149D01*
X109087874Y-56364139D01*
X108169287Y-55445552D01*
X110800000Y-55445552D01*
X110800000Y-55634447D01*
X110829548Y-55821002D01*
X110887914Y-56000637D01*
X110973666Y-56168933D01*
X110992116Y-56194328D01*
X111646446Y-55540000D01*
X111646446Y-55539999D01*
X111600369Y-55493922D01*
X111650000Y-55493922D01*
X111650000Y-55586078D01*
X111673852Y-55675095D01*
X111719930Y-55754905D01*
X111785095Y-55820070D01*
X111864905Y-55866148D01*
X111953922Y-55890000D01*
X112046078Y-55890000D01*
X112135095Y-55866148D01*
X112214905Y-55820070D01*
X112280070Y-55754905D01*
X112326148Y-55675095D01*
X112350000Y-55586078D01*
X112350000Y-55539999D01*
X112353554Y-55539999D01*
X112353554Y-55540000D01*
X113007882Y-56194328D01*
X113007883Y-56194328D01*
X113026331Y-56168937D01*
X113112085Y-56000637D01*
X113170451Y-55821002D01*
X113200000Y-55634447D01*
X113200000Y-55445552D01*
X113170451Y-55258997D01*
X113112085Y-55079362D01*
X113026329Y-54911059D01*
X113007883Y-54885670D01*
X113007882Y-54885669D01*
X112353554Y-55539999D01*
X112350000Y-55539999D01*
X112350000Y-55493922D01*
X112326148Y-55404905D01*
X112280070Y-55325095D01*
X112214905Y-55259930D01*
X112135095Y-55213852D01*
X112046078Y-55190000D01*
X111953922Y-55190000D01*
X111864905Y-55213852D01*
X111785095Y-55259930D01*
X111719930Y-55325095D01*
X111673852Y-55404905D01*
X111650000Y-55493922D01*
X111600369Y-55493922D01*
X110992116Y-54885669D01*
X110992116Y-54885670D01*
X110973669Y-54911060D01*
X110887914Y-55079362D01*
X110829548Y-55258997D01*
X110800000Y-55445552D01*
X108169287Y-55445552D01*
X108061919Y-55338184D01*
X108028434Y-55276861D01*
X108025600Y-55250503D01*
X108025600Y-54532116D01*
X111345669Y-54532116D01*
X112000000Y-55186446D01*
X112000001Y-55186446D01*
X112654328Y-54532116D01*
X112628933Y-54513666D01*
X112460637Y-54427914D01*
X112281002Y-54369548D01*
X112094447Y-54340000D01*
X111905553Y-54340000D01*
X111718997Y-54369548D01*
X111539362Y-54427914D01*
X111371060Y-54513669D01*
X111345670Y-54532116D01*
X111345669Y-54532116D01*
X108025600Y-54532116D01*
X108025600Y-53302135D01*
X114849500Y-53302135D01*
X114849500Y-54697870D01*
X114849501Y-54697876D01*
X114855908Y-54757483D01*
X114906202Y-54892328D01*
X114906206Y-54892335D01*
X114992452Y-55007544D01*
X114992455Y-55007547D01*
X115107664Y-55093793D01*
X115107671Y-55093797D01*
X115242517Y-55144091D01*
X115242516Y-55144091D01*
X115249444Y-55144835D01*
X115302127Y-55150500D01*
X116697872Y-55150499D01*
X116757483Y-55144091D01*
X116892331Y-55093796D01*
X117007546Y-55007546D01*
X117093796Y-54892331D01*
X117144091Y-54757483D01*
X117150500Y-54697873D01*
X117150499Y-54157124D01*
X117170183Y-54090087D01*
X117222987Y-54044332D01*
X117292146Y-54034388D01*
X117355702Y-54063413D01*
X117393476Y-54122191D01*
X117396972Y-54137728D01*
X117417829Y-54269410D01*
X117473787Y-54441636D01*
X117473788Y-54441639D01*
X117529664Y-54551300D01*
X117548241Y-54587759D01*
X117556006Y-54602997D01*
X117662441Y-54749494D01*
X117662445Y-54749499D01*
X117790500Y-54877554D01*
X117790505Y-54877558D01*
X117888714Y-54948910D01*
X117937006Y-54983996D01*
X118042484Y-55037740D01*
X118098360Y-55066211D01*
X118098363Y-55066212D01*
X118138239Y-55079168D01*
X118270591Y-55122171D01*
X118353429Y-55135291D01*
X118449449Y-55150500D01*
X118449454Y-55150500D01*
X118630551Y-55150500D01*
X118717259Y-55136765D01*
X118809409Y-55122171D01*
X118981639Y-55066211D01*
X119142994Y-54983996D01*
X119289501Y-54877553D01*
X119417553Y-54749501D01*
X119523996Y-54602994D01*
X119606211Y-54441639D01*
X119662171Y-54269409D01*
X119679955Y-54157126D01*
X119690500Y-54090551D01*
X119690500Y-53909448D01*
X119674019Y-53805397D01*
X119662171Y-53730591D01*
X119618455Y-53596045D01*
X119606212Y-53558363D01*
X119606211Y-53558360D01*
X119555838Y-53459500D01*
X119523996Y-53397006D01*
X119455055Y-53302116D01*
X119417558Y-53250505D01*
X119417554Y-53250500D01*
X119289499Y-53122445D01*
X119289494Y-53122441D01*
X119142997Y-53016006D01*
X119142996Y-53016005D01*
X119142994Y-53016004D01*
X119091300Y-52989664D01*
X118981639Y-52933788D01*
X118981636Y-52933787D01*
X118809410Y-52877829D01*
X118630551Y-52849500D01*
X118630546Y-52849500D01*
X118544500Y-52849500D01*
X118477461Y-52829815D01*
X118431706Y-52777011D01*
X118420500Y-52725500D01*
X118420500Y-52639448D01*
X118404019Y-52535397D01*
X118392171Y-52460591D01*
X118336211Y-52288361D01*
X118336211Y-52288360D01*
X118291575Y-52200759D01*
X118253996Y-52127006D01*
X118185438Y-52032643D01*
X118147558Y-51980505D01*
X118147554Y-51980500D01*
X118019499Y-51852445D01*
X118019494Y-51852441D01*
X117872997Y-51746006D01*
X117872996Y-51746005D01*
X117872994Y-51746004D01*
X117809557Y-51713681D01*
X117711639Y-51663788D01*
X117711636Y-51663787D01*
X117539410Y-51607829D01*
X117360551Y-51579500D01*
X117360546Y-51579500D01*
X117179454Y-51579500D01*
X117179449Y-51579500D01*
X117000589Y-51607829D01*
X116828363Y-51663787D01*
X116828360Y-51663788D01*
X116667002Y-51746006D01*
X116520505Y-51852441D01*
X116520500Y-51852445D01*
X116392445Y-51980500D01*
X116392441Y-51980505D01*
X116286006Y-52127002D01*
X116203788Y-52288360D01*
X116203787Y-52288363D01*
X116147829Y-52460589D01*
X116119500Y-52639448D01*
X116119500Y-52725500D01*
X116099815Y-52792539D01*
X116047011Y-52838294D01*
X115995500Y-52849500D01*
X115302129Y-52849500D01*
X115302123Y-52849501D01*
X115242516Y-52855908D01*
X115107671Y-52906202D01*
X115107664Y-52906206D01*
X114992455Y-52992452D01*
X114992452Y-52992455D01*
X114906206Y-53107664D01*
X114906202Y-53107671D01*
X114855908Y-53242517D01*
X114849501Y-53302116D01*
X114849500Y-53302135D01*
X108025600Y-53302135D01*
X108025600Y-51974160D01*
X108025601Y-51974147D01*
X108025601Y-51806044D01*
X108025601Y-51806043D01*
X107984677Y-51653316D01*
X107984673Y-51653309D01*
X107905624Y-51516390D01*
X107905618Y-51516382D01*
X107560176Y-51170940D01*
X107210065Y-50820830D01*
X107176581Y-50759508D01*
X107175274Y-50713752D01*
X107179003Y-50690212D01*
X107191585Y-50610769D01*
X107200500Y-50554486D01*
X107200500Y-50365513D01*
X110799500Y-50365513D01*
X110799500Y-50554486D01*
X110829059Y-50741118D01*
X110887454Y-50920836D01*
X110957022Y-51057370D01*
X110973240Y-51089199D01*
X111084310Y-51242073D01*
X111217927Y-51375690D01*
X111370801Y-51486760D01*
X111445751Y-51524949D01*
X111539163Y-51572545D01*
X111539165Y-51572545D01*
X111539168Y-51572547D01*
X111635497Y-51603846D01*
X111718881Y-51630940D01*
X111905514Y-51660500D01*
X111905519Y-51660500D01*
X112094486Y-51660500D01*
X112281118Y-51630940D01*
X112311753Y-51620986D01*
X112460832Y-51572547D01*
X112629199Y-51486760D01*
X112782073Y-51375690D01*
X112915690Y-51242073D01*
X113026760Y-51089199D01*
X113112547Y-50920832D01*
X113170940Y-50741118D01*
X113188666Y-50629199D01*
X113200500Y-50554486D01*
X113200500Y-50365513D01*
X113170940Y-50178881D01*
X113112545Y-49999163D01*
X113026759Y-49830800D01*
X112915690Y-49677927D01*
X112782073Y-49544310D01*
X112629199Y-49433240D01*
X112460836Y-49347454D01*
X112281118Y-49289059D01*
X112094486Y-49259500D01*
X112094481Y-49259500D01*
X111905519Y-49259500D01*
X111905514Y-49259500D01*
X111718881Y-49289059D01*
X111539163Y-49347454D01*
X111370800Y-49433240D01*
X111283579Y-49496610D01*
X111217927Y-49544310D01*
X111217925Y-49544312D01*
X111217924Y-49544312D01*
X111084312Y-49677924D01*
X111084312Y-49677925D01*
X111084310Y-49677927D01*
X111036610Y-49743579D01*
X110973240Y-49830800D01*
X110887454Y-49999163D01*
X110829059Y-50178881D01*
X110799500Y-50365513D01*
X107200500Y-50365513D01*
X107170940Y-50178881D01*
X107112545Y-49999163D01*
X107026759Y-49830800D01*
X106915690Y-49677927D01*
X106782073Y-49544310D01*
X106629199Y-49433240D01*
X106460836Y-49347454D01*
X106281118Y-49289059D01*
X106094486Y-49259500D01*
X106094481Y-49259500D01*
X105905519Y-49259500D01*
X105905514Y-49259500D01*
X105718881Y-49289059D01*
X105539163Y-49347454D01*
X105370800Y-49433240D01*
X105283579Y-49496610D01*
X105217927Y-49544310D01*
X105217925Y-49544312D01*
X105217924Y-49544312D01*
X105084312Y-49677924D01*
X105084312Y-49677925D01*
X105084310Y-49677927D01*
X105036610Y-49743579D01*
X104973240Y-49830800D01*
X104887454Y-49999163D01*
X104829059Y-50178881D01*
X104799500Y-50365513D01*
X104799500Y-50554486D01*
X104829059Y-50741118D01*
X104887454Y-50920836D01*
X104957022Y-51057370D01*
X104973240Y-51089199D01*
X105084310Y-51242073D01*
X105217927Y-51375690D01*
X105370801Y-51486760D01*
X105445751Y-51524949D01*
X105539163Y-51572545D01*
X105539165Y-51572545D01*
X105539168Y-51572547D01*
X105635497Y-51603846D01*
X105718881Y-51630940D01*
X105905514Y-51660500D01*
X105905519Y-51660500D01*
X106094486Y-51660500D01*
X106211017Y-51642042D01*
X106253753Y-51635274D01*
X106323045Y-51644228D01*
X106360831Y-51670066D01*
X106788281Y-52097516D01*
X106821766Y-52158839D01*
X106824600Y-52185197D01*
X106824600Y-54411843D01*
X106804915Y-54478882D01*
X106752111Y-54524637D01*
X106682953Y-54534581D01*
X106634010Y-54514716D01*
X106633355Y-54515786D01*
X106629207Y-54513244D01*
X106460836Y-54427454D01*
X106281118Y-54369059D01*
X106094486Y-54339500D01*
X106094481Y-54339500D01*
X105905519Y-54339500D01*
X105905514Y-54339500D01*
X105718881Y-54369059D01*
X105539163Y-54427454D01*
X105370800Y-54513240D01*
X105316873Y-54552421D01*
X105217927Y-54624310D01*
X105217925Y-54624312D01*
X105217924Y-54624312D01*
X105084312Y-54757924D01*
X105084312Y-54757925D01*
X105084310Y-54757927D01*
X105040001Y-54818913D01*
X104973240Y-54910800D01*
X104887454Y-55079163D01*
X104829059Y-55258881D01*
X104799500Y-55445513D01*
X104799500Y-55634486D01*
X104829059Y-55821118D01*
X104887454Y-56000836D01*
X104963203Y-56149500D01*
X104973240Y-56169199D01*
X105084310Y-56322073D01*
X105217927Y-56455690D01*
X105348386Y-56550474D01*
X105351725Y-56554804D01*
X105356703Y-56557078D01*
X105372835Y-56582180D01*
X105391051Y-56605803D01*
X105392303Y-56612474D01*
X105394477Y-56615856D01*
X105399500Y-56650791D01*
X105399500Y-56673502D01*
X105379815Y-56740541D01*
X105363181Y-56761183D01*
X102403030Y-59721333D01*
X102341707Y-59754818D01*
X102272015Y-59749834D01*
X102216082Y-59707962D01*
X102204864Y-59689947D01*
X102179364Y-59639901D01*
X102155051Y-59592184D01*
X102123710Y-59549046D01*
X102030109Y-59420213D01*
X101879786Y-59269890D01*
X101707820Y-59144951D01*
X101707115Y-59144591D01*
X101699054Y-59140485D01*
X101648259Y-59092512D01*
X101631463Y-59024692D01*
X101653999Y-58958556D01*
X101699054Y-58919515D01*
X101707816Y-58915051D01*
X101768668Y-58870840D01*
X101879786Y-58790109D01*
X101879788Y-58790106D01*
X101879792Y-58790104D01*
X102030104Y-58639792D01*
X102030106Y-58639788D01*
X102030109Y-58639786D01*
X102155048Y-58467820D01*
X102155047Y-58467820D01*
X102155051Y-58467816D01*
X102251557Y-58278412D01*
X102317246Y-58076243D01*
X102350500Y-57866287D01*
X102350500Y-57653713D01*
X102317246Y-57443757D01*
X102251557Y-57241588D01*
X102155051Y-57052184D01*
X102155049Y-57052181D01*
X102155048Y-57052179D01*
X102030109Y-56880213D01*
X101879786Y-56729890D01*
X101707820Y-56604951D01*
X101702279Y-56602128D01*
X101699054Y-56600485D01*
X101648259Y-56552512D01*
X101631463Y-56484692D01*
X101653999Y-56418556D01*
X101699054Y-56379515D01*
X101707816Y-56375051D01*
X101780733Y-56322074D01*
X101879786Y-56250109D01*
X101879788Y-56250106D01*
X101879792Y-56250104D01*
X102030104Y-56099792D01*
X102030106Y-56099788D01*
X102030109Y-56099786D01*
X102155048Y-55927820D01*
X102155047Y-55927820D01*
X102155051Y-55927816D01*
X102251557Y-55738412D01*
X102317246Y-55536243D01*
X102350500Y-55326287D01*
X102350500Y-55113713D01*
X102317246Y-54903757D01*
X102251557Y-54701588D01*
X102155051Y-54512184D01*
X102155049Y-54512181D01*
X102155048Y-54512179D01*
X102030109Y-54340213D01*
X101879786Y-54189890D01*
X101707820Y-54064951D01*
X101704801Y-54063413D01*
X101699054Y-54060485D01*
X101648259Y-54012512D01*
X101631463Y-53944692D01*
X101653999Y-53878556D01*
X101699054Y-53839515D01*
X101707816Y-53835051D01*
X101729789Y-53819086D01*
X101879786Y-53710109D01*
X101879788Y-53710106D01*
X101879792Y-53710104D01*
X102030104Y-53559792D01*
X102030106Y-53559788D01*
X102030109Y-53559786D01*
X102155048Y-53387820D01*
X102155047Y-53387820D01*
X102155051Y-53387816D01*
X102251557Y-53198412D01*
X102317246Y-52996243D01*
X102350500Y-52786287D01*
X102350500Y-52573713D01*
X102317246Y-52363757D01*
X102251557Y-52161588D01*
X102155051Y-51972184D01*
X102155049Y-51972181D01*
X102155048Y-51972179D01*
X102030109Y-51800213D01*
X101879786Y-51649890D01*
X101707820Y-51524951D01*
X101518414Y-51428444D01*
X101518413Y-51428443D01*
X101518412Y-51428443D01*
X101316243Y-51362754D01*
X101316241Y-51362753D01*
X101316240Y-51362753D01*
X101154957Y-51337208D01*
X101106287Y-51329500D01*
X100893713Y-51329500D01*
X100845042Y-51337208D01*
X100683760Y-51362753D01*
X100481585Y-51428444D01*
X100430795Y-51454323D01*
X100362125Y-51467219D01*
X100297385Y-51440942D01*
X100257128Y-51383836D01*
X100250500Y-51343838D01*
X100250500Y-44860199D01*
X100270185Y-44793160D01*
X100279471Y-44780664D01*
X100405048Y-44607820D01*
X100405047Y-44607820D01*
X100405051Y-44607816D01*
X100501557Y-44418412D01*
X100567246Y-44216243D01*
X100600500Y-44006287D01*
X100600500Y-43493713D01*
X100567246Y-43283757D01*
X100501557Y-43081588D01*
X100467620Y-43014983D01*
X105964500Y-43014983D01*
X105964500Y-44615001D01*
X105964501Y-44615018D01*
X105975000Y-44717796D01*
X105975001Y-44717799D01*
X106009031Y-44820493D01*
X106030186Y-44884334D01*
X106122288Y-45033656D01*
X106246344Y-45157712D01*
X106395666Y-45249814D01*
X106562203Y-45304999D01*
X106664991Y-45315500D01*
X107965008Y-45315499D01*
X108067797Y-45304999D01*
X108234334Y-45249814D01*
X108383656Y-45157712D01*
X108507712Y-45033656D01*
X108599814Y-44884334D01*
X108599814Y-44884331D01*
X108603448Y-44878441D01*
X108655395Y-44831716D01*
X108724358Y-44820493D01*
X108788440Y-44848336D01*
X108796668Y-44855856D01*
X108935535Y-44994723D01*
X108935540Y-44994727D01*
X109107442Y-45119620D01*
X109296782Y-45216095D01*
X109498871Y-45281757D01*
X109565000Y-45292231D01*
X109565000Y-44248012D01*
X109622007Y-44280925D01*
X109749174Y-44315000D01*
X109880826Y-44315000D01*
X110007993Y-44280925D01*
X110065000Y-44248012D01*
X110065000Y-45292230D01*
X110131126Y-45281757D01*
X110131129Y-45281757D01*
X110333217Y-45216095D01*
X110522557Y-45119620D01*
X110694459Y-44994727D01*
X110694464Y-44994723D01*
X110844723Y-44844464D01*
X110844727Y-44844459D01*
X110969620Y-44672557D01*
X111066095Y-44483217D01*
X111131757Y-44281130D01*
X111131757Y-44281127D01*
X111165000Y-44071246D01*
X111165000Y-44065000D01*
X110248012Y-44065000D01*
X110280925Y-44007993D01*
X110315000Y-43880826D01*
X110315000Y-43749174D01*
X110280925Y-43622007D01*
X110248012Y-43565000D01*
X111165000Y-43565000D01*
X111165000Y-43558753D01*
X111131757Y-43348872D01*
X111131757Y-43348869D01*
X111066095Y-43146782D01*
X110969620Y-42957442D01*
X110844727Y-42785540D01*
X110844723Y-42785535D01*
X110694464Y-42635276D01*
X110694459Y-42635272D01*
X110522557Y-42510379D01*
X110333215Y-42413903D01*
X110131124Y-42348241D01*
X110065000Y-42337768D01*
X110065000Y-43381988D01*
X110007993Y-43349075D01*
X109880826Y-43315000D01*
X109749174Y-43315000D01*
X109622007Y-43349075D01*
X109565000Y-43381988D01*
X109565000Y-42337768D01*
X109564999Y-42337768D01*
X109498875Y-42348241D01*
X109296784Y-42413903D01*
X109107442Y-42510379D01*
X108935541Y-42635271D01*
X108796668Y-42774144D01*
X108735345Y-42807628D01*
X108665653Y-42802644D01*
X108609720Y-42760772D01*
X108603448Y-42751558D01*
X108584114Y-42720213D01*
X108507712Y-42596344D01*
X108383656Y-42472288D01*
X108234334Y-42380186D01*
X108067797Y-42325001D01*
X108067795Y-42325000D01*
X107965010Y-42314500D01*
X106664998Y-42314500D01*
X106664981Y-42314501D01*
X106562203Y-42325000D01*
X106562200Y-42325001D01*
X106395668Y-42380185D01*
X106395663Y-42380187D01*
X106246342Y-42472289D01*
X106122289Y-42596342D01*
X106030187Y-42745663D01*
X106030185Y-42745668D01*
X106025180Y-42760772D01*
X105975001Y-42912203D01*
X105975001Y-42912204D01*
X105975000Y-42912204D01*
X105964500Y-43014983D01*
X100467620Y-43014983D01*
X100405051Y-42892184D01*
X100405049Y-42892181D01*
X100405048Y-42892179D01*
X100280109Y-42720213D01*
X100129786Y-42569890D01*
X99957820Y-42444951D01*
X99768414Y-42348444D01*
X99768413Y-42348443D01*
X99768412Y-42348443D01*
X99566243Y-42282754D01*
X99566241Y-42282753D01*
X99566240Y-42282753D01*
X99404957Y-42257208D01*
X99356287Y-42249500D01*
X99143713Y-42249500D01*
X99095042Y-42257208D01*
X98933760Y-42282753D01*
X98731585Y-42348444D01*
X98542179Y-42444951D01*
X98370215Y-42569889D01*
X98231398Y-42708706D01*
X98170075Y-42742190D01*
X98100383Y-42737206D01*
X98044450Y-42695334D01*
X98038178Y-42686120D01*
X97942712Y-42531344D01*
X97818657Y-42407289D01*
X97818656Y-42407288D01*
X97722925Y-42348241D01*
X97669336Y-42315187D01*
X97669331Y-42315185D01*
X97667264Y-42314500D01*
X97502797Y-42260001D01*
X97502795Y-42260000D01*
X97400010Y-42249500D01*
X96099998Y-42249500D01*
X96099981Y-42249501D01*
X95997203Y-42260000D01*
X95997200Y-42260001D01*
X95830668Y-42315185D01*
X95830663Y-42315187D01*
X95681342Y-42407289D01*
X95557289Y-42531342D01*
X95465187Y-42680663D01*
X95465185Y-42680668D01*
X95441695Y-42751558D01*
X95410001Y-42847203D01*
X95410001Y-42847204D01*
X95410000Y-42847204D01*
X95399500Y-42949983D01*
X95399500Y-44550001D01*
X95399501Y-44550018D01*
X95410000Y-44652796D01*
X95410001Y-44652799D01*
X95465185Y-44819331D01*
X95465187Y-44819336D01*
X95480683Y-44844459D01*
X95557288Y-44968656D01*
X95681344Y-45092712D01*
X95830666Y-45184814D01*
X95997203Y-45239999D01*
X96099991Y-45250500D01*
X97400008Y-45250499D01*
X97502797Y-45239999D01*
X97669334Y-45184814D01*
X97818656Y-45092712D01*
X97942712Y-44968656D01*
X98019961Y-44843413D01*
X98071909Y-44796689D01*
X98140871Y-44785466D01*
X98204953Y-44813309D01*
X98243810Y-44871378D01*
X98249500Y-44908510D01*
X98249500Y-53295217D01*
X98229815Y-53362256D01*
X98177011Y-53408011D01*
X98107853Y-53417955D01*
X98044297Y-53388930D01*
X98037819Y-53382898D01*
X90117101Y-45462181D01*
X90083616Y-45400858D01*
X90088600Y-45331166D01*
X90130472Y-45275233D01*
X90195936Y-45250816D01*
X90204782Y-45250500D01*
X90356286Y-45250500D01*
X90356287Y-45250500D01*
X90566243Y-45217246D01*
X90768412Y-45151557D01*
X90957816Y-45055051D01*
X90992146Y-45030109D01*
X91129786Y-44930109D01*
X91129788Y-44930106D01*
X91129792Y-44930104D01*
X91280104Y-44779792D01*
X91280106Y-44779788D01*
X91280109Y-44779786D01*
X91405048Y-44607820D01*
X91405047Y-44607820D01*
X91405051Y-44607816D01*
X91501557Y-44418412D01*
X91567246Y-44216243D01*
X91600500Y-44006287D01*
X91600500Y-43493713D01*
X91567246Y-43283757D01*
X91501557Y-43081588D01*
X91405051Y-42892184D01*
X91405049Y-42892181D01*
X91405048Y-42892179D01*
X91280109Y-42720213D01*
X91129786Y-42569890D01*
X90957820Y-42444951D01*
X90768414Y-42348444D01*
X90768413Y-42348443D01*
X90768412Y-42348443D01*
X90566243Y-42282754D01*
X90566241Y-42282753D01*
X90566240Y-42282753D01*
X90404957Y-42257208D01*
X90356287Y-42249500D01*
X90143713Y-42249500D01*
X90095042Y-42257208D01*
X89933760Y-42282753D01*
X89731585Y-42348444D01*
X89542179Y-42444951D01*
X89370215Y-42569889D01*
X89231398Y-42708706D01*
X89170075Y-42742190D01*
X89100383Y-42737206D01*
X89044450Y-42695334D01*
X89038178Y-42686120D01*
X88942712Y-42531344D01*
X88818657Y-42407289D01*
X88818656Y-42407288D01*
X88722925Y-42348241D01*
X88669336Y-42315187D01*
X88669331Y-42315185D01*
X88667264Y-42314500D01*
X88502797Y-42260001D01*
X88502795Y-42260000D01*
X88400010Y-42249500D01*
X87099998Y-42249500D01*
X87099981Y-42249501D01*
X86997203Y-42260000D01*
X86997200Y-42260001D01*
X86830668Y-42315185D01*
X86830663Y-42315187D01*
X86681342Y-42407289D01*
X86557289Y-42531342D01*
X86465187Y-42680663D01*
X86465185Y-42680668D01*
X86441695Y-42751558D01*
X86410001Y-42847203D01*
X86410001Y-42847204D01*
X86410000Y-42847204D01*
X86399500Y-42949983D01*
X86399500Y-44550001D01*
X86399501Y-44550018D01*
X86410000Y-44652796D01*
X86410001Y-44652799D01*
X86465185Y-44819331D01*
X86465187Y-44819336D01*
X86480683Y-44844459D01*
X86557288Y-44968656D01*
X86681344Y-45092712D01*
X86830666Y-45184814D01*
X86997203Y-45239999D01*
X87028914Y-45243238D01*
X87051694Y-45252532D01*
X87075736Y-45257762D01*
X87089182Y-45267827D01*
X87093605Y-45269632D01*
X87103991Y-45278912D01*
X87112218Y-45287139D01*
X87112219Y-45287139D01*
X87119286Y-45294206D01*
X89671588Y-47846508D01*
X89705073Y-47907831D01*
X89700089Y-47977523D01*
X89658217Y-48033456D01*
X89652798Y-48037291D01*
X89532218Y-48117860D01*
X89532214Y-48117863D01*
X89392863Y-48257214D01*
X89392860Y-48257218D01*
X89283371Y-48421079D01*
X89283364Y-48421092D01*
X89207950Y-48603160D01*
X89207947Y-48603170D01*
X89169500Y-48796456D01*
X89169500Y-49568542D01*
X89177647Y-49609501D01*
X89184149Y-49642184D01*
X89207949Y-49761836D01*
X89210592Y-49768216D01*
X89214681Y-49778089D01*
X89214683Y-49778095D01*
X89283364Y-49943907D01*
X89283371Y-49943920D01*
X89392859Y-50107780D01*
X89392860Y-50107781D01*
X89392861Y-50107782D01*
X89496997Y-50211918D01*
X89562218Y-50277139D01*
X89562220Y-50277140D01*
X89569290Y-50284210D01*
X99613576Y-60328496D01*
X99647061Y-60389819D01*
X99649350Y-60405344D01*
X99682753Y-60616239D01*
X99682754Y-60616243D01*
X99748443Y-60818412D01*
X99841562Y-61001169D01*
X99844951Y-61007819D01*
X99899935Y-61083499D01*
X99923415Y-61149305D01*
X99907589Y-61217359D01*
X99887298Y-61244065D01*
X98169286Y-62962078D01*
X98057482Y-63073881D01*
X98057478Y-63073887D01*
X98009930Y-63156243D01*
X97978424Y-63210812D01*
X97978423Y-63210813D01*
X97962594Y-63269888D01*
X97937499Y-63363543D01*
X97937499Y-63363545D01*
X97937499Y-63531646D01*
X97937500Y-63531659D01*
X97937500Y-79078602D01*
X97917815Y-79145641D01*
X97901181Y-79166283D01*
X94102180Y-82965284D01*
X94040857Y-82998769D01*
X93971165Y-82993785D01*
X93915232Y-82951913D01*
X93890815Y-82886449D01*
X93890499Y-82877603D01*
X93890499Y-82352129D01*
X93890498Y-82352123D01*
X93884091Y-82292516D01*
X93833797Y-82157671D01*
X93833793Y-82157664D01*
X93747547Y-82042455D01*
X93747544Y-82042452D01*
X93632335Y-81956206D01*
X93632328Y-81956202D01*
X93497482Y-81905908D01*
X93497483Y-81905908D01*
X93437883Y-81899501D01*
X93437881Y-81899500D01*
X93437873Y-81899500D01*
X93437864Y-81899500D01*
X91642129Y-81899500D01*
X91642123Y-81899501D01*
X91582516Y-81905908D01*
X91447671Y-81956202D01*
X91447664Y-81956206D01*
X91332455Y-82042452D01*
X91332452Y-82042455D01*
X91246206Y-82157664D01*
X91246203Y-82157669D01*
X91197189Y-82289083D01*
X91155317Y-82345016D01*
X91089853Y-82369433D01*
X91021580Y-82354581D01*
X90993326Y-82333430D01*
X90879786Y-82219890D01*
X90707815Y-82094948D01*
X90707814Y-82094947D01*
X90668205Y-82074765D01*
X90617409Y-82026791D01*
X90600500Y-81964281D01*
X90600500Y-78535718D01*
X90620185Y-78468679D01*
X90668207Y-78425233D01*
X90707815Y-78405052D01*
X90707815Y-78405051D01*
X90707816Y-78405051D01*
X90846335Y-78304412D01*
X90879784Y-78280110D01*
X90879784Y-78280109D01*
X90879792Y-78280104D01*
X90993329Y-78166566D01*
X91054648Y-78133084D01*
X91124340Y-78138068D01*
X91180274Y-78179939D01*
X91197189Y-78210917D01*
X91246202Y-78342328D01*
X91246206Y-78342335D01*
X91332452Y-78457544D01*
X91332455Y-78457547D01*
X91447664Y-78543793D01*
X91447671Y-78543797D01*
X91582517Y-78594091D01*
X91582516Y-78594091D01*
X91589444Y-78594835D01*
X91642127Y-78600500D01*
X93437872Y-78600499D01*
X93497483Y-78594091D01*
X93632331Y-78543796D01*
X93747546Y-78457546D01*
X93833796Y-78342331D01*
X93884091Y-78207483D01*
X93890500Y-78147873D01*
X93890499Y-76352128D01*
X93884091Y-76292517D01*
X93882810Y-76289083D01*
X93833797Y-76157671D01*
X93833793Y-76157664D01*
X93747547Y-76042455D01*
X93747544Y-76042452D01*
X93632335Y-75956206D01*
X93632328Y-75956202D01*
X93497482Y-75905908D01*
X93497483Y-75905908D01*
X93437883Y-75899501D01*
X93437881Y-75899500D01*
X93437873Y-75899500D01*
X93437865Y-75899500D01*
X93264500Y-75899500D01*
X93197461Y-75879815D01*
X93151706Y-75827011D01*
X93140500Y-75775500D01*
X93140500Y-59549059D01*
X93140501Y-59549046D01*
X93140501Y-59380945D01*
X93140501Y-59380943D01*
X93099577Y-59228215D01*
X93047031Y-59137203D01*
X93020520Y-59091284D01*
X92908716Y-58979480D01*
X92908713Y-58979478D01*
X87093757Y-53164522D01*
X87060272Y-53103199D01*
X87063507Y-53038523D01*
X87077246Y-52996243D01*
X87110500Y-52786287D01*
X87110500Y-52573713D01*
X87077246Y-52363757D01*
X87011557Y-52161588D01*
X86915051Y-51972184D01*
X86915049Y-51972181D01*
X86915048Y-51972179D01*
X86790109Y-51800213D01*
X86639786Y-51649890D01*
X86467820Y-51524951D01*
X86278414Y-51428444D01*
X86278413Y-51428443D01*
X86278412Y-51428443D01*
X86076243Y-51362754D01*
X86076241Y-51362753D01*
X86076240Y-51362753D01*
X85914957Y-51337208D01*
X85866287Y-51329500D01*
X85653713Y-51329500D01*
X85605042Y-51337208D01*
X85443760Y-51362753D01*
X85241585Y-51428444D01*
X85052179Y-51524951D01*
X84880213Y-51649890D01*
X84729890Y-51800213D01*
X84604951Y-51972179D01*
X84508444Y-52161585D01*
X84442753Y-52363760D01*
X84409500Y-52573713D01*
X84409500Y-52786286D01*
X84442753Y-52996239D01*
X84442753Y-52996241D01*
X84442754Y-52996243D01*
X84507197Y-53194578D01*
X84508444Y-53198414D01*
X84604951Y-53387820D01*
X84729890Y-53559786D01*
X84880213Y-53710109D01*
X85052182Y-53835050D01*
X85060946Y-53839516D01*
X85111742Y-53887491D01*
X85128536Y-53955312D01*
X85105998Y-54021447D01*
X85060946Y-54060484D01*
X85052182Y-54064949D01*
X84880213Y-54189890D01*
X84729890Y-54340213D01*
X84604951Y-54512179D01*
X84508444Y-54701585D01*
X84442753Y-54903760D01*
X84409500Y-55113713D01*
X84409500Y-55326286D01*
X84442754Y-55536244D01*
X84442754Y-55536247D01*
X84456491Y-55578523D01*
X84458486Y-55648364D01*
X84426241Y-55704522D01*
X83116079Y-57014684D01*
X83116072Y-57014691D01*
X83113086Y-57017678D01*
X83113084Y-57017680D01*
X83001280Y-57129484D01*
X82978593Y-57168780D01*
X82972571Y-57179208D01*
X82972570Y-57179211D01*
X82936557Y-57241588D01*
X82922223Y-57266415D01*
X82881299Y-57419143D01*
X82881299Y-57419145D01*
X82881299Y-57587246D01*
X82881300Y-57587259D01*
X82881300Y-61868102D01*
X82861615Y-61935141D01*
X82844981Y-61955783D01*
X76102181Y-68698583D01*
X76040858Y-68732068D01*
X75971166Y-68727084D01*
X75915233Y-68685212D01*
X75890816Y-68619748D01*
X75890500Y-68610902D01*
X75890500Y-68463713D01*
X75857246Y-68253760D01*
X75857246Y-68253757D01*
X75791557Y-68051588D01*
X75695051Y-67862184D01*
X75695049Y-67862181D01*
X75695048Y-67862179D01*
X75570109Y-67690213D01*
X75419786Y-67539890D01*
X75247820Y-67414951D01*
X75247115Y-67414591D01*
X75239054Y-67410485D01*
X75188259Y-67362512D01*
X75171463Y-67294692D01*
X75193999Y-67228556D01*
X75239054Y-67189515D01*
X75247816Y-67185051D01*
X75327801Y-67126939D01*
X75419786Y-67060109D01*
X75419788Y-67060106D01*
X75419792Y-67060104D01*
X75570104Y-66909792D01*
X75570106Y-66909788D01*
X75570109Y-66909786D01*
X75695048Y-66737820D01*
X75695047Y-66737820D01*
X75695051Y-66737816D01*
X75791557Y-66548412D01*
X75857246Y-66346243D01*
X75890500Y-66136287D01*
X75890500Y-65923713D01*
X75857246Y-65713757D01*
X75791557Y-65511588D01*
X75695051Y-65322184D01*
X75695049Y-65322181D01*
X75695048Y-65322179D01*
X75570109Y-65150213D01*
X75419786Y-64999890D01*
X75247817Y-64874949D01*
X75238504Y-64870204D01*
X75187707Y-64822230D01*
X75170912Y-64754409D01*
X75193449Y-64688274D01*
X75238507Y-64649232D01*
X75247555Y-64644622D01*
X75301716Y-64605270D01*
X75301717Y-64605270D01*
X74669409Y-63972962D01*
X74732993Y-63955925D01*
X74847007Y-63890099D01*
X74940099Y-63797007D01*
X75005925Y-63682993D01*
X75022962Y-63619409D01*
X75655270Y-64251717D01*
X75655270Y-64251716D01*
X75694622Y-64197554D01*
X75791095Y-64008217D01*
X75856757Y-63806130D01*
X75856757Y-63806127D01*
X75890000Y-63596246D01*
X75890000Y-63383753D01*
X75856757Y-63173872D01*
X75856757Y-63173869D01*
X75791095Y-62971782D01*
X75694624Y-62782449D01*
X75655270Y-62728282D01*
X75655269Y-62728282D01*
X75022962Y-63360590D01*
X75005925Y-63297007D01*
X74940099Y-63182993D01*
X74847007Y-63089901D01*
X74732993Y-63024075D01*
X74669407Y-63007036D01*
X75301716Y-62374728D01*
X75247550Y-62335375D01*
X75058217Y-62238904D01*
X74856129Y-62173242D01*
X74646246Y-62140000D01*
X74433754Y-62140000D01*
X74223872Y-62173242D01*
X74223869Y-62173242D01*
X74151118Y-62196881D01*
X74081277Y-62198876D01*
X74021444Y-62162795D01*
X73990616Y-62100094D01*
X73988800Y-62078950D01*
X73988800Y-61000000D01*
X76500000Y-61000000D01*
X81500000Y-61000000D01*
X81500000Y-56000000D01*
X76500000Y-56000000D01*
X76500000Y-61000000D01*
X73988800Y-61000000D01*
X73988800Y-52411796D01*
X74008485Y-52344757D01*
X74025114Y-52324119D01*
X75139169Y-51210064D01*
X75200490Y-51176581D01*
X75246246Y-51175274D01*
X75405514Y-51200500D01*
X75405519Y-51200500D01*
X75594486Y-51200500D01*
X75781118Y-51170940D01*
X75811753Y-51160986D01*
X75960832Y-51112547D01*
X76129199Y-51026760D01*
X76282073Y-50915690D01*
X76415690Y-50782073D01*
X76526760Y-50629199D01*
X76612547Y-50460832D01*
X76670940Y-50281118D01*
X76671570Y-50277139D01*
X76700500Y-50094486D01*
X76700500Y-49905513D01*
X76670940Y-49718881D01*
X76614218Y-49544312D01*
X76612547Y-49539168D01*
X76612545Y-49539165D01*
X76612545Y-49539163D01*
X76526759Y-49370800D01*
X76509797Y-49347454D01*
X76415690Y-49217927D01*
X76282073Y-49084310D01*
X76215575Y-49035996D01*
X76151614Y-48989525D01*
X76108948Y-48934194D01*
X76100500Y-48889207D01*
X76100500Y-48110791D01*
X76120185Y-48043752D01*
X76151612Y-48010475D01*
X76282073Y-47915690D01*
X76415690Y-47782073D01*
X76526760Y-47629199D01*
X76612547Y-47460832D01*
X76670940Y-47281118D01*
X76700500Y-47094486D01*
X76700500Y-46905513D01*
X76670940Y-46718881D01*
X76612545Y-46539163D01*
X76526759Y-46370800D01*
X76415690Y-46217927D01*
X76282073Y-46084310D01*
X76129199Y-45973240D01*
X75960836Y-45887454D01*
X75781118Y-45829059D01*
X75594486Y-45799500D01*
X75594481Y-45799500D01*
X75405519Y-45799500D01*
X75405514Y-45799500D01*
X75218881Y-45829059D01*
X75039163Y-45887454D01*
X74870800Y-45973240D01*
X74783579Y-46036610D01*
X74717927Y-46084310D01*
X74717925Y-46084312D01*
X74717924Y-46084312D01*
X74584312Y-46217924D01*
X74584312Y-46217925D01*
X74584310Y-46217927D01*
X74536610Y-46283579D01*
X74473240Y-46370800D01*
X74387454Y-46539163D01*
X74329059Y-46718881D01*
X74299500Y-46905513D01*
X74299500Y-47094486D01*
X74329059Y-47281118D01*
X74387454Y-47460836D01*
X74422749Y-47530105D01*
X74473240Y-47629199D01*
X74584310Y-47782073D01*
X74717927Y-47915690D01*
X74848386Y-48010474D01*
X74891051Y-48065803D01*
X74899500Y-48110791D01*
X74899500Y-48889207D01*
X74879815Y-48956246D01*
X74848386Y-48989525D01*
X74717925Y-49084311D01*
X74584312Y-49217924D01*
X74584312Y-49217925D01*
X74584310Y-49217927D01*
X74536610Y-49283579D01*
X74473240Y-49370800D01*
X74387454Y-49539163D01*
X74329059Y-49718881D01*
X74299500Y-49905513D01*
X74299500Y-50094486D01*
X74324725Y-50253751D01*
X74315770Y-50323045D01*
X74289933Y-50360830D01*
X73023015Y-51627748D01*
X73023009Y-51627754D01*
X73019586Y-51631178D01*
X73019584Y-51631180D01*
X72907780Y-51742984D01*
X72878691Y-51793368D01*
X72828723Y-51879915D01*
X72787799Y-52032643D01*
X72787799Y-52032645D01*
X72787799Y-52200746D01*
X72787800Y-52200759D01*
X72787800Y-60071100D01*
X72768115Y-60138139D01*
X72715311Y-60183894D01*
X72663800Y-60195100D01*
X72573555Y-60195100D01*
X72418910Y-60225861D01*
X72418898Y-60225864D01*
X72273227Y-60286202D01*
X72273214Y-60286209D01*
X72142111Y-60373810D01*
X72142107Y-60373813D01*
X72030613Y-60485307D01*
X72030610Y-60485311D01*
X71943009Y-60616414D01*
X71943002Y-60616427D01*
X71882664Y-60762098D01*
X71882661Y-60762108D01*
X71851761Y-60917450D01*
X71842995Y-60934206D01*
X71838976Y-60952685D01*
X71820233Y-60977721D01*
X71819376Y-60979361D01*
X71817825Y-60980939D01*
X71756681Y-61042083D01*
X71695358Y-61075568D01*
X71625666Y-61070584D01*
X71569733Y-61028712D01*
X71545316Y-60963248D01*
X71545000Y-60954402D01*
X71545000Y-60865355D01*
X71544999Y-60865353D01*
X71514237Y-60710703D01*
X71505123Y-60688700D01*
X71453897Y-60565027D01*
X71453890Y-60565014D01*
X71366289Y-60433911D01*
X71366286Y-60433907D01*
X71254792Y-60322413D01*
X71254788Y-60322410D01*
X71123685Y-60234809D01*
X71123672Y-60234802D01*
X70978001Y-60174464D01*
X70977989Y-60174461D01*
X70823345Y-60143700D01*
X70823342Y-60143700D01*
X70665658Y-60143700D01*
X70665653Y-60143700D01*
X70522038Y-60172267D01*
X70452447Y-60166040D01*
X70397269Y-60123177D01*
X70374025Y-60057287D01*
X70390093Y-59989290D01*
X70410164Y-59962971D01*
X70900520Y-59472616D01*
X70979577Y-59335684D01*
X71020501Y-59182957D01*
X71020501Y-59024842D01*
X71020501Y-59017247D01*
X71020500Y-59017229D01*
X71020500Y-51110791D01*
X71040185Y-51043752D01*
X71071612Y-51010475D01*
X71202073Y-50915690D01*
X71335690Y-50782073D01*
X71446760Y-50629199D01*
X71532547Y-50460832D01*
X71590940Y-50281118D01*
X71591570Y-50277139D01*
X71620500Y-50094486D01*
X71620500Y-49905513D01*
X71590940Y-49718881D01*
X71534218Y-49544312D01*
X71532547Y-49539168D01*
X71532545Y-49539165D01*
X71532545Y-49539163D01*
X71446759Y-49370800D01*
X71429797Y-49347454D01*
X71335690Y-49217927D01*
X71202073Y-49084310D01*
X71049199Y-48973240D01*
X71020500Y-48958617D01*
X70880836Y-48887454D01*
X70701118Y-48829059D01*
X70514486Y-48799500D01*
X70514481Y-48799500D01*
X70325519Y-48799500D01*
X70325514Y-48799500D01*
X70138881Y-48829059D01*
X69959163Y-48887454D01*
X69790800Y-48973240D01*
X69704425Y-49035996D01*
X69637927Y-49084310D01*
X69637925Y-49084312D01*
X69637924Y-49084312D01*
X69504311Y-49217925D01*
X69502889Y-49219591D01*
X69502189Y-49220047D01*
X69500865Y-49221372D01*
X69500586Y-49221093D01*
X69444382Y-49257783D01*
X69374514Y-49258281D01*
X69315468Y-49220926D01*
X69285991Y-49157579D01*
X69284600Y-49139058D01*
X69284600Y-49035996D01*
X69304285Y-48968957D01*
X69320915Y-48948319D01*
X70059169Y-48210064D01*
X70120490Y-48176581D01*
X70166246Y-48175274D01*
X70325514Y-48200500D01*
X70325519Y-48200500D01*
X70514486Y-48200500D01*
X70701118Y-48170940D01*
X70731753Y-48160986D01*
X70880832Y-48112547D01*
X71049199Y-48026760D01*
X71202073Y-47915690D01*
X71335690Y-47782073D01*
X71446760Y-47629199D01*
X71532547Y-47460832D01*
X71590940Y-47281118D01*
X71620500Y-47094486D01*
X71620500Y-46905513D01*
X71590940Y-46718881D01*
X71532545Y-46539163D01*
X71446759Y-46370800D01*
X71335690Y-46217927D01*
X71202073Y-46084310D01*
X71049199Y-45973240D01*
X70880836Y-45887454D01*
X70701118Y-45829059D01*
X70514486Y-45799500D01*
X70514481Y-45799500D01*
X70325519Y-45799500D01*
X70325514Y-45799500D01*
X70138881Y-45829059D01*
X69959163Y-45887454D01*
X69790800Y-45973240D01*
X69703579Y-46036610D01*
X69637927Y-46084310D01*
X69637925Y-46084312D01*
X69637924Y-46084312D01*
X69504312Y-46217924D01*
X69504312Y-46217925D01*
X69504310Y-46217927D01*
X69456610Y-46283579D01*
X69393240Y-46370800D01*
X69307454Y-46539163D01*
X69249059Y-46718881D01*
X69219500Y-46905513D01*
X69219500Y-47094486D01*
X69244725Y-47253751D01*
X69235770Y-47323045D01*
X69209933Y-47360830D01*
X68315386Y-48255378D01*
X68203581Y-48367182D01*
X68203579Y-48367184D01*
X68181705Y-48405071D01*
X68172460Y-48421086D01*
X68124523Y-48504115D01*
X68083599Y-48656843D01*
X68083599Y-48656845D01*
X68083599Y-48824946D01*
X68083600Y-48824959D01*
X68083600Y-50021402D01*
X68063915Y-50088441D01*
X68047281Y-50109083D01*
X66442683Y-51713681D01*
X66381360Y-51747166D01*
X66355002Y-51750000D01*
X65404146Y-51750000D01*
X65442630Y-51683343D01*
X65475000Y-51562535D01*
X65475000Y-51437465D01*
X65442630Y-51316657D01*
X65404146Y-51250000D01*
X66474999Y-51250000D01*
X66474999Y-50850028D01*
X66474998Y-50850013D01*
X66464505Y-50747302D01*
X66409358Y-50580880D01*
X66409356Y-50580875D01*
X66317315Y-50431654D01*
X66193345Y-50307684D01*
X66038515Y-50212184D01*
X65991791Y-50160236D01*
X65980568Y-50091273D01*
X66008412Y-50027191D01*
X66015909Y-50018986D01*
X66155104Y-49879792D01*
X66280051Y-49707816D01*
X66376557Y-49518412D01*
X66442246Y-49316243D01*
X66475500Y-49106287D01*
X66475500Y-48893713D01*
X66442246Y-48683757D01*
X66376557Y-48481588D01*
X66280051Y-48292184D01*
X66280049Y-48292181D01*
X66280048Y-48292179D01*
X66155109Y-48120213D01*
X66004792Y-47969896D01*
X65919366Y-47907831D01*
X65840204Y-47850316D01*
X65797540Y-47794989D01*
X65791561Y-47725376D01*
X65824166Y-47663580D01*
X65840199Y-47649686D01*
X66004792Y-47530104D01*
X66155104Y-47379792D01*
X66155106Y-47379788D01*
X66155109Y-47379786D01*
X66280048Y-47207820D01*
X66280047Y-47207820D01*
X66280051Y-47207816D01*
X66376557Y-47018412D01*
X66442246Y-46816243D01*
X66475500Y-46606287D01*
X66475500Y-46393713D01*
X66442246Y-46183757D01*
X66376557Y-45981588D01*
X66280051Y-45792184D01*
X66280049Y-45792181D01*
X66280048Y-45792179D01*
X66155109Y-45620213D01*
X66004792Y-45469896D01*
X65994173Y-45462181D01*
X65840204Y-45350316D01*
X65797540Y-45294989D01*
X65791561Y-45225376D01*
X65824166Y-45163580D01*
X65840199Y-45149686D01*
X66004792Y-45030104D01*
X66155104Y-44879792D01*
X66155106Y-44879788D01*
X66155109Y-44879786D01*
X66280048Y-44707820D01*
X66280047Y-44707820D01*
X66280051Y-44707816D01*
X66376557Y-44518412D01*
X66442246Y-44316243D01*
X66475500Y-44106287D01*
X66475500Y-43893713D01*
X66442246Y-43683757D01*
X66376557Y-43481588D01*
X66280051Y-43292184D01*
X66280049Y-43292181D01*
X66280048Y-43292179D01*
X66155109Y-43120213D01*
X66004786Y-42969890D01*
X65832820Y-42844951D01*
X65643414Y-42748444D01*
X65643413Y-42748443D01*
X65643412Y-42748443D01*
X65441243Y-42682754D01*
X65441241Y-42682753D01*
X65441240Y-42682753D01*
X65279957Y-42657208D01*
X65231287Y-42649500D01*
X64768713Y-42649500D01*
X64720042Y-42657208D01*
X64558760Y-42682753D01*
X64356585Y-42748444D01*
X64167179Y-42844951D01*
X63995213Y-42969890D01*
X63844890Y-43120213D01*
X63719951Y-43292179D01*
X63623444Y-43481585D01*
X63557753Y-43683760D01*
X63524500Y-43893713D01*
X63524500Y-44106286D01*
X63552192Y-44281130D01*
X63557754Y-44316243D01*
X63612007Y-44483217D01*
X63623444Y-44518414D01*
X63719951Y-44707820D01*
X63844890Y-44879786D01*
X63995209Y-45030105D01*
X63995214Y-45030109D01*
X64159793Y-45149682D01*
X64202459Y-45205011D01*
X64208438Y-45274625D01*
X64175833Y-45336420D01*
X64159793Y-45350318D01*
X63995214Y-45469890D01*
X63995209Y-45469894D01*
X63844890Y-45620213D01*
X63719951Y-45792179D01*
X63623444Y-45981585D01*
X63557753Y-46183760D01*
X63524500Y-46393713D01*
X63524500Y-46606286D01*
X63557753Y-46816239D01*
X63623444Y-47018414D01*
X63719951Y-47207820D01*
X63844890Y-47379786D01*
X63995209Y-47530105D01*
X63995214Y-47530109D01*
X64159793Y-47649682D01*
X64202459Y-47705011D01*
X64208438Y-47774625D01*
X64175833Y-47836420D01*
X64159793Y-47850318D01*
X63995214Y-47969890D01*
X63995209Y-47969894D01*
X63844890Y-48120213D01*
X63719951Y-48292179D01*
X63623444Y-48481585D01*
X63623443Y-48481587D01*
X63623443Y-48481588D01*
X63590598Y-48582672D01*
X63557753Y-48683760D01*
X63534740Y-48829059D01*
X63524500Y-48893713D01*
X63524500Y-49106287D01*
X63532624Y-49157579D01*
X63557753Y-49316239D01*
X63623444Y-49518414D01*
X63719951Y-49707820D01*
X63844890Y-49879786D01*
X63984068Y-50018964D01*
X64017553Y-50080287D01*
X64012569Y-50149979D01*
X63970697Y-50205912D01*
X63961484Y-50212183D01*
X63806659Y-50307680D01*
X63806655Y-50307683D01*
X63682684Y-50431654D01*
X63590643Y-50580875D01*
X63590641Y-50580880D01*
X63535494Y-50747302D01*
X63535493Y-50747309D01*
X63525000Y-50850013D01*
X63525000Y-51250000D01*
X64595854Y-51250000D01*
X64557370Y-51316657D01*
X64525000Y-51437465D01*
X64525000Y-51562535D01*
X64557370Y-51683343D01*
X64595854Y-51750000D01*
X63525001Y-51750000D01*
X63525001Y-52149986D01*
X63535494Y-52252697D01*
X63590641Y-52419119D01*
X63590643Y-52419124D01*
X63682684Y-52568345D01*
X63806654Y-52692315D01*
X63955875Y-52784356D01*
X63955880Y-52784358D01*
X64122302Y-52839505D01*
X64122309Y-52839506D01*
X64225019Y-52849999D01*
X64749999Y-52849999D01*
X64750000Y-52849998D01*
X64750000Y-51904145D01*
X64816657Y-51942630D01*
X64937465Y-51975000D01*
X65062535Y-51975000D01*
X65183343Y-51942630D01*
X65250000Y-51904145D01*
X65250000Y-52855001D01*
X65230315Y-52922040D01*
X65213681Y-52942682D01*
X64965013Y-53191350D01*
X64965006Y-53191357D01*
X64961786Y-53194578D01*
X64961784Y-53194580D01*
X64849980Y-53306384D01*
X64823889Y-53351576D01*
X64818038Y-53361709D01*
X64818037Y-53361711D01*
X64770924Y-53443313D01*
X64770923Y-53443315D01*
X64729999Y-53596043D01*
X64729999Y-53596045D01*
X64729999Y-53764146D01*
X64730000Y-53764159D01*
X64730000Y-54881871D01*
X64710315Y-54948910D01*
X64657511Y-54994665D01*
X64588353Y-55004609D01*
X64573914Y-55001648D01*
X64565893Y-54999499D01*
X64565892Y-54999499D01*
X38503752Y-54999499D01*
X38496265Y-54999273D01*
X38206205Y-54981727D01*
X38191340Y-54979922D01*
X37909202Y-54928218D01*
X37894664Y-54924634D01*
X37620833Y-54839305D01*
X37606832Y-54833996D01*
X37345264Y-54716274D01*
X37332005Y-54709315D01*
X37191393Y-54624312D01*
X37086538Y-54560925D01*
X37074218Y-54552421D01*
X37048300Y-54532116D01*
X36848426Y-54375525D01*
X36837218Y-54365595D01*
X36634404Y-54162780D01*
X36624474Y-54151572D01*
X36576303Y-54090087D01*
X36447573Y-53925775D01*
X36439071Y-53913457D01*
X36290680Y-53667986D01*
X36283722Y-53654728D01*
X36188571Y-53443313D01*
X36166008Y-53393181D01*
X36160699Y-53379181D01*
X36075363Y-53105326D01*
X36071781Y-53090796D01*
X36020076Y-52808656D01*
X36018272Y-52793793D01*
X36004635Y-52568345D01*
X36000725Y-52503711D01*
X36000500Y-52496237D01*
X36000500Y-45624000D01*
X36020185Y-45556961D01*
X36072989Y-45511206D01*
X36124500Y-45500000D01*
X45500000Y-45500000D01*
X45500000Y-43893713D01*
X47524500Y-43893713D01*
X47524500Y-44106286D01*
X47552192Y-44281130D01*
X47557754Y-44316243D01*
X47612007Y-44483217D01*
X47623444Y-44518414D01*
X47719951Y-44707820D01*
X47844890Y-44879786D01*
X47995209Y-45030105D01*
X47995214Y-45030109D01*
X48159793Y-45149682D01*
X48202459Y-45205011D01*
X48208438Y-45274625D01*
X48175833Y-45336420D01*
X48159793Y-45350318D01*
X47995214Y-45469890D01*
X47995209Y-45469894D01*
X47844890Y-45620213D01*
X47719951Y-45792179D01*
X47623444Y-45981585D01*
X47557753Y-46183760D01*
X47524500Y-46393713D01*
X47524500Y-46606286D01*
X47557753Y-46816239D01*
X47623444Y-47018414D01*
X47719951Y-47207820D01*
X47844890Y-47379786D01*
X47995209Y-47530105D01*
X47995214Y-47530109D01*
X48159793Y-47649682D01*
X48202459Y-47705011D01*
X48208438Y-47774625D01*
X48175833Y-47836420D01*
X48159793Y-47850318D01*
X47995214Y-47969890D01*
X47995209Y-47969894D01*
X47844890Y-48120213D01*
X47719951Y-48292179D01*
X47623444Y-48481585D01*
X47623443Y-48481587D01*
X47623443Y-48481588D01*
X47590598Y-48582672D01*
X47557753Y-48683760D01*
X47534740Y-48829059D01*
X47524500Y-48893713D01*
X47524500Y-49106287D01*
X47532624Y-49157579D01*
X47557753Y-49316239D01*
X47623444Y-49518414D01*
X47719951Y-49707820D01*
X47844890Y-49879786D01*
X47984068Y-50018964D01*
X48017553Y-50080287D01*
X48012569Y-50149979D01*
X47970697Y-50205912D01*
X47961484Y-50212183D01*
X47806659Y-50307680D01*
X47806655Y-50307683D01*
X47682684Y-50431654D01*
X47590643Y-50580875D01*
X47590641Y-50580880D01*
X47535494Y-50747302D01*
X47535493Y-50747309D01*
X47525000Y-50850013D01*
X47525000Y-51250000D01*
X48595854Y-51250000D01*
X48557370Y-51316657D01*
X48525000Y-51437465D01*
X48525000Y-51562535D01*
X48557370Y-51683343D01*
X48595854Y-51750000D01*
X47525001Y-51750000D01*
X47525001Y-52149986D01*
X47535494Y-52252697D01*
X47590641Y-52419119D01*
X47590643Y-52419124D01*
X47682684Y-52568345D01*
X47806654Y-52692315D01*
X47955875Y-52784356D01*
X47955880Y-52784358D01*
X48122302Y-52839505D01*
X48122309Y-52839506D01*
X48225019Y-52849999D01*
X48749999Y-52849999D01*
X48750000Y-52849998D01*
X48750000Y-51904145D01*
X48816657Y-51942630D01*
X48937465Y-51975000D01*
X49062535Y-51975000D01*
X49183343Y-51942630D01*
X49250000Y-51904145D01*
X49250000Y-52849999D01*
X49774972Y-52849999D01*
X49774986Y-52849998D01*
X49877697Y-52839505D01*
X50044119Y-52784358D01*
X50044124Y-52784356D01*
X50193345Y-52692315D01*
X50317315Y-52568345D01*
X50409356Y-52419124D01*
X50409358Y-52419119D01*
X50464505Y-52252697D01*
X50464506Y-52252690D01*
X50474999Y-52149986D01*
X50475000Y-52149973D01*
X50475000Y-51750000D01*
X49404146Y-51750000D01*
X49442630Y-51683343D01*
X49475000Y-51562535D01*
X49475000Y-51437465D01*
X49442630Y-51316657D01*
X49404146Y-51250000D01*
X50474999Y-51250000D01*
X50474999Y-50850028D01*
X50474998Y-50850013D01*
X50464505Y-50747302D01*
X50409358Y-50580880D01*
X50409356Y-50580875D01*
X50317315Y-50431654D01*
X50193345Y-50307684D01*
X50038515Y-50212184D01*
X49991791Y-50160236D01*
X49980568Y-50091273D01*
X50008412Y-50027191D01*
X50015909Y-50018986D01*
X50155104Y-49879792D01*
X50280051Y-49707816D01*
X50376557Y-49518412D01*
X50442246Y-49316243D01*
X50475500Y-49106287D01*
X50475500Y-48893713D01*
X50442246Y-48683757D01*
X50376557Y-48481588D01*
X50280051Y-48292184D01*
X50280049Y-48292181D01*
X50280048Y-48292179D01*
X50155109Y-48120213D01*
X50004792Y-47969896D01*
X49919366Y-47907831D01*
X49840204Y-47850316D01*
X49797540Y-47794989D01*
X49791561Y-47725376D01*
X49824166Y-47663580D01*
X49840199Y-47649686D01*
X50004792Y-47530104D01*
X50155104Y-47379792D01*
X50155106Y-47379788D01*
X50155109Y-47379786D01*
X50280048Y-47207820D01*
X50280047Y-47207820D01*
X50280051Y-47207816D01*
X50376557Y-47018412D01*
X50442246Y-46816243D01*
X50475500Y-46606287D01*
X50475500Y-46393713D01*
X50442246Y-46183757D01*
X50376557Y-45981588D01*
X50280051Y-45792184D01*
X50280049Y-45792181D01*
X50280048Y-45792179D01*
X50155109Y-45620213D01*
X50004792Y-45469896D01*
X49994173Y-45462181D01*
X49840204Y-45350316D01*
X49797540Y-45294989D01*
X49791561Y-45225376D01*
X49824166Y-45163580D01*
X49840199Y-45149686D01*
X50004792Y-45030104D01*
X50155104Y-44879792D01*
X50155106Y-44879788D01*
X50155109Y-44879786D01*
X50280048Y-44707820D01*
X50280047Y-44707820D01*
X50280051Y-44707816D01*
X50376557Y-44518412D01*
X50442246Y-44316243D01*
X50475500Y-44106287D01*
X50475500Y-43893713D01*
X55499500Y-43893713D01*
X55499500Y-44106286D01*
X55527192Y-44281130D01*
X55532754Y-44316243D01*
X55587007Y-44483217D01*
X55598444Y-44518414D01*
X55694951Y-44707820D01*
X55819890Y-44879786D01*
X55970209Y-45030105D01*
X55970214Y-45030109D01*
X56134793Y-45149682D01*
X56177459Y-45205011D01*
X56183438Y-45274625D01*
X56150833Y-45336420D01*
X56134793Y-45350318D01*
X55970214Y-45469890D01*
X55970209Y-45469894D01*
X55819890Y-45620213D01*
X55694951Y-45792179D01*
X55598444Y-45981585D01*
X55532753Y-46183760D01*
X55499500Y-46393713D01*
X55499500Y-46606286D01*
X55532753Y-46816239D01*
X55598444Y-47018414D01*
X55694951Y-47207820D01*
X55819890Y-47379786D01*
X55970209Y-47530105D01*
X55970214Y-47530109D01*
X56134793Y-47649682D01*
X56177459Y-47705011D01*
X56183438Y-47774625D01*
X56150833Y-47836420D01*
X56134793Y-47850318D01*
X55970214Y-47969890D01*
X55970209Y-47969894D01*
X55819890Y-48120213D01*
X55694951Y-48292179D01*
X55598444Y-48481585D01*
X55598443Y-48481587D01*
X55598443Y-48481588D01*
X55565598Y-48582672D01*
X55532753Y-48683760D01*
X55509740Y-48829059D01*
X55499500Y-48893713D01*
X55499500Y-49106287D01*
X55507624Y-49157579D01*
X55532753Y-49316239D01*
X55598444Y-49518414D01*
X55694951Y-49707820D01*
X55819890Y-49879786D01*
X55959068Y-50018964D01*
X55992553Y-50080287D01*
X55987569Y-50149979D01*
X55945697Y-50205912D01*
X55936484Y-50212183D01*
X55781659Y-50307680D01*
X55781655Y-50307683D01*
X55657684Y-50431654D01*
X55565643Y-50580875D01*
X55565641Y-50580880D01*
X55510494Y-50747302D01*
X55510493Y-50747309D01*
X55500000Y-50850013D01*
X55500000Y-51250000D01*
X56570854Y-51250000D01*
X56532370Y-51316657D01*
X56500000Y-51437465D01*
X56500000Y-51562535D01*
X56532370Y-51683343D01*
X56570854Y-51750000D01*
X55500001Y-51750000D01*
X55500001Y-52149986D01*
X55510494Y-52252697D01*
X55565641Y-52419119D01*
X55565643Y-52419124D01*
X55657684Y-52568345D01*
X55781654Y-52692315D01*
X55930875Y-52784356D01*
X55930880Y-52784358D01*
X56097302Y-52839505D01*
X56097309Y-52839506D01*
X56200019Y-52849999D01*
X56724999Y-52849999D01*
X56725000Y-52849998D01*
X56725000Y-51904145D01*
X56791657Y-51942630D01*
X56912465Y-51975000D01*
X57037535Y-51975000D01*
X57158343Y-51942630D01*
X57225000Y-51904145D01*
X57225000Y-52849999D01*
X57749972Y-52849999D01*
X57749986Y-52849998D01*
X57852697Y-52839505D01*
X58019119Y-52784358D01*
X58019124Y-52784356D01*
X58168345Y-52692315D01*
X58292315Y-52568345D01*
X58384356Y-52419124D01*
X58384358Y-52419119D01*
X58439505Y-52252697D01*
X58439506Y-52252690D01*
X58449999Y-52149986D01*
X58450000Y-52149973D01*
X58450000Y-51750000D01*
X57379146Y-51750000D01*
X57417630Y-51683343D01*
X57450000Y-51562535D01*
X57450000Y-51437465D01*
X57417630Y-51316657D01*
X57379146Y-51250000D01*
X58449999Y-51250000D01*
X58449999Y-50850028D01*
X58449998Y-50850013D01*
X58439505Y-50747302D01*
X58384358Y-50580880D01*
X58384356Y-50580875D01*
X58292315Y-50431654D01*
X58168345Y-50307684D01*
X58013515Y-50212184D01*
X57966791Y-50160236D01*
X57955568Y-50091273D01*
X57983412Y-50027191D01*
X57990909Y-50018986D01*
X58130104Y-49879792D01*
X58255051Y-49707816D01*
X58351557Y-49518412D01*
X58417246Y-49316243D01*
X58450500Y-49106287D01*
X58450500Y-48893713D01*
X58417246Y-48683757D01*
X58351557Y-48481588D01*
X58255051Y-48292184D01*
X58255049Y-48292181D01*
X58255048Y-48292179D01*
X58130109Y-48120213D01*
X57979792Y-47969896D01*
X57894366Y-47907831D01*
X57815204Y-47850316D01*
X57772540Y-47794989D01*
X57766561Y-47725376D01*
X57799166Y-47663580D01*
X57815199Y-47649686D01*
X57979792Y-47530104D01*
X58130104Y-47379792D01*
X58130106Y-47379788D01*
X58130109Y-47379786D01*
X58255048Y-47207820D01*
X58255047Y-47207820D01*
X58255051Y-47207816D01*
X58351557Y-47018412D01*
X58417246Y-46816243D01*
X58450500Y-46606287D01*
X58450500Y-46393713D01*
X58417246Y-46183757D01*
X58351557Y-45981588D01*
X58255051Y-45792184D01*
X58255049Y-45792181D01*
X58255048Y-45792179D01*
X58130109Y-45620213D01*
X57979792Y-45469896D01*
X57969173Y-45462181D01*
X57815204Y-45350316D01*
X57772540Y-45294989D01*
X57766561Y-45225376D01*
X57799166Y-45163580D01*
X57815199Y-45149686D01*
X57979792Y-45030104D01*
X58130104Y-44879792D01*
X58130106Y-44879788D01*
X58130109Y-44879786D01*
X58255048Y-44707820D01*
X58255047Y-44707820D01*
X58255051Y-44707816D01*
X58351557Y-44518412D01*
X58417246Y-44316243D01*
X58450500Y-44106287D01*
X58450500Y-43893713D01*
X58417246Y-43683757D01*
X58351557Y-43481588D01*
X58255051Y-43292184D01*
X58255049Y-43292181D01*
X58255048Y-43292179D01*
X58130109Y-43120213D01*
X57979786Y-42969890D01*
X57807820Y-42844951D01*
X57618414Y-42748444D01*
X57618413Y-42748443D01*
X57618412Y-42748443D01*
X57416243Y-42682754D01*
X57416241Y-42682753D01*
X57416240Y-42682753D01*
X57254957Y-42657208D01*
X57206287Y-42649500D01*
X56743713Y-42649500D01*
X56695042Y-42657208D01*
X56533760Y-42682753D01*
X56331585Y-42748444D01*
X56142179Y-42844951D01*
X55970213Y-42969890D01*
X55819890Y-43120213D01*
X55694951Y-43292179D01*
X55598444Y-43481585D01*
X55532753Y-43683760D01*
X55499500Y-43893713D01*
X50475500Y-43893713D01*
X50442246Y-43683757D01*
X50376557Y-43481588D01*
X50280051Y-43292184D01*
X50280049Y-43292181D01*
X50280048Y-43292179D01*
X50155109Y-43120213D01*
X50004786Y-42969890D01*
X49832820Y-42844951D01*
X49643414Y-42748444D01*
X49643413Y-42748443D01*
X49643412Y-42748443D01*
X49441243Y-42682754D01*
X49441241Y-42682753D01*
X49441240Y-42682753D01*
X49279957Y-42657208D01*
X49231287Y-42649500D01*
X48768713Y-42649500D01*
X48720042Y-42657208D01*
X48558760Y-42682753D01*
X48356585Y-42748444D01*
X48167179Y-42844951D01*
X47995213Y-42969890D01*
X47844890Y-43120213D01*
X47719951Y-43292179D01*
X47623444Y-43481585D01*
X47557753Y-43683760D01*
X47524500Y-43893713D01*
X45500000Y-43893713D01*
X45500000Y-41124499D01*
X45519685Y-41057460D01*
X45572489Y-41011705D01*
X45624000Y-41000499D01*
X70376000Y-41000499D01*
X70443039Y-41020184D01*
G37*
%TD.AperFunction*%
%TA.AperFunction,Conductor*%
G36*
X66889403Y-99869084D02*
G01*
X66895881Y-99875116D01*
X70666241Y-103645476D01*
X70699726Y-103706799D01*
X70696492Y-103771473D01*
X70682753Y-103813757D01*
X70650360Y-104018282D01*
X70649500Y-104023713D01*
X70649500Y-104236287D01*
X70682754Y-104446243D01*
X70747840Y-104646557D01*
X70748444Y-104648414D01*
X70844951Y-104837820D01*
X70969890Y-105009786D01*
X71120213Y-105160109D01*
X71292179Y-105285048D01*
X71292181Y-105285049D01*
X71292184Y-105285051D01*
X71301493Y-105289794D01*
X71352290Y-105337766D01*
X71369087Y-105405587D01*
X71346552Y-105471722D01*
X71301505Y-105510760D01*
X71292446Y-105515376D01*
X71292440Y-105515380D01*
X71238282Y-105554727D01*
X71238282Y-105554728D01*
X71870591Y-106187037D01*
X71807007Y-106204075D01*
X71692993Y-106269901D01*
X71599901Y-106362993D01*
X71534075Y-106477007D01*
X71517037Y-106540591D01*
X70884728Y-105908282D01*
X70884727Y-105908282D01*
X70845380Y-105962439D01*
X70748904Y-106151782D01*
X70683242Y-106353869D01*
X70683242Y-106353872D01*
X70650000Y-106563753D01*
X70650000Y-106776246D01*
X70683242Y-106986127D01*
X70683242Y-106986130D01*
X70748904Y-107188217D01*
X70811906Y-107311864D01*
X70824802Y-107380533D01*
X70798526Y-107445274D01*
X70741419Y-107485531D01*
X70733518Y-107487933D01*
X70716017Y-107492622D01*
X70716009Y-107492626D01*
X70579090Y-107571675D01*
X70579082Y-107571681D01*
X66686079Y-111464683D01*
X66624756Y-111498168D01*
X66555064Y-111493184D01*
X66499131Y-111451312D01*
X66475925Y-111396400D01*
X66475500Y-111393716D01*
X66475500Y-111393713D01*
X66442246Y-111183757D01*
X66376557Y-110981588D01*
X66280051Y-110792184D01*
X66190805Y-110669346D01*
X66155967Y-110621395D01*
X66132487Y-110555589D01*
X66148313Y-110487535D01*
X66168600Y-110460834D01*
X66757220Y-109872216D01*
X66836277Y-109735284D01*
X66877201Y-109582557D01*
X66877201Y-109424442D01*
X66877201Y-109416847D01*
X66877200Y-109416829D01*
X66877200Y-103870044D01*
X66877199Y-103870037D01*
X66868659Y-103838165D01*
X66836277Y-103717315D01*
X66782949Y-103624949D01*
X66757220Y-103580384D01*
X66714788Y-103537952D01*
X66709856Y-103531530D01*
X66700049Y-103506195D01*
X66687034Y-103482360D01*
X66685576Y-103468807D01*
X66684634Y-103466372D01*
X66685080Y-103464190D01*
X66684200Y-103456002D01*
X66684200Y-99962797D01*
X66703885Y-99895758D01*
X66756689Y-99850003D01*
X66825847Y-99840059D01*
X66889403Y-99869084D01*
G37*
%TD.AperFunction*%
%TA.AperFunction,Conductor*%
G36*
X77736461Y-73945286D02*
G01*
X77792394Y-73987158D01*
X77796229Y-73992577D01*
X77799902Y-73998074D01*
X77820780Y-74064751D01*
X77820800Y-74066965D01*
X77820800Y-99418902D01*
X77801115Y-99485941D01*
X77784481Y-99506583D01*
X76039185Y-101251878D01*
X75977862Y-101285363D01*
X75908170Y-101280379D01*
X75852237Y-101238507D01*
X75833573Y-101202515D01*
X75791095Y-101071782D01*
X75694624Y-100882449D01*
X75655270Y-100828282D01*
X75655269Y-100828282D01*
X75022962Y-101460589D01*
X75005925Y-101397007D01*
X74940099Y-101282993D01*
X74847007Y-101189901D01*
X74732993Y-101124075D01*
X74669407Y-101107036D01*
X75301716Y-100474728D01*
X75247547Y-100435373D01*
X75247547Y-100435372D01*
X75238500Y-100430763D01*
X75187706Y-100382788D01*
X75170912Y-100314966D01*
X75193451Y-100248832D01*
X75238508Y-100209793D01*
X75247816Y-100205051D01*
X75362778Y-100121527D01*
X75419786Y-100080109D01*
X75419788Y-100080106D01*
X75419792Y-100080104D01*
X75570104Y-99929792D01*
X75570106Y-99929788D01*
X75570109Y-99929786D01*
X75695048Y-99757820D01*
X75695047Y-99757820D01*
X75695051Y-99757816D01*
X75791557Y-99568412D01*
X75857246Y-99366243D01*
X75890500Y-99156287D01*
X75890500Y-98943713D01*
X75857246Y-98733757D01*
X75791557Y-98531588D01*
X75695051Y-98342184D01*
X75695049Y-98342181D01*
X75695048Y-98342179D01*
X75570109Y-98170213D01*
X75419786Y-98019890D01*
X75247820Y-97894951D01*
X75247115Y-97894591D01*
X75239054Y-97890485D01*
X75188259Y-97842512D01*
X75171463Y-97774692D01*
X75193999Y-97708556D01*
X75239054Y-97669515D01*
X75247816Y-97665051D01*
X75320444Y-97612284D01*
X75419786Y-97540109D01*
X75419788Y-97540106D01*
X75419792Y-97540104D01*
X75570104Y-97389792D01*
X75570106Y-97389788D01*
X75570109Y-97389786D01*
X75695048Y-97217820D01*
X75695047Y-97217820D01*
X75695051Y-97217816D01*
X75791557Y-97028412D01*
X75857246Y-96826243D01*
X75890500Y-96616287D01*
X75890500Y-96403713D01*
X75857246Y-96193757D01*
X75791557Y-95991588D01*
X75695051Y-95802184D01*
X75695049Y-95802181D01*
X75695048Y-95802179D01*
X75570109Y-95630213D01*
X75419786Y-95479890D01*
X75247820Y-95354951D01*
X75247115Y-95354591D01*
X75239054Y-95350485D01*
X75188259Y-95302512D01*
X75171463Y-95234692D01*
X75193999Y-95168556D01*
X75239054Y-95129515D01*
X75247816Y-95125051D01*
X75390913Y-95021086D01*
X75419786Y-95000109D01*
X75419788Y-95000106D01*
X75419792Y-95000104D01*
X75570104Y-94849792D01*
X75570106Y-94849788D01*
X75570109Y-94849786D01*
X75695048Y-94677820D01*
X75695047Y-94677820D01*
X75695051Y-94677816D01*
X75791557Y-94488412D01*
X75857246Y-94286243D01*
X75890500Y-94076287D01*
X75890500Y-93863713D01*
X75857246Y-93653757D01*
X75791557Y-93451588D01*
X75695051Y-93262184D01*
X75695049Y-93262181D01*
X75695048Y-93262179D01*
X75570109Y-93090213D01*
X75419786Y-92939890D01*
X75247820Y-92814951D01*
X75247115Y-92814591D01*
X75239054Y-92810485D01*
X75188259Y-92762512D01*
X75171463Y-92694692D01*
X75193999Y-92628556D01*
X75239054Y-92589515D01*
X75247816Y-92585051D01*
X75299114Y-92547781D01*
X75419786Y-92460109D01*
X75419788Y-92460106D01*
X75419792Y-92460104D01*
X75570104Y-92309792D01*
X75570106Y-92309788D01*
X75570109Y-92309786D01*
X75695048Y-92137820D01*
X75695047Y-92137820D01*
X75695051Y-92137816D01*
X75791557Y-91948412D01*
X75857246Y-91746243D01*
X75890500Y-91536287D01*
X75890500Y-91323713D01*
X75857246Y-91113757D01*
X75791557Y-90911588D01*
X75695051Y-90722184D01*
X75695049Y-90722181D01*
X75695048Y-90722179D01*
X75570109Y-90550213D01*
X75419786Y-90399890D01*
X75247820Y-90274951D01*
X75247115Y-90274591D01*
X75239054Y-90270485D01*
X75188259Y-90222512D01*
X75171463Y-90154692D01*
X75193999Y-90088556D01*
X75239054Y-90049515D01*
X75247816Y-90045051D01*
X75310512Y-89999500D01*
X75419786Y-89920109D01*
X75419788Y-89920106D01*
X75419792Y-89920104D01*
X75570104Y-89769792D01*
X75570106Y-89769788D01*
X75570109Y-89769786D01*
X75695048Y-89597820D01*
X75695047Y-89597820D01*
X75695051Y-89597816D01*
X75791557Y-89408412D01*
X75857246Y-89206243D01*
X75890500Y-88996287D01*
X75890500Y-88783713D01*
X75857246Y-88573757D01*
X75791557Y-88371588D01*
X75695051Y-88182184D01*
X75695049Y-88182181D01*
X75695048Y-88182179D01*
X75570109Y-88010213D01*
X75419786Y-87859890D01*
X75247820Y-87734951D01*
X75247115Y-87734591D01*
X75239054Y-87730485D01*
X75188259Y-87682512D01*
X75171463Y-87614692D01*
X75193999Y-87548556D01*
X75239054Y-87509515D01*
X75247816Y-87505051D01*
X75400534Y-87394096D01*
X75419786Y-87380109D01*
X75419788Y-87380106D01*
X75419792Y-87380104D01*
X75570104Y-87229792D01*
X75570106Y-87229788D01*
X75570109Y-87229786D01*
X75695048Y-87057820D01*
X75695047Y-87057820D01*
X75695051Y-87057816D01*
X75791557Y-86868412D01*
X75857246Y-86666243D01*
X75890500Y-86456287D01*
X75890500Y-86243713D01*
X75857246Y-86033757D01*
X75791557Y-85831588D01*
X75695051Y-85642184D01*
X75695049Y-85642181D01*
X75695048Y-85642179D01*
X75570109Y-85470213D01*
X75419786Y-85319890D01*
X75247820Y-85194951D01*
X75247115Y-85194591D01*
X75239054Y-85190485D01*
X75188259Y-85142512D01*
X75171463Y-85074692D01*
X75193999Y-85008556D01*
X75239054Y-84969515D01*
X75247816Y-84965051D01*
X75396274Y-84857191D01*
X75419786Y-84840109D01*
X75419788Y-84840106D01*
X75419792Y-84840104D01*
X75570104Y-84689792D01*
X75570106Y-84689788D01*
X75570109Y-84689786D01*
X75695048Y-84517820D01*
X75695047Y-84517820D01*
X75695051Y-84517816D01*
X75791557Y-84328412D01*
X75857246Y-84126243D01*
X75890500Y-83916287D01*
X75890500Y-83703713D01*
X75857246Y-83493757D01*
X75791557Y-83291588D01*
X75695051Y-83102184D01*
X75695049Y-83102181D01*
X75695048Y-83102179D01*
X75570109Y-82930213D01*
X75419786Y-82779890D01*
X75247817Y-82654949D01*
X75238504Y-82650204D01*
X75187707Y-82602230D01*
X75170912Y-82534409D01*
X75193449Y-82468274D01*
X75238507Y-82429232D01*
X75247555Y-82424622D01*
X75301716Y-82385270D01*
X75301717Y-82385270D01*
X74669409Y-81752962D01*
X74732993Y-81735925D01*
X74847007Y-81670099D01*
X74940099Y-81577007D01*
X75005925Y-81462993D01*
X75022962Y-81399408D01*
X75655270Y-82031717D01*
X75655270Y-82031716D01*
X75694622Y-81977554D01*
X75791095Y-81788217D01*
X75856757Y-81586130D01*
X75856757Y-81586127D01*
X75890000Y-81376246D01*
X75890000Y-81163753D01*
X75856757Y-80953872D01*
X75856757Y-80953869D01*
X75791095Y-80751782D01*
X75694624Y-80562449D01*
X75655270Y-80508282D01*
X75655269Y-80508282D01*
X75022962Y-81140590D01*
X75005925Y-81077007D01*
X74940099Y-80962993D01*
X74847007Y-80869901D01*
X74732993Y-80804075D01*
X74669407Y-80787036D01*
X75301716Y-80154728D01*
X75247547Y-80115373D01*
X75247547Y-80115372D01*
X75238500Y-80110763D01*
X75187706Y-80062788D01*
X75170912Y-79994966D01*
X75193451Y-79928832D01*
X75238508Y-79889793D01*
X75247816Y-79885051D01*
X75327801Y-79826939D01*
X75419786Y-79760109D01*
X75419788Y-79760106D01*
X75419792Y-79760104D01*
X75570104Y-79609792D01*
X75570106Y-79609788D01*
X75570109Y-79609786D01*
X75695048Y-79437820D01*
X75695047Y-79437820D01*
X75695051Y-79437816D01*
X75791557Y-79248412D01*
X75857246Y-79046243D01*
X75890500Y-78836287D01*
X75890500Y-78623713D01*
X75857246Y-78413757D01*
X75791557Y-78211588D01*
X75695051Y-78022184D01*
X75695049Y-78022181D01*
X75695048Y-78022179D01*
X75570109Y-77850213D01*
X75419786Y-77699890D01*
X75247820Y-77574951D01*
X75247115Y-77574591D01*
X75239054Y-77570485D01*
X75188259Y-77522512D01*
X75171463Y-77454692D01*
X75193999Y-77388556D01*
X75239054Y-77349515D01*
X75247816Y-77345051D01*
X75306329Y-77302539D01*
X75419786Y-77220109D01*
X75419788Y-77220106D01*
X75419792Y-77220104D01*
X75570104Y-77069792D01*
X75570106Y-77069788D01*
X75570109Y-77069786D01*
X75695048Y-76897820D01*
X75695047Y-76897820D01*
X75695051Y-76897816D01*
X75791557Y-76708412D01*
X75857246Y-76506243D01*
X75890500Y-76296287D01*
X75890500Y-76083713D01*
X75857246Y-75873757D01*
X75843506Y-75831473D01*
X75841512Y-75761635D01*
X75873755Y-75705478D01*
X77605448Y-73973785D01*
X77666769Y-73940302D01*
X77736461Y-73945286D01*
G37*
%TD.AperFunction*%
%TA.AperFunction,Conductor*%
G36*
X69945503Y-90225185D02*
G01*
X69951981Y-90231217D01*
X70006549Y-90285785D01*
X70006555Y-90285790D01*
X70666241Y-90945476D01*
X70699726Y-91006799D01*
X70696492Y-91071473D01*
X70682753Y-91113757D01*
X70649500Y-91323713D01*
X70649500Y-91536286D01*
X70681035Y-91735394D01*
X70682754Y-91746243D01*
X70728992Y-91888549D01*
X70748444Y-91948414D01*
X70844951Y-92137820D01*
X70969890Y-92309786D01*
X71120213Y-92460109D01*
X71292182Y-92585050D01*
X71300946Y-92589516D01*
X71351742Y-92637491D01*
X71368536Y-92705312D01*
X71345998Y-92771447D01*
X71300946Y-92810484D01*
X71292182Y-92814949D01*
X71120213Y-92939890D01*
X70969890Y-93090213D01*
X70844951Y-93262179D01*
X70748444Y-93451585D01*
X70682753Y-93653760D01*
X70649500Y-93863713D01*
X70649500Y-94076286D01*
X70682753Y-94286239D01*
X70748444Y-94488414D01*
X70844951Y-94677820D01*
X70969890Y-94849786D01*
X71120213Y-95000109D01*
X71292179Y-95125048D01*
X71292181Y-95125049D01*
X71292184Y-95125051D01*
X71301493Y-95129794D01*
X71352290Y-95177766D01*
X71369087Y-95245587D01*
X71346552Y-95311722D01*
X71301505Y-95350760D01*
X71292446Y-95355376D01*
X71292440Y-95355380D01*
X71238282Y-95394727D01*
X71238282Y-95394728D01*
X71870591Y-96027037D01*
X71807007Y-96044075D01*
X71692993Y-96109901D01*
X71599901Y-96202993D01*
X71534075Y-96317007D01*
X71517037Y-96380591D01*
X70884728Y-95748282D01*
X70884727Y-95748282D01*
X70845380Y-95802439D01*
X70748904Y-95991782D01*
X70683242Y-96193869D01*
X70683242Y-96193872D01*
X70650000Y-96403753D01*
X70650000Y-96616246D01*
X70683242Y-96826127D01*
X70683242Y-96826130D01*
X70748904Y-97028217D01*
X70845375Y-97217550D01*
X70884728Y-97271716D01*
X71517037Y-96639408D01*
X71534075Y-96702993D01*
X71599901Y-96817007D01*
X71692993Y-96910099D01*
X71807007Y-96975925D01*
X71870589Y-96992962D01*
X71238282Y-97625269D01*
X71238282Y-97625270D01*
X71292452Y-97664626D01*
X71292451Y-97664626D01*
X71301495Y-97669234D01*
X71352292Y-97717208D01*
X71369087Y-97785029D01*
X71346550Y-97851164D01*
X71301499Y-97890202D01*
X71292182Y-97894949D01*
X71120213Y-98019890D01*
X70969890Y-98170213D01*
X70844951Y-98342179D01*
X70748444Y-98531585D01*
X70682753Y-98733760D01*
X70649500Y-98943713D01*
X70649500Y-99090902D01*
X70629815Y-99157941D01*
X70577011Y-99203696D01*
X70507853Y-99213640D01*
X70444297Y-99184615D01*
X70437819Y-99178583D01*
X69776619Y-98517383D01*
X69743134Y-98456060D01*
X69740300Y-98429702D01*
X69740300Y-90318898D01*
X69759985Y-90251859D01*
X69812789Y-90206104D01*
X69881947Y-90196160D01*
X69945503Y-90225185D01*
G37*
%TD.AperFunction*%
%TA.AperFunction,Conductor*%
G36*
X87366934Y-66376914D02*
G01*
X87422867Y-66418786D01*
X87447284Y-66484250D01*
X87447600Y-66493096D01*
X87447600Y-69548002D01*
X87427915Y-69615041D01*
X87411281Y-69635683D01*
X87163536Y-69883428D01*
X87102213Y-69916913D01*
X87032521Y-69911929D01*
X86976588Y-69870057D01*
X86965370Y-69852042D01*
X86914624Y-69752449D01*
X86875270Y-69698282D01*
X86875269Y-69698282D01*
X86242962Y-70330589D01*
X86225925Y-70267007D01*
X86160099Y-70152993D01*
X86067007Y-70059901D01*
X85952993Y-69994075D01*
X85889407Y-69977036D01*
X86521716Y-69344728D01*
X86467547Y-69305373D01*
X86467547Y-69305372D01*
X86458500Y-69300763D01*
X86407706Y-69252788D01*
X86390912Y-69184966D01*
X86413451Y-69118832D01*
X86458508Y-69079793D01*
X86467816Y-69075051D01*
X86547007Y-69017515D01*
X86639786Y-68950109D01*
X86639788Y-68950106D01*
X86639792Y-68950104D01*
X86790104Y-68799792D01*
X86790106Y-68799788D01*
X86790109Y-68799786D01*
X86915048Y-68627820D01*
X86915047Y-68627820D01*
X86915051Y-68627816D01*
X87011557Y-68438412D01*
X87077246Y-68236243D01*
X87110500Y-68026287D01*
X87110500Y-67813713D01*
X87077246Y-67603757D01*
X87011557Y-67401588D01*
X86915051Y-67212184D01*
X86915049Y-67212181D01*
X86915048Y-67212179D01*
X86790109Y-67040213D01*
X86783296Y-67033400D01*
X86749811Y-66972077D01*
X86754795Y-66902385D01*
X86783296Y-66858038D01*
X87235919Y-66405415D01*
X87297242Y-66371930D01*
X87366934Y-66376914D01*
G37*
%TD.AperFunction*%
%TA.AperFunction,Conductor*%
G36*
X69374045Y-50610769D02*
G01*
X69397711Y-50635353D01*
X69504310Y-50782073D01*
X69637927Y-50915690D01*
X69768386Y-51010474D01*
X69811051Y-51065803D01*
X69819500Y-51110791D01*
X69819500Y-58803801D01*
X69799815Y-58870840D01*
X69783181Y-58891482D01*
X69173011Y-59501651D01*
X69111688Y-59535136D01*
X69041996Y-59530152D01*
X68986063Y-59488280D01*
X68974845Y-59470265D01*
X68904624Y-59332449D01*
X68865270Y-59278282D01*
X68865269Y-59278282D01*
X68232962Y-59910590D01*
X68215925Y-59847007D01*
X68150099Y-59732993D01*
X68057007Y-59639901D01*
X67942993Y-59574075D01*
X67879409Y-59557037D01*
X68549627Y-58886818D01*
X68610950Y-58853333D01*
X68637307Y-58850499D01*
X68647872Y-58850499D01*
X68707483Y-58844091D01*
X68842331Y-58793796D01*
X68957546Y-58707546D01*
X69043796Y-58592331D01*
X69094091Y-58457483D01*
X69100500Y-58397873D01*
X69100499Y-56602128D01*
X69094091Y-56542517D01*
X69081382Y-56508443D01*
X69043797Y-56407671D01*
X69043793Y-56407664D01*
X68957547Y-56292455D01*
X68957544Y-56292452D01*
X68842335Y-56206206D01*
X68842328Y-56206202D01*
X68707482Y-56155908D01*
X68707483Y-56155908D01*
X68647883Y-56149501D01*
X68647881Y-56149500D01*
X68647873Y-56149500D01*
X68647864Y-56149500D01*
X66852129Y-56149500D01*
X66852123Y-56149501D01*
X66792516Y-56155908D01*
X66657671Y-56206202D01*
X66657664Y-56206206D01*
X66542455Y-56292452D01*
X66542452Y-56292455D01*
X66456206Y-56407664D01*
X66456202Y-56407671D01*
X66405909Y-56542516D01*
X66405908Y-56542516D01*
X66399676Y-56600486D01*
X66399501Y-56602123D01*
X66399500Y-56602135D01*
X66399500Y-58397870D01*
X66399501Y-58397876D01*
X66405908Y-58457483D01*
X66456202Y-58592328D01*
X66456206Y-58592335D01*
X66542452Y-58707544D01*
X66542455Y-58707547D01*
X66657664Y-58793793D01*
X66657671Y-58793797D01*
X66684494Y-58803801D01*
X66792517Y-58844091D01*
X66852127Y-58850500D01*
X66862685Y-58850499D01*
X66929723Y-58870179D01*
X66950372Y-58886818D01*
X67620591Y-59557037D01*
X67557007Y-59574075D01*
X67442993Y-59639901D01*
X67349901Y-59732993D01*
X67284075Y-59847007D01*
X67267037Y-59910591D01*
X66634728Y-59278282D01*
X66634727Y-59278282D01*
X66595380Y-59332439D01*
X66498904Y-59521782D01*
X66433242Y-59723869D01*
X66433242Y-59723872D01*
X66400000Y-59933753D01*
X66400000Y-60146246D01*
X66433242Y-60356127D01*
X66433242Y-60356130D01*
X66498904Y-60558217D01*
X66595375Y-60747550D01*
X66634728Y-60801716D01*
X67267037Y-60169408D01*
X67284075Y-60232993D01*
X67349901Y-60347007D01*
X67442993Y-60440099D01*
X67557007Y-60505925D01*
X67620591Y-60522962D01*
X67470373Y-60673181D01*
X67409050Y-60706666D01*
X67382692Y-60709500D01*
X67264442Y-60709500D01*
X67111714Y-60750423D01*
X67093531Y-60760922D01*
X67093528Y-60760923D01*
X66974790Y-60829475D01*
X66974782Y-60829481D01*
X66142681Y-61661583D01*
X66081358Y-61695068D01*
X66011666Y-61690084D01*
X65955733Y-61648212D01*
X65931316Y-61582748D01*
X65931000Y-61573902D01*
X65931000Y-53975197D01*
X65950685Y-53908158D01*
X65967319Y-53887516D01*
X67530720Y-52324115D01*
X69164620Y-50690216D01*
X69190008Y-50646241D01*
X69240573Y-50598027D01*
X69309179Y-50584802D01*
X69374045Y-50610769D01*
G37*
%TD.AperFunction*%
%TD*%
M02*
