%TF.GenerationSoftware,KiCad,Pcbnew,9.0.2*%
%TF.CreationDate,2025-11-23T17:01:27+09:00*%
%TF.ProjectId,Retriever1_mother,52657472-6965-4766-9572-315f6d6f7468,rev?*%
%TF.SameCoordinates,Original*%
%TF.FileFunction,Profile,NP*%
%FSLAX46Y46*%
G04 Gerber Fmt 4.6, Leading zero omitted, Abs format (unit mm)*
G04 Created by KiCad (PCBNEW 9.0.2) date 2025-11-23 17:01:27*
%MOMM*%
%LPD*%
G01*
G04 APERTURE LIST*
%TA.AperFunction,Profile*%
%ADD10C,0.200000*%
%TD*%
G04 APERTURE END LIST*
D10*
X42000000Y-120499999D02*
G75*
G02*
X39000000Y-120499999I-1500000J0D01*
G01*
X39000000Y-120499999D02*
G75*
G02*
X42000000Y-120499999I1500000J0D01*
G01*
X42499999Y-35499999D02*
X38500001Y-35499999D01*
X38500001Y-55499999D02*
X64500000Y-55499999D01*
X80500000Y-40499999D02*
X80500000Y-38500000D01*
X45500000Y-122499998D02*
X45500000Y-120499999D01*
X127000001Y-120499999D02*
G75*
G02*
X124000001Y-120499999I-1500000J0D01*
G01*
X124000001Y-120499999D02*
G75*
G02*
X127000001Y-120499999I1500000J0D01*
G01*
X80500000Y-122499998D02*
G75*
G02*
X77499998Y-125500000I-3000000J-2D01*
G01*
X120500000Y-38500000D02*
G75*
G02*
X123500001Y-35500000I3000000J0D01*
G01*
X80350000Y-116499999D02*
G75*
G02*
X77650000Y-116499999I-1350000J0D01*
G01*
X77650000Y-116499999D02*
G75*
G02*
X80350000Y-116499999I1350000J0D01*
G01*
X70500000Y-40499999D02*
X45500000Y-40499999D01*
X35500000Y-38500000D02*
G75*
G02*
X38500001Y-35500000I3000000J0D01*
G01*
X77499999Y-35499999D02*
X73500001Y-35499999D01*
X80500000Y-122499998D02*
X80500000Y-120499999D01*
X127000000Y-40499999D02*
G75*
G02*
X124000000Y-40499999I-1500000J0D01*
G01*
X124000000Y-40499999D02*
G75*
G02*
X127000000Y-40499999I1500000J0D01*
G01*
X123500001Y-125499999D02*
X127499999Y-125499999D01*
X42499999Y-35499999D02*
G75*
G02*
X45500001Y-38500000I1J-3000001D01*
G01*
X35500000Y-108500000D02*
G75*
G02*
X38500001Y-105500000I3000000J0D01*
G01*
X80350000Y-58499999D02*
G75*
G02*
X77650000Y-58499999I-1350000J0D01*
G01*
X77650000Y-58499999D02*
G75*
G02*
X80350000Y-58499999I1350000J0D01*
G01*
X120500000Y-38500000D02*
X120500000Y-40499999D01*
X38500001Y-125499999D02*
G75*
G02*
X35500001Y-122499998I-1J2999999D01*
G01*
X64500000Y-105499999D02*
X38500001Y-105499999D01*
X129350000Y-116499999D02*
G75*
G02*
X126650000Y-116499999I-1350000J0D01*
G01*
X126650000Y-116499999D02*
G75*
G02*
X129350000Y-116499999I1350000J0D01*
G01*
X77000000Y-40499999D02*
G75*
G02*
X74000000Y-40499999I-1500000J0D01*
G01*
X74000000Y-40499999D02*
G75*
G02*
X77000000Y-40499999I1500000J0D01*
G01*
X130500000Y-122499998D02*
X130500000Y-38500000D01*
X73500001Y-125499999D02*
X77499998Y-125499999D01*
X70500000Y-38500000D02*
G75*
G02*
X73500001Y-35500000I3000000J0D01*
G01*
X45500000Y-120499999D02*
X70500000Y-120499999D01*
X120500000Y-120499999D02*
X120500000Y-122499998D01*
X77499999Y-35499999D02*
G75*
G02*
X80500001Y-38500000I1J-3000001D01*
G01*
X70500000Y-38500000D02*
X70500000Y-40499999D01*
X127499999Y-35499999D02*
X123500001Y-35499999D01*
X35500000Y-108500000D02*
X35500000Y-122499998D01*
X35500000Y-38500000D02*
X35500000Y-52499998D01*
X123500001Y-125499999D02*
G75*
G02*
X120500001Y-122499998I-1J2999999D01*
G01*
X80500000Y-120499999D02*
X120500000Y-120499999D01*
X73500001Y-125499999D02*
G75*
G02*
X70500001Y-122499998I-1J2999999D01*
G01*
X64500000Y-55499999D02*
X64500000Y-105499999D01*
X45500000Y-122499998D02*
G75*
G02*
X42499998Y-125500000I-3000000J-2D01*
G01*
X38500001Y-55499999D02*
G75*
G02*
X35500001Y-52499998I-1J2999999D01*
G01*
X127499999Y-35499999D02*
G75*
G02*
X130500001Y-38500000I1J-3000001D01*
G01*
X70500000Y-120499999D02*
X70500000Y-122499998D01*
X45500000Y-40499999D02*
X45500000Y-38500000D01*
X38500001Y-125499999D02*
X42499998Y-125499999D01*
X77000000Y-120499999D02*
G75*
G02*
X74000000Y-120499999I-1500000J0D01*
G01*
X74000000Y-120499999D02*
G75*
G02*
X77000000Y-120499999I1500000J0D01*
G01*
X42000000Y-40499998D02*
G75*
G02*
X39000000Y-40499998I-1500000J0D01*
G01*
X39000000Y-40499998D02*
G75*
G02*
X42000000Y-40499998I1500000J0D01*
G01*
X130500000Y-122499998D02*
G75*
G02*
X127499999Y-125500000I-3000000J-2D01*
G01*
X120500000Y-40499999D02*
X80500000Y-40499999D01*
X129350000Y-58499999D02*
G75*
G02*
X126650000Y-58499999I-1350000J0D01*
G01*
X126650000Y-58499999D02*
G75*
G02*
X129350000Y-58499999I1350000J0D01*
G01*
M02*
